{"glyphs":{"□":{"ha":1000,"x_min":100,"x_max":900,"o":"m 100 1780 l 900 1780 l 900 980 l 100 980 l 100 1780 m 130 1750 l 130 1010 l 870 1010 l 870 1750 l 130 1750"},"?":{"ha":435,"x_min":40,"x_max":378,"o":"m 213 1190 l 180 1190 q 173 1246 187 1289.5 q 201 1333 226 1368.5 q 251 1404 277.5 1437 q 304 1470 322.5 1505 q 341 1540 341 1583 l 341 1583 q 341 1618 327 1648.5 q 313 1679 284.5 1698.5 q 256 1718 210 1718 l 210 1718 q 169 1718 130 1699.5 q 91 1681 63 1646 l 63 1646 l 40 1667 q 71 1702 113.5 1726.5 q 156 1751 212 1751 l 212 1751 q 265 1751 302 1728.5 q 339 1706 358.5 1668.5 q 378 1631 378 1585 l 378 1585 q 378 1539 359.5 1501.5 q 341 1464 314 1430 q 287 1396 261.5 1360 q 236 1324 221 1283 q 206 1242 213 1190 l 213 1190 m 201 987 l 201 987 q 185 987 173 998.5 q 161 1010 161 1030 l 161 1030 q 161 1052 173 1063.5 q 185 1075 201 1075 l 201 1075 q 217 1075 229.5 1063.5 q 242 1052 242 1030 l 242 1030 q 242 1010 229.5 998.5 q 217 987 201 987"},"。":{"ha":1000,"x_min":52,"x_max":338,"o":"m 195 1240 l 195 1240 q 235 1240 267 1220.5 q 299 1201 318.5 1169 q 338 1137 338 1097 l 338 1097 q 338 1058 318.5 1025.5 q 299 993 267 973.5 q 235 954 195 954 l 195 954 q 156 954 123.5 973.5 q 91 993 71.5 1025.5 q 52 1058 52 1097 l 52 1097 q 52 1137 71.5 1169 q 91 1201 123.5 1220.5 q 156 1240 195 1240 m 195 984 l 195 984 q 242 984 275 1017 q 308 1050 308 1097 l 308 1097 q 308 1128 293 1153.5 q 278 1179 252.5 1194.5 q 227 1210 195 1210 l 195 1210 q 164 1210 138.5 1194.5 q 113 1179 97.5 1153.5 q 82 1128 82 1097 l 82 1097 q 82 1066 97.5 1040 q 113 1014 138.5 999 q 164 984 195 984"},"，":{"ha":1000,"x_min":108,"x_max":269,"o":"m 121 924 l 121 924 l 108 949 q 168 980 199.5 1023 q 231 1066 231 1136 l 231 1136 l 201 1206 l 254 1144 q 244 1129 231.5 1125 q 219 1121 207 1121 l 207 1121 q 183 1121 168 1133.5 q 153 1146 153 1174 l 153 1174 q 153 1203 169.5 1215.5 q 186 1228 206 1228 l 206 1228 q 237 1228 253 1202.5 q 269 1177 269 1135 l 269 1135 q 269 1058 227.5 1004.5 q 186 951 121 924"},"、":{"ha":1000,"x_min":64,"x_max":320,"o":"m 320 981 l 291 957 q 257 999 218 1040 q 179 1081 139.5 1117.5 q 100 1154 64 1182 l 64 1182 l 89 1206 q 126 1177 165 1140.5 q 204 1104 243.5 1063.5 q 283 1023 320 981 l 320 981"},"；":{"ha":1000,"x_min":158,"x_max":319,"o":"m 171 854 l 171 854 l 158 879 q 220 911 250.5 957.5 q 281 1004 281 1078 l 281 1078 l 251 1148 l 304 1086 q 294 1071 281.5 1067 q 269 1063 257 1063 l 257 1063 q 233 1063 218 1075.5 q 203 1088 203 1116 l 203 1116 q 203 1145 219.5 1157.5 q 236 1170 256 1170 l 256 1170 q 287 1170 303 1144.5 q 319 1119 319 1077 l 319 1077 q 319 995 277.5 939.5 q 236 884 171 854 m 250 1502 l 250 1502 q 229 1502 211.5 1516 q 194 1530 194 1558 l 194 1558 q 194 1586 211.5 1600 q 229 1614 250 1614 l 250 1614 q 271 1614 288.5 1600 q 306 1586 306 1558 l 306 1558 q 306 1530 288.5 1516 q 271 1502 250 1502"},"：":{"ha":1000,"x_min":194,"x_max":306,"o":"m 250 1502 l 250 1502 q 229 1502 211.5 1516 q 194 1530 194 1558 l 194 1558 q 194 1586 211.5 1600 q 229 1614 250 1614 l 250 1614 q 271 1614 288.5 1600 q 306 1586 306 1558 l 306 1558 q 306 1530 288.5 1516 q 271 1502 250 1502 m 250 1000 l 250 1000 q 229 1000 211.5 1014 q 194 1028 194 1056 l 194 1056 q 194 1084 211.5 1098 q 229 1112 250 1112 l 250 1112 q 271 1112 288.5 1098 q 306 1084 306 1056 l 306 1056 q 306 1028 288.5 1014 q 271 1000 250 1000"},"？":{"ha":1000,"x_min":34,"x_max":452,"o":"m 250 1226 l 216 1226 q 206 1270 216.5 1304.5 q 227 1339 249.5 1368 q 272 1397 300 1423 q 328 1449 354 1474 q 380 1499 397 1526.5 q 414 1554 414 1586 l 414 1586 q 414 1625 398 1658 q 382 1691 348 1710.5 q 314 1730 258 1730 l 258 1730 q 156 1730 59 1628 l 59 1628 l 34 1652 q 67 1684 99.5 1708.5 q 132 1733 171 1747.5 q 210 1762 260 1762 l 260 1762 q 322 1762 365 1738.5 q 408 1715 430 1676 q 452 1637 452 1588 l 452 1588 q 452 1549 435 1518 q 418 1487 391.5 1460.5 q 365 1434 337 1409 q 309 1384 286 1357 q 263 1330 252 1298 q 241 1266 250 1226 l 250 1226 m 236 1000 l 236 1000 q 221 1000 208.5 1010.5 q 196 1021 196 1042 l 196 1042 q 196 1063 208.5 1075.5 q 221 1088 236 1088 l 236 1088 q 251 1088 263.5 1075.5 q 276 1063 276 1042 l 276 1042 q 276 1021 263.5 1010.5 q 251 1000 236 1000"},"！":{"ha":1000,"x_min":210,"x_max":290,"o":"m 264 1226 l 236 1226 l 222 1660 l 222 1748 l 278 1748 l 278 1660 l 264 1226 m 250 1000 l 250 1000 q 235 1000 222.5 1010.5 q 210 1021 210 1042 l 210 1042 q 210 1063 222.5 1075.5 q 235 1088 250 1088 l 250 1088 q 265 1088 277.5 1075.5 q 290 1063 290 1042 l 290 1042 q 290 1021 277.5 1010.5 q 265 1000 250 1000"},"…":{"ha":1000,"x_min":117,"x_max":883,"o":"m 167 1430 l 167 1430 q 188 1430 202.5 1415.5 q 217 1401 217 1380 l 217 1380 q 217 1359 202.5 1344.5 q 188 1330 167 1330 l 167 1330 q 146 1330 131.5 1344.5 q 117 1359 117 1380 l 117 1380 q 117 1401 131.5 1415.5 q 146 1430 167 1430 m 500 1430 l 500 1430 q 521 1430 535.5 1415.5 q 550 1401 550 1380 l 550 1380 q 550 1359 535.5 1344.5 q 521 1330 500 1330 l 500 1330 q 479 1330 464.5 1344.5 q 450 1359 450 1380 l 450 1380 q 450 1401 464.5 1415.5 q 479 1430 500 1430 m 833 1430 l 833 1430 q 854 1430 868.5 1415.5 q 883 1401 883 1380 l 883 1380 q 883 1359 868.5 1344.5 q 854 1330 833 1330 l 833 1330 q 812 1330 797.5 1344.5 q 783 1359 783 1380 l 783 1380 q 783 1401 797.5 1415.5 q 812 1430 833 1430"},"—":{"ha":881,"x_min":44,"x_max":836,"o":"m 836 1260 l 44 1260 l 44 1291 l 836 1291 l 836 1260"},"·":{"ha":1000,"x_min":415,"x_max":585,"o":"m 500 1465 l 500 1465 q 524 1465 543 1453.5 q 562 1442 573.5 1423 q 585 1404 585 1380 l 585 1380 q 585 1357 573.5 1337.5 q 562 1318 543 1306.5 q 524 1295 500 1295 l 500 1295 q 477 1295 457.5 1306.5 q 438 1318 426.5 1337.5 q 415 1357 415 1380 l 415 1380 q 415 1404 426.5 1423 q 438 1442 457.5 1453.5 q 477 1465 500 1465"},"回":{"ha":1000,"x_min":93,"x_max":908,"o":"m 654 1530 l 344 1530 l 344 1244 l 654 1244 l 654 1530 m 315 1215 l 315 1560 l 683 1560 l 683 1215 l 315 1215 m 93 932 l 93 1783 l 908 1783 l 908 932 l 878 932 l 878 1754 l 123 1754 l 123 932 l 93 932 m 110 985 l 110 1015 l 896 1015 l 896 985 l 110 985"},"退":{"ha":1000,"x_min":57,"x_max":955,"o":"m 412 1747 l 412 1776 l 836 1776 l 836 1422 l 412 1422 l 412 1451 l 807 1451 l 807 1747 l 412 1747 m 409 1586 l 409 1616 l 828 1616 l 828 1586 l 409 1586 m 889 1408 l 889 1408 l 917 1393 q 871 1354 813.5 1314 q 756 1274 706 1245 l 706 1245 l 682 1260 q 715 1279 753.5 1305 q 792 1331 828 1358.5 q 864 1386 889 1408 m 63 1475 l 245 1475 l 245 1087 l 216 1087 l 216 1446 l 63 1446 l 63 1475 m 107 1769 l 107 1769 l 131 1783 q 158 1759 186 1729.5 q 214 1700 239 1671.5 q 264 1643 279 1621 l 279 1621 l 254 1604 q 240 1626 215.5 1655 q 191 1684 162.5 1714 q 134 1744 107 1769 m 229 1097 l 229 1097 q 252 1097 272.5 1079.5 q 293 1062 330 1037 l 330 1037 q 377 1009 438.5 1000.5 q 500 992 583 992 l 583 992 q 648 992 715.5 994 q 783 996 845 999 q 907 1002 955 1006 l 955 1006 q 953 1002 951 996.5 q 949 991 947.5 985 q 946 979 945 974 l 945 974 q 916 972 869.5 970.5 q 823 969 770 967.5 q 717 966 667.5 965 q 618 964 583 964 l 583 964 q 495 964 430 974 q 365 984 317 1015 l 317 1015 q 289 1033 267 1052 q 245 1071 229 1071 l 229 1071 q 210 1071 186.5 1056.5 q 163 1042 136 1016.5 q 109 991 78 957 l 78 957 l 57 980 q 106 1029 149 1063 q 192 1097 229 1097 m 561 1348 l 561 1348 l 583 1364 q 639 1325 697.5 1278 q 756 1231 807.5 1185 q 859 1139 892 1101 l 892 1101 l 868 1082 q 837 1119 786 1166 q 735 1213 676 1261 q 617 1309 561 1348 m 382 1083 l 382 1083 q 381 1088 378 1093.5 q 375 1099 372 1105 q 369 1111 366 1115 l 366 1115 q 375 1119 387.5 1129.5 q 400 1140 400 1168 l 400 1168 l 400 1776 l 430 1776 l 430 1122 q 430 1122 425 1119.5 q 420 1117 413 1112.5 q 406 1108 399 1102.5 q 392 1097 387 1092 q 382 1087 382 1083 m 382 1083 l 382 1083 l 382 1113 l 403 1131 l 630 1204 q 630 1197 630.5 1189 q 631 1181 632 1177 l 632 1177 q 553 1150 505.5 1133 q 458 1116 433.5 1107 q 409 1098 398.5 1093 q 388 1088 382 1083"},"本":{"ha":1000,"x_min":51,"x_max":958,"o":"m 71 1573 l 71 1603 l 931 1603 l 931 1573 l 71 1573 m 227 1135 l 227 1165 l 774 1165 l 774 1135 l 227 1135 m 484 930 l 484 1829 l 514 1829 l 514 930 l 484 930 m 440 1597 l 440 1597 l 466 1587 q 425 1485 362.5 1391 q 300 1297 225.5 1221 q 151 1145 73 1098 l 73 1098 q 71 1102 67 1106.5 q 63 1111 59 1115 q 55 1119 51 1122 l 51 1122 q 129 1165 203 1239 q 277 1313 339 1406 q 401 1499 440 1597 m 531 1585 l 556 1594 q 595 1494 657.5 1401.5 q 720 1309 797.5 1236.5 q 875 1164 958 1123 l 958 1123 q 954 1120 950 1116 q 946 1112 942.5 1107.5 q 939 1103 936 1099 l 936 1099 q 853 1143 776 1218 q 699 1293 635.5 1387.5 q 572 1482 531 1585 l 531 1585"},"地":{"ha":1000,"x_min":45,"x_max":951,"o":"m 653 1143 l 653 1831 l 682 1831 l 682 1143 l 653 1143 m 332 1381 l 320 1408 l 879 1642 l 892 1616 l 332 1381 m 437 1052 l 437 1741 l 467 1741 l 467 1050 q 467 1025 474 1010.5 q 481 996 499.5 990 q 518 984 554 984 l 554 984 q 565 984 592.5 984 q 620 984 656.5 984 q 693 984 730 984 q 767 984 797 984 q 827 984 842 984 l 842 984 q 874 984 889.5 997.5 q 905 1011 911.5 1045.5 q 918 1080 921 1143 l 921 1143 q 928 1138 936 1134.5 q 944 1131 951 1130 l 951 1130 q 947 1063 938.5 1025 q 930 987 907 971 q 884 955 838 955 l 838 955 q 831 955 803 955 q 775 955 736.5 955 q 698 955 659.5 955 q 621 955 593 955 q 565 955 559 955 l 559 955 q 513 955 486 963 q 459 971 448 992 q 437 1013 437 1052 l 437 1052 m 876 1635 l 876 1635 l 866 1635 l 880 1650 l 886 1657 l 908 1647 l 906 1639 q 906 1570 905.5 1504 q 905 1438 903.5 1383 q 902 1328 899.5 1290 q 897 1252 893 1238 l 893 1238 q 887 1212 872 1201 q 857 1190 836 1189 l 836 1189 q 818 1188 793.5 1188 q 769 1188 752 1188 l 752 1188 q 751 1196 748.5 1204 q 746 1212 742 1219 l 742 1219 q 765 1218 791.5 1217.5 q 818 1217 827 1217 l 827 1217 q 841 1217 851 1223 q 861 1229 866 1250 l 866 1250 q 869 1262 871 1298.5 q 873 1335 874 1388 q 875 1441 875.5 1504.5 q 876 1568 876 1635 m 49 1552 l 49 1581 l 354 1581 l 354 1552 l 49 1552 m 190 1186 l 190 1821 l 220 1821 l 220 1186 l 190 1186 m 57 1107 l 45 1136 q 84 1151 134.5 1172 q 185 1193 241.5 1217 q 298 1241 355 1265 l 355 1265 l 361 1237 q 280 1202 200 1167.5 q 120 1133 57 1107 l 57 1107"},"静":{"ha":1000,"x_min":51,"x_max":964,"o":"m 72 1704 l 72 1733 l 470 1733 l 470 1704 l 72 1704 m 610 1708 l 610 1737 l 818 1737 l 818 1708 l 610 1708 m 518 1185 l 518 1215 l 884 1215 l 884 1185 l 518 1185 m 84 1592 l 84 1621 l 456 1621 l 456 1592 l 84 1592 m 51 1474 l 51 1503 l 484 1503 l 484 1474 l 51 1474 m 465 1361 l 465 1390 l 964 1390 l 964 1361 l 465 1361 m 130 1240 l 130 1270 l 413 1270 l 413 1240 l 130 1240 m 130 1112 l 130 1141 l 413 1141 l 413 1112 l 130 1112 m 253 1482 l 253 1831 l 282 1831 l 282 1482 l 253 1482 m 116 929 l 116 1395 l 412 1395 l 412 1366 l 145 1366 l 145 929 l 116 929 m 400 972 l 400 1395 l 429 1395 l 429 972 q 429 956 424 947 q 419 938 405 935 l 405 935 q 391 931 363 930 q 335 929 285 929 l 285 929 q 284 934 280.5 941.5 q 277 949 273 956 l 273 956 q 314 955 344 955 q 374 955 383 955 l 383 955 q 400 956 400 972 l 400 972 m 524 1532 l 524 1562 l 895 1562 l 895 1143 l 866 1143 l 866 1532 l 524 1532 m 682 977 l 682 1550 l 712 1550 l 712 977 q 712 957 705.5 947.5 q 699 938 683 934 l 683 934 q 668 930 636 929.5 q 604 929 549 929 l 549 929 q 548 934 544.5 942.5 q 541 951 537 958 l 537 958 q 584 957 618 957 q 652 957 663 957 l 663 957 q 674 958 678 962 q 682 966 682 977 l 682 977 m 646 1831 l 646 1831 l 674 1824 q 642 1744 594.5 1670.5 q 547 1597 494 1544 l 494 1544 q 492 1547 487.5 1550.5 q 483 1554 478.5 1558 q 474 1562 470 1564 l 470 1564 q 523 1614 569.5 1684.5 q 616 1755 646 1831 m 809 1730 l 809 1737 l 815 1737 l 820 1739 l 839 1726 q 824 1692 802.5 1657 q 781 1622 758 1591 q 735 1560 714 1536 l 714 1536 q 710 1539 703.5 1542.5 q 697 1546 692 1548 l 692 1548 q 713 1571 735 1602.5 q 757 1634 776.5 1667.5 q 796 1701 809 1730 l 809 1730"},"夜":{"ha":1000,"x_min":35,"x_max":964,"o":"m 519 1508 l 533 1537 l 882 1537 l 882 1508 l 519 1508 m 440 1410 l 466 1420 q 511 1312 585.5 1219 q 660 1126 756.5 1057 q 853 988 964 952 l 964 952 q 960 949 956 944.5 q 952 940 948.5 935.5 q 945 931 942 927 l 942 927 q 832 966 735 1037 q 638 1108 562.5 1203.5 q 487 1299 440 1410 l 440 1410 m 561 1437 l 561 1437 l 583 1454 q 621 1425 660 1387 q 699 1349 721 1321 l 721 1321 l 697 1300 q 677 1329 638 1367.5 q 599 1406 561 1437 m 66 1677 l 66 1707 l 935 1707 l 935 1677 l 66 1677 m 310 1668 l 310 1668 l 338 1660 q 305 1581 261 1507.5 q 217 1434 166 1370.5 q 115 1307 60 1258 l 60 1258 q 58 1261 53.5 1264.5 q 49 1268 44 1272 q 39 1276 35 1278 l 35 1278 q 91 1325 142 1387 q 193 1449 236 1520.5 q 279 1592 310 1668 m 580 1667 l 580 1667 l 610 1658 q 581 1587 537.5 1514 q 494 1441 440.5 1374.5 q 387 1308 325 1256 l 325 1256 q 323 1259 319 1263 q 315 1267 311 1271 q 307 1275 303 1277 l 303 1277 q 364 1327 417.5 1391.5 q 471 1456 512.5 1527 q 554 1598 580 1667 m 870 1530 l 870 1537 l 877 1537 l 884 1539 l 901 1529 q 866 1405 806.5 1308 q 747 1211 669.5 1139 q 592 1067 501 1015.5 q 410 964 312 931 l 312 931 q 310 935 306.5 939 q 303 943 299.5 947.5 q 296 952 292 954 l 292 954 q 422 996 538 1071 q 654 1146 740.5 1259.5 q 827 1373 870 1530 l 870 1530 m 208 931 l 208 1461 l 238 1491 l 237 1490 l 237 931 l 208 931 m 448 1825 l 448 1825 l 475 1834 q 495 1808 515 1774.5 q 535 1741 545 1718 l 545 1718 l 519 1706 q 509 1730 489 1763.5 q 469 1797 448 1825"},"月":{"ha":1000,"x_min":37,"x_max":801,"o":"m 238 1743 l 238 1772 l 781 1772 l 781 1743 l 238 1743 m 237 1500 l 237 1529 l 785 1529 l 785 1500 l 237 1500 m 226 1254 l 226 1283 l 782 1283 l 782 1254 l 226 1254 m 227 1486 l 227 1772 l 256 1772 l 256 1486 q 256 1421 249.5 1348.5 q 243 1276 223 1201.5 q 203 1127 163.5 1057 q 124 987 58 928 l 58 928 q 56 932 52.5 936 q 49 940 45 944 q 41 948 37 950 l 37 950 q 101 1008 139 1075 q 177 1142 196 1212.5 q 215 1283 221 1353 q 227 1423 227 1486 l 227 1486 m 771 999 l 771 1772 l 801 1772 l 801 999 q 801 972 791.5 959.5 q 782 947 760 942 l 760 942 q 738 938 689 937 q 640 936 557 936 l 557 936 q 556 941 553.5 946.5 q 551 952 548.5 957.5 q 546 963 543 968 l 543 968 q 591 967 631.5 967 q 672 967 700.5 967.5 q 729 968 740 968 l 740 968 q 758 969 764.5 975.5 q 771 982 771 999 l 771 999"},"色":{"ha":1000,"x_min":52,"x_max":956,"o":"m 495 1281 l 495 1546 l 525 1546 l 525 1281 l 495 1281 m 308 1704 l 323 1733 l 654 1733 l 654 1704 l 308 1704 m 641 1725 l 641 1733 l 648 1733 l 655 1735 l 676 1722 q 656 1687 629 1650.5 q 602 1614 573 1582 q 544 1550 517 1525 l 517 1525 q 513 1530 506.5 1534.5 q 500 1539 495 1543 l 495 1543 q 522 1566 549.5 1597.5 q 577 1629 601 1662.5 q 625 1696 641 1725 l 641 1725 m 190 1053 l 190 1554 l 220 1554 l 220 1051 q 220 1022 230.5 1005 q 241 988 270 981 q 299 974 354 974 l 354 974 q 371 974 413.5 974 q 456 974 511.5 974 q 567 974 624 974 q 681 974 727.5 974 q 774 974 797 974 l 797 974 q 848 974 873 988 q 898 1002 908.5 1040 q 919 1078 924 1148 l 924 1148 q 932 1143 940.5 1139.5 q 949 1136 956 1134 l 956 1134 q 951 1079 943 1042 q 935 1005 918.5 983.5 q 902 962 871.5 953 q 841 944 792 944 l 792 944 q 784 944 752 944 q 720 944 673.5 944 q 627 944 576.5 944 q 526 944 480 944 q 434 944 402 944 q 370 944 363 944 l 363 944 q 298 944 260 952.5 q 222 961 206 985 q 190 1009 190 1053 l 190 1053 m 373 1829 l 373 1829 l 401 1820 q 364 1745 311.5 1676.5 q 259 1608 198 1551 q 137 1494 72 1450 l 72 1450 q 71 1453 67.5 1458 q 64 1463 60 1468.5 q 56 1474 52 1476 l 52 1476 q 116 1517 176.5 1571.5 q 237 1626 287.5 1691.5 q 338 1757 373 1829 m 202 1524 l 202 1554 l 852 1554 l 852 1211 l 821 1211 l 821 1524 l 202 1524 m 202 1267 l 202 1296 l 838 1296 l 838 1267 l 202 1267"},"落":{"ha":1000,"x_min":52,"x_max":963,"o":"m 442 974 l 442 1003 l 844 1003 l 844 974 l 442 974 m 499 1544 l 499 1573 l 848 1573 l 848 1544 l 499 1544 m 433 929 l 433 1214 l 859 1214 l 859 929 l 829 929 l 829 1184 l 463 1184 l 463 929 l 433 929 m 456 1517 l 482 1530 q 521 1481 575.5 1434.5 q 630 1388 695 1347 q 760 1306 828.5 1274 q 897 1242 963 1222 l 963 1222 q 957 1217 951 1209 q 945 1201 940 1195 l 940 1195 q 876 1216 807.5 1249.5 q 739 1283 673.5 1326 q 608 1369 552 1417.5 q 496 1466 456 1517 l 456 1517 m 838 1567 l 838 1573 l 845 1573 l 852 1575 l 870 1563 q 832 1494 772 1436 q 712 1378 639.5 1331.5 q 567 1285 489.5 1251 q 412 1217 340 1196 l 340 1196 q 338 1203 333 1211 q 328 1219 323 1223 l 323 1223 q 394 1241 469.5 1273.5 q 545 1306 616 1350.5 q 687 1395 745 1449.5 q 803 1504 838 1567 l 838 1567 m 99 936 l 76 959 q 104 993 138 1039 q 172 1085 207.5 1136.5 q 243 1188 273 1236 l 273 1236 l 293 1216 q 265 1171 231.5 1121 q 198 1071 164 1023 q 130 975 99 936 l 99 936 m 125 1599 l 125 1599 l 143 1620 q 173 1606 205 1588 q 237 1570 265.5 1551.5 q 294 1533 312 1517 l 312 1517 l 292 1493 q 274 1509 246 1528.5 q 218 1548 186.5 1566.5 q 155 1585 125 1599 m 52 1408 l 52 1408 l 70 1430 q 102 1420 135 1404.5 q 168 1389 196.5 1371.5 q 225 1354 243 1337 l 243 1337 l 225 1312 q 207 1329 178.5 1346.5 q 150 1364 117 1380.5 q 84 1397 52 1408 m 545 1655 l 545 1655 l 578 1650 q 541 1586 481 1514.5 q 421 1443 337 1384 l 337 1384 q 333 1389 326.5 1394.5 q 320 1400 314 1403 l 314 1403 q 396 1458 455 1527 q 514 1596 545 1655 m 311 1614 l 311 1830 l 340 1830 l 340 1614 l 311 1614 m 654 1614 l 654 1830 l 683 1830 l 683 1614 l 654 1614 m 67 1718 l 67 1747 l 936 1747 l 936 1718 l 67 1718"},"在":{"ha":1000,"x_min":53,"x_max":933,"o":"m 70 1630 l 70 1660 l 930 1660 l 930 1630 l 70 1630 m 364 1321 l 364 1350 l 894 1350 l 894 1321 l 364 1321 m 324 952 l 324 982 l 933 982 l 933 952 l 324 952 m 611 965 l 611 1570 l 640 1570 l 640 965 l 611 965 m 412 1830 l 412 1830 l 442 1822 q 409 1714 358 1607 q 307 1500 236.5 1406.5 q 166 1313 73 1243 l 73 1243 q 71 1246 67.5 1250 q 64 1254 60 1258.5 q 56 1263 53 1265 l 53 1265 q 121 1316 177 1381 q 233 1446 277.5 1520 q 322 1594 356 1672.5 q 390 1751 412 1830 m 216 935 l 216 1425 l 245 1425 l 245 935 l 216 935"},"窗":{"ha":1000,"x_min":89,"x_max":908,"o":"m 182 926 l 182 1477 l 834 1477 l 834 931 l 805 931 l 805 1448 l 211 1448 l 211 926 l 182 926 m 449 1579 l 449 1579 l 479 1569 q 458 1540 433 1510.5 q 408 1481 385 1460 l 385 1460 l 361 1469 q 383 1492 408 1524 q 433 1556 449 1579 m 191 982 l 191 1011 l 814 1011 l 814 982 l 191 982 m 671 1340 l 671 1347 l 677 1347 l 683 1349 l 703 1338 q 669 1255 604.5 1196 q 540 1137 460 1099 q 380 1061 296 1040 l 296 1040 q 293 1046 288.5 1053.5 q 284 1061 279 1066 l 279 1066 q 359 1083 437.5 1118.5 q 516 1154 578 1209 q 640 1264 671 1340 l 671 1340 m 399 1419 l 399 1419 l 431 1415 q 409 1369 377 1320.5 q 345 1272 300 1229 l 300 1229 q 295 1234 288 1238.5 q 281 1243 275 1246 l 275 1246 q 318 1285 350 1332 q 382 1379 399 1419 m 357 1318 l 383 1347 l 679 1347 l 679 1318 l 357 1318 m 363 1254 l 363 1254 l 381 1274 q 441 1249 504.5 1216 q 568 1183 624 1148 q 680 1113 716 1082 l 716 1082 l 696 1059 q 661 1090 605.5 1125.5 q 550 1161 486.5 1195 q 423 1229 363 1254 m 89 1597 l 89 1736 l 908 1736 l 908 1597 l 878 1597 l 878 1707 l 119 1707 l 119 1597 l 89 1597 m 369 1669 l 369 1669 l 395 1657 q 361 1623 318.5 1592 q 276 1561 229.5 1536 q 183 1511 135 1494 l 135 1494 l 115 1515 q 161 1531 207 1554 q 253 1577 295 1606.5 q 337 1636 369 1669 m 598 1648 l 598 1648 l 617 1666 q 665 1643 717 1613.5 q 769 1584 815.5 1554.5 q 862 1525 893 1500 l 893 1500 l 874 1479 q 845 1503 798.5 1533.5 q 752 1564 699.5 1594 q 647 1624 598 1648 m 448 1824 l 448 1824 l 476 1833 q 493 1808 510.5 1777 q 528 1746 536 1724 l 536 1724 l 509 1713 q 500 1736 483 1767.5 q 466 1799 448 1824"},"棂":{"ha":1000,"x_min":43,"x_max":952,"o":"m 632 1415 l 632 1415 l 663 1415 q 657 1316 642 1238 q 627 1160 595 1100 q 563 1040 505.5 997 q 448 954 356 926 l 356 926 q 353 931 347 938 q 341 945 336 949 l 336 949 q 426 975 482 1016.5 q 538 1058 569.5 1115 q 601 1172 614.5 1247 q 628 1322 632 1415 m 467 1343 l 467 1343 l 491 1333 q 480 1302 464 1265 q 448 1228 428.5 1193 q 409 1158 385 1132 l 385 1132 l 360 1146 q 384 1171 404 1205 q 424 1239 440 1275.5 q 456 1312 467 1343 m 868 1349 l 868 1349 l 895 1334 q 873 1285 845 1229 q 817 1173 792 1132 l 792 1132 l 770 1147 q 786 1174 804.5 1209.5 q 823 1245 840 1282 q 857 1319 868 1349 m 616 1243 l 641 1249 q 662 1174 703.5 1115.5 q 745 1057 807.5 1017.5 q 870 978 952 960 l 952 960 q 949 957 945 953 q 941 949 937.5 944.5 q 934 940 932 935 l 932 935 q 849 957 786 998.5 q 723 1040 680.5 1101.5 q 638 1163 616 1243 l 616 1243 m 444 1603 l 444 1632 l 877 1632 l 877 1603 l 444 1603 m 416 1750 l 416 1779 l 890 1779 l 890 1455 l 416 1455 l 416 1484 l 861 1484 l 861 1750 l 416 1750 m 67 1602 l 67 1631 l 372 1631 l 372 1602 l 67 1602 m 218 932 l 218 1831 l 247 1831 l 247 932 l 218 932 m 216 1623 l 216 1623 l 242 1616 q 230 1557 211 1492 q 192 1427 168.5 1364.5 q 145 1302 118.5 1248.5 q 92 1195 66 1158 l 66 1158 q 63 1162 59.5 1166.5 q 56 1171 51.5 1175 q 47 1179 43 1181 l 43 1181 q 69 1217 94.5 1268 q 120 1319 143.5 1379 q 167 1439 185.5 1501.5 q 204 1564 216 1623 m 227 1542 l 246 1557 q 254 1547 269.5 1521.5 q 285 1496 303.5 1466 q 322 1436 337.5 1410.5 q 353 1385 359 1374 l 359 1374 l 336 1347 q 329 1363 314.5 1390.5 q 300 1418 282.5 1448.5 q 265 1479 250 1504.5 q 235 1530 227 1542 l 227 1542"},"上":{"ha":1000,"x_min":59,"x_max":942,"o":"m 469 1454 l 469 1483 l 875 1483 l 875 1454 l 469 1454 m 59 976 l 59 1005 l 942 1005 l 942 976 l 59 976 m 451 992 l 451 1813 l 480 1813 l 480 992 l 451 992"},"像":{"ha":1000,"x_min":43,"x_max":958,"o":"m 464 1729 l 464 1759 l 707 1759 l 707 1729 l 464 1729 m 857 1590 l 388 1590 l 388 1451 l 857 1451 l 857 1590 m 359 1422 l 359 1620 l 886 1620 l 886 1422 l 359 1422 m 520 1378 l 520 1378 l 540 1394 q 590 1358 623 1309 q 656 1260 673 1206.5 q 690 1153 692 1103 q 694 1053 682.5 1014 q 671 975 648 956 l 648 956 q 631 940 614 936 q 597 932 574 932 l 574 932 q 545 932 509 935 l 509 935 q 508 940 505.5 948.5 q 503 957 500 963 l 500 963 q 520 961 538 960 q 556 959 569 959 l 569 959 q 586 959 599.5 961 q 613 963 626 975 l 626 975 q 646 991 655.5 1026 q 665 1061 662.5 1106.5 q 660 1152 644 1201.5 q 628 1251 597.5 1297 q 567 1343 520 1378 m 600 1306 l 600 1306 l 623 1293 q 586 1256 530 1218.5 q 474 1181 413.5 1150 q 353 1119 301 1100 l 301 1100 q 297 1106 291 1113 q 285 1120 280 1124 l 280 1124 q 333 1141 393.5 1169.5 q 454 1198 509 1234 q 564 1270 600 1306 m 650 1207 l 650 1207 l 672 1195 q 631 1146 567 1100.5 q 503 1055 432 1018.5 q 361 982 295 960 l 295 960 q 291 966 286 973 q 281 980 276 984 l 276 984 q 342 1004 413 1038.5 q 484 1073 547 1117 q 610 1161 650 1207 m 862 1359 l 862 1359 l 884 1338 q 852 1315 812 1291.5 q 772 1268 731 1247 q 690 1226 655 1210 l 655 1210 l 637 1228 q 672 1244 713.5 1267 q 755 1290 794.5 1314.5 q 834 1339 862 1359 m 502 1830 l 502 1830 l 533 1825 q 496 1754 433 1672.5 q 370 1591 281 1523 l 281 1523 q 279 1526 275 1529.5 q 271 1533 267 1536 q 263 1539 259 1541 l 259 1541 q 317 1583 364 1633.5 q 411 1684 446 1735 q 481 1786 502 1830 m 698 1752 l 698 1759 l 704 1759 l 710 1761 l 730 1748 q 710 1707 680.5 1666 q 651 1625 624 1596 l 624 1596 q 621 1601 615.5 1605.5 q 610 1610 605 1613 l 605 1613 q 622 1631 639.5 1655 q 657 1679 672.5 1704.5 q 688 1730 698 1752 l 698 1752 m 727 1263 l 754 1272 q 772 1216 802 1164.5 q 832 1113 872 1073.5 q 912 1034 958 1012 l 958 1012 q 952 1007 946 999.5 q 940 992 935 986 l 935 986 q 865 1024 810.5 1099.5 q 756 1175 727 1263 l 727 1263 m 613 1613 l 613 1608 l 642 1608 l 642 1613 q 642 1587 637 1553 q 632 1519 615 1480.5 q 598 1442 562 1402.5 q 526 1363 465.5 1325 q 405 1287 313 1255 l 313 1255 q 310 1260 304.5 1266.5 q 299 1273 292 1278 l 292 1278 q 382 1308 441 1344 q 500 1380 535 1418 q 570 1456 586.5 1492.5 q 603 1529 608 1560 q 613 1591 613 1613 l 613 1613 m 291 1827 l 291 1827 l 320 1819 q 289 1735 249 1655.5 q 209 1576 162.5 1506.5 q 116 1437 65 1381 l 65 1381 q 63 1384 59 1388.5 q 55 1393 51 1397.5 q 47 1402 43 1405 l 43 1405 q 93 1457 138.5 1525 q 184 1593 223.5 1670 q 263 1747 291 1827 m 180 934 l 180 1574 l 207 1602 l 209 1601 l 209 934 l 180 934"},"一":{"ha":1000,"x_min":50,"x_max":955,"o":"m 50 1374 l 50 1407 l 955 1407 l 955 1374 l 50 1374"},"段":{"ha":1000,"x_min":44,"x_max":949,"o":"m 571 1766 l 571 1795 l 778 1795 l 778 1766 l 571 1766 m 476 1342 l 476 1372 l 830 1372 l 830 1342 l 476 1342 m 145 1547 l 145 1576 l 411 1576 l 411 1547 l 145 1547 m 146 1342 l 146 1372 l 412 1372 l 412 1342 l 146 1342 m 508 1337 l 533 1346 q 567 1253 627 1175.5 q 687 1098 768.5 1042.5 q 850 987 948 960 l 948 960 q 944 957 940 952.5 q 936 948 933 943.5 q 930 939 927 935 l 927 935 q 779 980 670 1085.5 q 561 1191 508 1337 l 508 1337 m 51 1104 l 44 1134 q 91 1141 153 1151 q 215 1161 285.5 1173 q 356 1185 429 1196 l 429 1196 l 430 1168 q 327 1150 226 1133.5 q 125 1117 51 1104 l 51 1104 m 393 1830 l 393 1830 l 423 1809 q 387 1792 340.5 1777 q 294 1762 243.5 1749 q 193 1736 145 1725 l 145 1725 q 144 1730 140 1737 q 136 1744 133 1749 l 133 1749 q 180 1760 229 1773 q 278 1786 321.5 1801 q 365 1816 393 1830 m 554 1676 l 554 1795 l 583 1795 l 583 1676 q 583 1635 573 1589 q 563 1543 535.5 1498.5 q 508 1454 455 1417 l 455 1417 q 453 1421 449 1424.5 q 445 1428 441 1431.5 q 437 1435 433 1437 l 433 1437 q 484 1473 510 1514 q 536 1555 545 1597 q 554 1639 554 1676 l 554 1676 m 824 1365 l 824 1372 l 831 1372 l 837 1374 l 856 1365 q 824 1237 757 1150 q 690 1063 601 1009.5 q 512 956 412 927 l 412 927 q 411 931 408 935.5 q 405 940 401.5 944.5 q 398 949 394 952 l 394 952 q 491 977 578 1028.5 q 665 1080 730 1162.5 q 795 1245 824 1365 l 824 1365 m 133 938 l 133 1750 l 163 1740 l 163 938 l 133 938 m 765 1523 l 765 1795 l 794 1795 l 794 1522 q 794 1503 797.5 1497.5 q 801 1492 813 1492 l 813 1492 q 820 1492 839 1492 q 858 1492 877.5 1492 q 897 1492 904 1492 l 904 1492 q 912 1492 925 1492.5 q 938 1493 946 1494 l 946 1494 q 947 1489 947.5 1481.5 q 948 1474 949 1470 l 949 1470 q 942 1469 930 1468.5 q 918 1468 905 1468 l 905 1468 q 898 1468 877 1468 q 856 1468 836 1468 q 816 1468 811 1468 l 811 1468 q 792 1468 782 1473 q 772 1478 768.5 1490 q 765 1502 765 1523 l 765 1523"},"未":{"ha":1000,"x_min":47,"x_max":956,"o":"m 69 1376 l 69 1406 l 934 1406 l 934 1376 l 69 1376 m 137 1623 l 137 1653 l 870 1653 l 870 1623 l 137 1623 m 483 930 l 483 1829 l 513 1829 l 513 930 l 483 930 m 465 1399 l 465 1399 l 490 1387 q 455 1327 406 1269.5 q 357 1212 300.5 1160.5 q 244 1109 185 1067.5 q 126 1026 69 997 l 69 997 q 66 1001 62 1005.5 q 58 1010 54.5 1014 q 51 1018 47 1021 l 47 1021 q 104 1047 163.5 1087 q 223 1127 279.5 1177.5 q 336 1228 383.5 1284.5 q 431 1341 465 1399 m 506 1388 l 530 1400 q 565 1343 614 1286.5 q 663 1230 720 1179 q 777 1128 837.5 1088 q 898 1048 956 1022 l 956 1022 q 953 1019 949 1015 q 945 1011 941 1006.5 q 937 1002 934 998 l 934 998 q 877 1026 816.5 1068 q 756 1110 698.5 1162 q 641 1214 591.5 1271.5 q 542 1329 506 1388 l 506 1388"},"完":{"ha":1000,"x_min":53,"x_max":948,"o":"m 217 1505 l 217 1534 l 786 1534 l 786 1505 l 217 1505 m 60 1317 l 60 1346 l 938 1346 l 938 1317 l 60 1317 m 353 1338 l 353 1338 l 383 1338 q 377 1248 361 1180.5 q 345 1113 311.5 1064 q 278 1015 219.5 982 q 161 949 71 928 l 71 928 q 70 932 66.5 936 q 63 940 59.5 944 q 56 948 53 950 l 53 950 q 141 970 197.5 1001.5 q 254 1033 286 1079.5 q 318 1126 333 1190 q 348 1254 353 1338 m 597 1009 l 597 1328 l 626 1328 l 626 1009 q 626 990 636.5 983.5 q 647 977 683 977 l 683 977 q 692 977 716.5 977 q 741 977 771 977 q 801 977 827 977 q 853 977 865 977 l 865 977 q 887 977 898 986.5 q 909 996 913 1027 q 917 1058 918 1121 l 918 1121 q 923 1118 928 1115.5 q 933 1113 938.5 1111 q 944 1109 948 1107 l 948 1107 q 946 1043 939 1008 q 932 973 915.5 960 q 899 947 866 947 l 866 947 q 860 947 834 947 q 808 947 775.5 947 q 743 947 717 947 q 691 947 685 947 l 685 947 q 651 947 632 951.5 q 613 956 605 969.5 q 597 983 597 1009 l 597 1009 m 93 1510 l 93 1704 l 905 1704 l 905 1510 l 875 1510 l 875 1674 l 123 1674 l 123 1510 l 93 1510 m 438 1829 l 438 1829 l 466 1838 q 488 1806 510 1766.5 q 532 1727 543 1700 l 543 1700 l 515 1689 q 504 1716 482.5 1756 q 461 1796 438 1829"},"成":{"ha":1000,"x_min":48,"x_max":949,"o":"m 160 1427 l 160 1457 l 426 1457 l 426 1427 l 160 1427 m 413 1450 l 413 1457 l 442 1457 q 442 1457 442 1453.5 q 442 1450 442 1445 q 442 1440 442 1437 l 442 1437 q 439 1318 435.5 1247 q 432 1176 426.5 1141 q 421 1106 411 1094 l 411 1094 q 402 1085 391 1081 q 380 1077 360 1076 l 360 1076 q 341 1075 307.5 1076 q 274 1077 236 1080 l 236 1080 q 235 1086 233 1094 q 231 1102 227 1108 l 227 1108 q 268 1104 304 1103.5 q 340 1103 353 1103 l 353 1103 q 364 1103 372 1104.5 q 380 1106 385 1112 l 385 1112 q 394 1122 399 1156 q 404 1190 407.5 1260.5 q 411 1331 413 1450 l 413 1450 m 675 1793 l 675 1793 l 693 1813 q 728 1796 765.5 1774.5 q 803 1753 835.5 1731.5 q 868 1710 889 1692 l 889 1692 l 872 1670 q 851 1688 818 1710 q 785 1732 748 1754 q 711 1776 675 1793 m 844 1508 l 844 1508 l 873 1500 q 808 1304 695 1165 q 582 1026 424 936 l 424 936 q 422 939 417.5 943.5 q 413 948 409 952.5 q 405 957 401 960 l 401 960 q 561 1044 672 1182 q 783 1320 844 1508 m 165 1612 l 165 1641 l 942 1641 l 942 1612 l 165 1612 m 148 1372 l 148 1641 l 178 1641 l 178 1371 q 178 1321 174 1264 q 170 1207 159.5 1147.5 q 149 1088 128 1032 q 107 976 72 928 l 72 928 q 70 931 65.5 934.5 q 61 938 56.5 941 q 52 944 48 946 l 48 946 q 93 1009 114 1083 q 135 1157 141.5 1232 q 148 1307 148 1372 l 148 1372 m 573 1829 l 573 1829 l 603 1829 q 604 1675 616.5 1542.5 q 629 1410 652 1304 q 675 1198 707.5 1123 q 740 1048 780.5 1008 q 821 968 868 968 l 868 968 q 894 968 905.5 1012 q 917 1056 921 1161 l 921 1161 q 926 1157 934.5 1153 q 943 1149 949 1147 l 949 1147 q 945 1069 937 1023 q 929 977 912.5 957 q 896 937 866 937 l 866 937 q 819 937 779 968 q 739 999 707 1056.5 q 675 1114 650.5 1194.5 q 626 1275 609 1374.5 q 592 1474 583 1589 q 574 1704 573 1829"},"的":{"ha":1000,"x_min":100,"x_max":913,"o":"m 119 1642 l 119 1671 l 420 1671 l 420 1037 l 119 1037 l 119 1067 l 390 1067 l 390 1642 l 119 1642 m 100 952 l 100 1671 l 130 1671 l 130 952 l 100 952 m 114 1353 l 114 1382 l 410 1382 l 410 1353 l 114 1353 m 264 1834 l 264 1834 l 295 1824 q 282 1782 265 1735.5 q 248 1689 233 1657 l 233 1657 l 208 1666 q 218 1689 228.5 1718.5 q 239 1748 248.5 1779 q 258 1810 264 1834 m 573 1640 l 573 1670 l 895 1670 l 895 1640 l 573 1640 m 883 1661 l 883 1670 l 913 1670 q 913 1670 913 1665.5 q 913 1661 913 1655.5 q 913 1650 913 1647 l 913 1647 q 906 1472 899.5 1352 q 893 1232 884.5 1156.5 q 876 1081 865.5 1040.5 q 855 1000 840 983 l 840 983 q 827 968 813 962.5 q 799 957 776 956 l 776 956 q 754 955 715 956.5 q 676 958 635 961 l 635 961 q 634 969 632 977 q 630 985 625 990 l 625 990 q 675 986 715.5 985 q 756 984 772 984 l 772 984 q 787 984 797 986.5 q 807 989 814 999 l 814 999 q 827 1013 837 1053.5 q 847 1094 855 1170 q 863 1246 870 1366.5 q 877 1487 883 1661 l 883 1661 m 611 1839 l 611 1839 l 640 1833 q 623 1758 599.5 1687.5 q 576 1617 547 1555.5 q 518 1494 483 1446 l 483 1446 q 481 1448 476 1451 q 471 1454 466 1457 q 461 1460 457 1462 l 457 1462 q 492 1509 521 1569 q 550 1629 572.5 1698 q 595 1767 611 1839 m 568 1439 l 568 1439 l 591 1453 q 623 1417 656 1374.5 q 689 1332 716.5 1292.5 q 744 1253 761 1223 l 761 1223 l 735 1205 q 719 1236 691.5 1276.5 q 664 1317 631.5 1360 q 599 1403 568 1439"},"代":{"ha":1000,"x_min":32,"x_max":973,"o":"m 312 1454 l 308 1481 l 939 1556 l 944 1528 l 312 1454 m 713 1780 l 713 1780 l 732 1796 q 766 1772 802 1743 q 838 1714 869 1685.5 q 900 1657 920 1635 l 920 1635 l 900 1617 q 880 1639 849 1667.5 q 818 1696 782.5 1726 q 747 1756 713 1780 m 341 1818 l 341 1818 l 369 1810 q 331 1723 281 1642.5 q 231 1562 173 1492.5 q 115 1423 53 1369 l 53 1369 q 51 1372 47 1376.5 q 43 1381 39 1385.5 q 35 1390 32 1392 l 32 1392 q 94 1443 151.5 1510.5 q 209 1578 257.5 1656.5 q 306 1735 341 1818 m 218 931 l 218 1572 l 247 1601 l 247 1600 l 247 931 l 218 931 m 569 1817 l 569 1817 l 598 1817 q 606 1640 626 1486.5 q 646 1333 679.5 1216.5 q 713 1100 763 1033 q 813 966 880 961 l 880 961 q 906 960 921.5 1008.5 q 937 1057 947 1149 l 947 1149 q 951 1147 955.5 1144.5 q 960 1142 965 1140 q 970 1138 973 1137 l 973 1137 q 965 1061 952.5 1014.5 q 940 968 922.5 948 q 905 928 880 929 l 880 929 q 816 932 768 979 q 720 1026 685.5 1108 q 651 1190 628 1300.5 q 605 1411 591 1542.5 q 577 1674 569 1817"},"码":{"ha":1000,"x_min":37,"x_max":930,"o":"m 900 1380 l 900 1387 l 930 1387 q 930 1387 930 1383.5 q 930 1380 930 1375.5 q 930 1371 929 1367 l 929 1367 q 917 1229 904 1145 q 891 1061 876.5 1016.5 q 862 972 844 955 l 844 955 q 833 944 820 939.5 q 807 935 786 935 l 786 935 q 769 935 736.5 935.5 q 704 936 667 939 l 667 939 q 666 946 664 954.5 q 662 963 658 970 l 658 970 q 699 966 733.5 965 q 768 964 781 964 l 781 964 q 795 963 804 965 q 813 967 819 974 l 819 974 q 836 989 849.5 1032.5 q 863 1076 875.5 1160 q 888 1244 900 1380 l 900 1380 m 448 1734 l 448 1764 l 823 1764 l 823 1734 l 448 1734 m 496 1648 l 496 1648 l 524 1645 q 521 1600 515.5 1547 q 510 1494 504.5 1444.5 q 499 1395 493 1359 l 493 1359 l 465 1359 q 471 1396 476.5 1446.5 q 482 1497 487.5 1550.5 q 493 1604 496 1648 m 474 1358 l 474 1387 l 911 1387 l 911 1358 l 474 1358 m 401 1163 l 401 1192 l 808 1192 l 808 1163 l 401 1163 m 806 1758 l 806 1764 l 809 1764 l 815 1767 l 835 1763 q 832 1725 827 1675 q 822 1625 815.5 1570.5 q 809 1516 802.5 1462.5 q 796 1409 789 1364 l 789 1364 l 761 1366 q 767 1411 774 1465 q 781 1519 787 1574 q 793 1629 798 1677 q 803 1725 806 1758 l 806 1758 m 58 1739 l 58 1768 l 385 1768 l 385 1739 l 58 1739 m 142 1434 l 142 1464 l 349 1464 l 349 1060 l 142 1060 l 142 1089 l 320 1089 l 320 1434 l 142 1434 m 199 1757 l 199 1757 l 230 1752 q 213 1658 189.5 1571.5 q 166 1485 135 1411 q 104 1337 63 1279 l 63 1279 q 61 1282 56 1285.5 q 51 1289 46 1292.5 q 41 1296 37 1298 l 37 1298 q 99 1381 138 1501 q 177 1621 199 1757 m 128 974 l 128 1464 l 157 1464 l 157 974 l 128 974"},"等":{"ha":1000,"x_min":48,"x_max":953,"o":"m 484 1356 l 484 1612 l 514 1612 l 514 1356 l 484 1356 m 149 1494 l 149 1523 l 856 1523 l 856 1494 l 149 1494 m 52 1342 l 52 1372 l 953 1372 l 953 1342 l 52 1342 m 79 1195 l 79 1225 l 930 1225 l 930 1195 l 79 1195 m 695 982 l 695 1354 l 724 1354 l 724 983 q 724 961 717.5 951 q 711 941 691 936 l 691 936 q 672 932 630.5 931.5 q 589 931 521 931 l 521 931 q 520 938 516 946 q 512 954 508 961 l 508 961 q 551 960 584 959.5 q 617 959 639.5 959.5 q 662 960 672 961 l 672 961 q 686 962 690.5 966.5 q 695 971 695 982 l 695 982 m 156 1705 l 156 1734 l 487 1734 l 487 1705 l 156 1705 m 531 1705 l 531 1734 l 938 1734 l 938 1705 l 531 1705 m 193 1832 l 193 1832 l 222 1825 q 196 1752 157 1685.5 q 118 1619 74 1572 l 74 1572 q 72 1574 67 1577 q 62 1580 57 1583.5 q 52 1587 48 1589 l 48 1589 q 94 1636 131.5 1699.5 q 169 1763 193 1832 m 574 1832 l 574 1832 l 603 1826 q 579 1756 539 1694.5 q 499 1633 452 1590 l 452 1590 q 450 1593 445 1596.5 q 440 1600 435.5 1604 q 431 1608 427 1610 l 427 1610 q 474 1651 513 1708.5 q 552 1766 574 1832 m 238 1714 l 238 1714 l 268 1719 q 282 1688 295 1651 q 308 1614 312 1589 l 312 1589 l 281 1582 q 277 1608 265 1645 q 253 1682 238 1714 m 634 1715 l 634 1715 l 660 1725 q 687 1694 712.5 1654.5 q 738 1615 749 1586 l 749 1586 l 722 1573 q 712 1603 687 1642.5 q 662 1682 634 1715 m 233 1149 l 233 1149 l 256 1167 q 292 1147 328.5 1120 q 365 1093 395.5 1065 q 426 1037 444 1012 l 444 1012 l 421 991 q 403 1016 372.5 1044.5 q 342 1073 306 1100 q 270 1127 233 1149"},"待":{"ha":1000,"x_min":39,"x_max":953,"o":"m 389 1656 l 389 1685 l 896 1685 l 896 1656 l 389 1656 m 341 1287 l 341 1317 l 947 1317 l 947 1287 l 341 1287 m 327 1461 l 327 1490 l 953 1490 l 953 1461 l 327 1461 m 624 1473 l 624 1825 l 653 1825 l 653 1473 l 624 1473 m 768 984 l 768 1472 l 796 1472 l 796 985 q 796 963 789.5 953 q 783 943 766 938 l 766 938 q 748 934 712 933.5 q 676 933 616 933 l 616 933 q 615 939 611 948 q 607 957 603 964 l 603 964 q 639 963 668 963 q 697 963 717.5 963.5 q 738 964 746 964 l 746 964 q 759 965 763.5 969.5 q 768 974 768 984 l 768 984 m 438 1222 l 438 1222 l 462 1236 q 487 1210 511 1178.5 q 535 1147 555.5 1116.5 q 576 1086 587 1062 l 587 1062 l 564 1044 q 552 1069 531.5 1100 q 511 1131 487 1163 q 463 1195 438 1222 m 284 1606 l 284 1606 l 313 1597 q 282 1539 241 1484.5 q 200 1430 155 1382 q 110 1334 64 1296 l 64 1296 q 62 1299 57.5 1303.5 q 53 1308 48 1312 q 43 1316 39 1319 l 39 1319 q 86 1354 131.5 1400 q 177 1446 216.5 1498.5 q 256 1551 284 1606 m 275 1827 l 275 1827 l 304 1817 q 278 1777 241 1735.5 q 204 1694 162 1656.5 q 120 1619 78 1590 l 78 1590 q 76 1594 72.5 1598 q 69 1602 65 1606 q 61 1610 58 1612 l 58 1612 q 99 1640 140.5 1675.5 q 182 1711 217.5 1750.5 q 253 1790 275 1827 m 204 931 l 204 1476 l 233 1506 l 233 1505 l 233 931 l 204 931"},"被":{"ha":1000,"x_min":41,"x_max":955,"o":"m 205 932 l 205 1398 l 234 1432 l 234 932 l 205 932 m 368 1458 l 368 1458 l 392 1439 q 369 1411 340 1382 q 311 1353 286 1332 l 286 1332 l 267 1347 q 290 1369 320 1401.5 q 350 1434 368 1458 m 41 1616 l 41 1645 l 337 1645 l 337 1616 l 41 1616 m 209 1406 l 230 1422 q 239 1411 257.5 1384.5 q 276 1358 297.5 1327 q 319 1296 337.5 1269 q 356 1242 364 1230 l 364 1230 l 343 1208 q 334 1223 316 1251 q 298 1279 277 1310 q 256 1341 237.5 1367.5 q 219 1394 209 1406 l 209 1406 m 322 1636 l 322 1645 l 329 1645 l 334 1647 l 352 1636 q 322 1554 275 1473.5 q 228 1393 173.5 1323.5 q 119 1254 66 1204 l 66 1204 q 63 1208 59.5 1211.5 q 56 1215 52 1218.5 q 48 1222 44 1224 l 44 1224 q 96 1271 150 1338.5 q 204 1406 249.5 1483 q 295 1560 322 1636 l 322 1636 m 156 1814 l 156 1814 l 180 1823 q 202 1790 224 1750.5 q 246 1711 258 1683 l 258 1683 l 232 1671 q 222 1700 199.5 1740 q 177 1780 156 1814 m 451 1641 l 451 1670 l 919 1670 l 919 1641 l 451 1641 m 906 1664 l 906 1670 l 913 1670 l 918 1672 l 939 1664 q 923 1616 906 1564 q 889 1512 874 1477 l 874 1477 l 847 1485 q 862 1519 878 1569 q 894 1619 906 1664 l 906 1664 m 653 1407 l 653 1830 l 682 1830 l 682 1407 l 653 1407 m 433 1415 l 433 1670 l 463 1670 l 463 1414 q 463 1361 458.5 1300 q 454 1239 442 1176 q 430 1113 406.5 1052.5 q 383 992 344 939 l 344 939 q 342 943 337.5 946.5 q 333 950 329 953.5 q 325 957 321 959 l 321 959 q 359 1009 381.5 1067 q 404 1125 415 1185.5 q 426 1246 429.5 1304.5 q 433 1363 433 1415 l 433 1415 m 454 1402 l 454 1431 l 869 1431 l 869 1402 l 454 1402 m 855 1424 l 855 1431 l 861 1431 l 868 1433 l 886 1425 q 851 1293 781.5 1195 q 712 1097 623 1031.5 q 534 966 439 930 l 439 930 q 436 935 430.5 943 q 425 951 420 955 l 420 955 q 512 988 599.5 1051 q 687 1114 754.5 1207.5 q 822 1301 855 1424 l 855 1424 m 493 1415 l 520 1423 q 555 1311 616 1218 q 677 1125 762.5 1059 q 848 993 955 959 l 955 959 q 952 956 948 951.5 q 944 947 940.5 942.5 q 937 938 934 934 l 934 934 q 773 989 660.5 1114.5 q 548 1240 493 1415 l 493 1415"},"编":{"ha":1000,"x_min":52,"x_max":917,"o":"m 69 1195 l 69 1195 q 68 1199 66 1205.5 q 64 1212 62 1218.5 q 60 1225 58 1229 l 58 1229 q 71 1231 87.5 1250 q 104 1269 126 1297 l 126 1297 q 137 1311 159.5 1343 q 182 1375 210.5 1418.5 q 239 1462 268.5 1512.5 q 298 1563 322 1614 l 322 1614 l 352 1600 q 314 1529 272 1460 q 230 1391 186 1329 q 142 1267 97 1217 l 97 1217 l 97 1216 q 97 1216 93 1214 q 89 1212 83 1209 q 77 1206 73 1202.5 q 69 1199 69 1195 m 69 1195 l 69 1195 l 69 1223 l 91 1239 l 333 1289 q 333 1282 334 1274.5 q 335 1267 336 1262 l 336 1262 q 251 1243 200 1231 q 149 1219 123 1212.5 q 97 1206 86 1202 q 75 1198 69 1195 m 63 1432 l 63 1432 q 62 1436 60 1442.5 q 58 1449 56 1455.5 q 54 1462 52 1466 l 52 1466 q 63 1468 76 1486 q 89 1504 105 1531 l 105 1531 q 113 1544 129.5 1574 q 146 1604 167 1645 q 188 1686 208 1733 q 228 1780 244 1827 l 244 1827 l 276 1815 q 250 1749 220 1684 q 190 1619 157.5 1560.5 q 125 1502 91 1455 l 91 1455 l 91 1454 q 91 1454 87 1452 q 83 1450 77 1446.5 q 71 1443 67 1439.5 q 63 1436 63 1432 m 63 1432 l 63 1432 l 63 1460 l 85 1473 l 268 1496 q 267 1490 267.5 1482 q 268 1474 268 1469 l 268 1469 q 205 1460 166.5 1454 q 128 1448 107 1444 q 86 1440 77 1437.5 q 68 1435 63 1432 m 62 1009 l 53 1038 q 108 1056 183.5 1083.5 q 259 1111 341 1139 l 341 1139 l 345 1112 q 269 1084 194.5 1057 q 120 1030 62 1009 l 62 1009 m 621 965 l 621 1379 l 650 1379 l 650 965 l 621 965 m 752 966 l 752 1380 l 781 1380 l 781 966 l 752 966 m 887 973 l 887 1402 l 917 1402 l 917 973 q 917 960 913.5 952.5 q 910 945 899 941 l 899 941 q 889 937 871.5 936 q 854 935 825 935 l 825 935 q 824 941 821 949 q 818 957 814 963 l 814 963 q 837 962 853.5 962 q 870 962 876 962 l 876 962 q 887 963 887 973 l 887 973 m 426 1500 l 426 1716 l 455 1716 l 455 1500 q 455 1441 451.5 1371.5 q 448 1302 438 1228.5 q 428 1155 408 1083.5 q 388 1012 356 949 l 356 949 q 354 952 349 955.5 q 344 959 339.5 962.5 q 335 966 331 967 l 331 967 q 363 1028 382 1097 q 401 1166 410.5 1237 q 420 1308 423 1375.5 q 426 1443 426 1500 l 426 1500 m 441 1686 l 441 1716 l 913 1716 l 913 1513 l 441 1513 l 441 1542 l 883 1542 l 883 1686 l 441 1686 m 473 937 l 473 1401 l 906 1401 l 906 1372 l 502 1372 l 502 937 l 473 937 m 493 1155 l 493 1184 l 904 1184 l 904 1155 l 493 1155 m 620 1826 l 620 1826 l 644 1835 q 664 1807 681.5 1772 q 699 1737 707 1711 l 707 1711 l 680 1700 q 673 1726 656 1761.5 q 639 1797 620 1826"},"译":{"ha":1000,"x_min":54,"x_max":962,"o":"m 126 1782 l 126 1782 l 148 1799 q 171 1775 195 1746 q 219 1717 239 1690 q 259 1663 271 1643 l 271 1643 l 248 1621 q 236 1643 215.5 1671 q 195 1699 172 1728.5 q 149 1758 126 1782 m 197 964 l 197 964 l 196 994 l 213 1018 l 354 1107 q 356 1101 359.5 1094 q 363 1087 365 1083 l 365 1083 q 313 1049 281.5 1027.5 q 250 1006 233 994 q 216 982 208.5 975.5 q 201 969 197 964 m 54 1481 l 54 1511 l 240 1511 l 240 1481 l 54 1481 m 391 1734 l 391 1764 l 872 1764 l 872 1734 l 391 1734 m 863 1757 l 863 1764 l 869 1764 l 876 1766 l 895 1754 q 858 1681 799 1621.5 q 740 1562 668 1515 q 596 1468 518 1434 q 440 1400 365 1379 l 365 1379 q 363 1383 360 1388 q 357 1393 353.5 1397.5 q 350 1402 347 1405 l 347 1405 q 421 1424 497 1456 q 573 1488 644 1532.5 q 715 1577 772 1633.5 q 829 1690 863 1757 l 863 1757 m 455 1744 l 480 1755 q 523 1667 594.5 1597 q 666 1527 760 1478.5 q 854 1430 962 1405 l 962 1405 q 959 1402 955 1397.5 q 951 1393 948 1388.5 q 945 1384 942 1380 l 942 1380 q 835 1407 740.5 1458 q 646 1509 572.5 1581 q 499 1653 455 1744 l 455 1744 m 422 1280 l 422 1310 l 881 1310 l 881 1280 l 422 1280 m 369 1113 l 369 1142 l 943 1142 l 943 1113 l 369 1113 m 641 927 l 641 1408 l 671 1408 l 671 927 l 641 927 m 197 964 l 197 964 q 195 968 191 972.5 q 187 977 183 981.5 q 179 986 175 988 l 175 988 q 186 996 204 1018 q 222 1040 222 1074 l 222 1074 l 222 1511 l 251 1511 l 251 1028 q 251 1028 245.5 1023 q 240 1018 232 1010 q 224 1002 216 993.5 q 208 985 202.5 977 q 197 969 197 964"},"梦":{"ha":1000,"x_min":50,"x_max":956,"o":"m 318 1213 l 318 1213 l 339 1231 q 379 1214 421 1190.5 q 463 1167 500.5 1143.5 q 538 1120 562 1099 l 562 1099 l 539 1078 q 515 1098 478 1122.5 q 441 1147 399.5 1171 q 358 1195 318 1213 m 377 1326 l 406 1355 l 786 1355 l 786 1326 l 377 1326 m 61 1681 l 61 1711 l 463 1711 l 463 1681 l 61 1681 m 256 1402 l 256 1830 l 285 1830 l 285 1402 l 256 1402 m 500 1681 l 500 1711 l 942 1711 l 942 1681 l 500 1681 m 683 1402 l 683 1830 l 713 1830 l 713 1402 l 683 1402 m 695 1690 l 720 1701 q 745 1654 783.5 1607 q 822 1560 867 1522 q 912 1484 956 1461 l 956 1461 q 950 1457 944 1450 q 938 1443 933 1437 l 933 1437 q 891 1463 845.5 1503.5 q 800 1544 760.5 1592.5 q 721 1641 695 1690 l 695 1690 m 258 1675 l 277 1691 q 289 1682 314 1660 q 339 1638 367.5 1612.5 q 396 1587 420.5 1565 q 445 1543 455 1532 l 455 1532 l 433 1510 q 422 1523 399 1546 q 376 1569 348.5 1594.5 q 321 1620 296.5 1642 q 272 1664 258 1675 l 258 1675 m 248 1696 l 248 1696 l 272 1686 q 251 1639 217.5 1593 q 184 1547 146 1508.5 q 108 1470 71 1446 l 71 1446 q 67 1452 61 1458.5 q 55 1465 50 1469 l 50 1469 q 88 1490 125.5 1526.5 q 163 1563 195.5 1607.5 q 228 1652 248 1696 m 673 1696 l 673 1696 l 697 1686 q 675 1639 640.5 1593 q 606 1547 566.5 1508.5 q 527 1470 488 1446 l 488 1446 q 484 1452 478 1458.5 q 472 1465 467 1469 l 467 1469 q 506 1490 545 1526.5 q 584 1563 618 1607 q 652 1651 673 1696 m 466 1427 l 466 1427 l 495 1416 q 453 1369 393 1323.5 q 333 1278 264.5 1240 q 196 1202 129 1174 l 129 1174 q 127 1177 123.5 1181 q 120 1185 116.5 1189 q 113 1193 110 1196 l 110 1196 q 175 1223 243 1260 q 311 1297 370 1340 q 429 1383 466 1427 m 775 1348 l 775 1355 l 783 1355 l 791 1357 l 810 1343 q 764 1248 690 1177.5 q 616 1107 522 1057 q 428 1007 321.5 973.5 q 215 940 104 919 l 104 919 q 103 923 100 928 q 97 933 93.5 938 q 90 943 86 946 l 86 946 q 196 964 301.5 996 q 407 1028 499 1076.5 q 591 1125 662 1192.5 q 733 1260 775 1348 l 775 1348"},"风":{"ha":1000,"x_min":52,"x_max":958,"o":"m 186 1739 l 186 1768 l 818 1768 l 818 1739 l 186 1739 m 173 1456 l 173 1768 l 202 1768 l 202 1456 q 202 1397 197.5 1329 q 193 1261 180.5 1191 q 168 1121 143 1054.5 q 118 988 76 931 l 76 931 q 74 934 69.5 937.5 q 65 941 60.5 944.5 q 56 948 52 950 l 52 950 q 93 1006 117 1070 q 141 1134 153 1201 q 165 1268 169 1333 q 173 1398 173 1456 l 173 1456 m 796 1768 l 796 1768 l 825 1768 q 825 1636 826 1516 q 827 1396 831 1296.5 q 835 1197 843.5 1123.5 q 852 1050 867 1009.5 q 882 969 906 969 l 906 969 q 915 969 920 989 q 925 1009 927.5 1044 q 930 1079 931 1122 l 931 1122 q 936 1118 944.5 1114.5 q 953 1111 958 1109 l 958 1109 q 956 1042 951 1005 q 946 968 935 954 q 924 940 903 940 l 903 940 q 863 940 841.5 994 q 820 1048 811 1153 q 802 1258 800 1412.5 q 798 1567 796 1768 m 284 1592 l 284 1592 l 311 1607 q 370 1543 431.5 1470 q 493 1397 551.5 1323.5 q 610 1250 659 1183.5 q 708 1117 742 1065 l 742 1065 l 713 1046 q 680 1097 631 1164.5 q 582 1232 524 1306.5 q 466 1381 404.5 1454.5 q 343 1528 284 1592 m 635 1655 l 635 1655 l 662 1648 q 632 1556 589.5 1466 q 547 1376 495.5 1295 q 444 1214 385.5 1149 q 327 1084 264 1041 l 264 1041 q 261 1045 256 1049.5 q 251 1054 246.5 1058 q 242 1062 237 1065 l 237 1065 q 300 1104 359 1167.5 q 418 1231 470 1310.5 q 522 1390 564 1478 q 606 1566 635 1655"},"过":{"ha":1000,"x_min":54,"x_max":952,"o":"m 101 1792 l 101 1792 l 124 1807 q 153 1782 182 1752.5 q 211 1723 236.5 1694 q 262 1665 278 1643 l 278 1643 l 254 1625 q 239 1648 213.5 1677 q 188 1706 159 1736.5 q 130 1767 101 1792 m 57 1451 l 246 1451 l 246 1108 l 217 1108 l 217 1422 l 57 1422 l 57 1451 m 232 1123 l 232 1123 q 249 1123 262.5 1113.5 q 276 1104 293.5 1088.5 q 311 1073 337 1054 l 337 1054 q 384 1022 444.5 1012.5 q 505 1003 590 1003 l 590 1003 q 639 1003 688.5 1004 q 738 1005 785 1007 q 832 1009 874.5 1011.5 q 917 1014 952 1016 l 952 1016 q 950 1013 948 1007.5 q 946 1002 945 996.5 q 944 991 943 986 l 943 986 q 916 985 871 983.5 q 826 982 773.5 981 q 721 980 672.5 979 q 624 978 591 978 l 591 978 q 500 978 435.5 988.5 q 371 999 322 1035 l 322 1035 q 294 1056 271.5 1077.5 q 249 1099 232 1099 l 232 1099 q 213 1099 189 1083 q 165 1067 136 1038 q 107 1009 74 970 l 74 970 l 54 989 q 106 1046 150.5 1084.5 q 195 1123 232 1123 m 330 1613 l 330 1642 l 917 1642 l 917 1613 l 330 1613 m 732 1148 l 732 1830 l 763 1830 l 763 1149 q 763 1124 754 1113.5 q 745 1103 725 1098 l 725 1098 q 706 1094 664 1093 q 622 1092 551 1092 l 551 1092 q 550 1099 546 1108 q 542 1117 538 1124 l 538 1124 q 579 1123 613.5 1122.5 q 648 1122 672.5 1122.5 q 697 1123 706 1123 l 706 1123 q 720 1125 726 1130 q 732 1135 732 1148 l 732 1148 m 399 1486 l 399 1486 l 423 1497 q 450 1466 477.5 1429 q 505 1392 528.5 1358 q 552 1324 566 1298 l 566 1298 l 542 1284 q 528 1310 504.5 1345.5 q 481 1381 453.5 1418 q 426 1455 399 1486"},"草":{"ha":1000,"x_min":60,"x_max":943,"o":"m 60 1114 l 60 1143 l 943 1143 l 943 1114 l 60 1114 m 482 933 l 482 1285 l 512 1285 l 512 933 l 482 933 m 782 1423 l 221 1423 l 221 1306 l 782 1306 l 782 1423 m 782 1567 l 221 1567 l 221 1452 l 782 1452 l 782 1567 m 191 1277 l 191 1596 l 812 1596 l 812 1277 l 191 1277 m 316 1619 l 316 1830 l 345 1830 l 345 1619 l 316 1619 m 654 1619 l 654 1830 l 683 1830 l 683 1619 l 654 1619 m 67 1710 l 67 1739 l 936 1739 l 936 1710 l 67 1710"},"原":{"ha":1000,"x_min":48,"x_max":935,"o":"m 167 1734 l 167 1764 l 935 1764 l 935 1734 l 167 1734 m 151 1488 l 151 1764 l 181 1764 l 181 1488 q 181 1429 177.5 1360 q 174 1291 162.5 1219 q 151 1147 129.5 1077.5 q 108 1008 72 948 l 72 948 q 70 951 65.5 954.5 q 61 958 56.5 961.5 q 52 965 48 966 l 48 966 q 83 1025 103.5 1091.5 q 124 1158 134.5 1227.5 q 145 1297 148 1363.5 q 151 1430 151 1488 l 151 1488 m 816 1418 l 325 1418 l 325 1294 l 816 1294 l 816 1418 m 816 1569 l 325 1569 l 325 1447 l 816 1447 l 816 1569 m 295 1265 l 295 1598 l 845 1598 l 845 1265 l 295 1265 m 553 977 l 553 1292 l 582 1292 l 582 978 q 582 959 576 950 q 570 941 554 936 l 554 936 q 537 932 500.5 932 q 464 932 401 932 l 401 932 q 400 937 396 944.5 q 392 952 388 959 l 388 959 q 444 958 482 957.5 q 520 957 532 958 l 532 958 q 545 959 549 963 q 553 967 553 977 l 553 977 m 555 1713 l 555 1713 l 585 1704 q 572 1673 557.5 1638.5 q 543 1604 529 1578 l 529 1578 l 504 1585 q 518 1612 532.5 1648.5 q 547 1685 555 1713 m 704 1177 l 704 1177 l 727 1190 q 761 1159 797.5 1122.5 q 834 1086 866.5 1051 q 899 1016 920 991 l 920 991 l 896 973 q 875 999 842.5 1034.5 q 810 1070 773.5 1107.5 q 737 1145 704 1177 m 384 1195 l 384 1195 l 413 1185 q 386 1150 354 1112.5 q 322 1075 290 1040.5 q 258 1006 229 979 l 229 979 q 226 981 221 984.5 q 216 988 211 991.5 q 206 995 202 997 l 202 997 q 249 1038 298 1091 q 347 1144 384 1195"},"蒲":{"ha":1000,"x_min":48,"x_max":943,"o":"m 60 1719 l 60 1748 l 943 1748 l 943 1719 l 60 1719 m 315 1514 l 315 1543 l 942 1543 l 942 1514 l 315 1514 m 372 1249 l 372 1278 l 879 1278 l 879 1249 l 372 1249 m 372 1111 l 372 1140 l 879 1140 l 879 1111 l 372 1111 m 314 1631 l 314 1830 l 343 1830 l 343 1631 l 314 1631 m 652 1631 l 652 1830 l 681 1830 l 681 1631 l 652 1631 m 601 935 l 601 1641 l 630 1641 l 630 935 l 601 935 m 97 1608 l 97 1608 l 114 1630 q 145 1619 177.5 1603 q 210 1587 238 1569.5 q 266 1552 284 1536 l 284 1536 l 268 1510 q 250 1526 221.5 1544 q 193 1562 160.5 1579 q 128 1596 97 1608 m 48 1412 l 48 1412 l 65 1434 q 97 1424 130 1409 q 163 1394 192 1377.5 q 221 1361 240 1345 l 240 1345 l 225 1319 q 205 1334 175.5 1351 q 146 1368 113 1384 q 80 1400 48 1412 m 102 933 l 77 953 q 101 988 129.5 1035.5 q 158 1083 187.5 1136 q 217 1189 242 1238 l 242 1238 l 264 1220 q 241 1174 213 1122.5 q 185 1071 156.5 1022 q 128 973 102 933 l 102 933 m 734 1645 l 734 1645 l 751 1666 q 787 1652 826.5 1629.5 q 866 1607 888 1589 l 888 1589 l 871 1565 q 849 1584 809.5 1607 q 770 1630 734 1645 m 357 930 l 357 1414 l 879 1414 l 879 1384 l 386 1384 l 386 930 l 357 930 m 865 973 l 865 1414 l 894 1414 l 894 973 q 894 957 889 948 q 884 939 870 935 l 870 935 q 857 931 829.5 930 q 802 929 756 929 l 756 929 q 755 934 751.5 942 q 748 950 744 957 l 744 957 q 783 956 811 956 q 839 956 849 957 l 849 957 q 858 958 861.5 961 q 865 964 865 973 l 865 973"},"公":{"ha":1000,"x_min":64,"x_max":956,"o":"m 627 1278 l 627 1278 l 653 1291 q 700 1239 748.5 1178.5 q 797 1118 839 1061 q 881 1004 906 960 l 906 960 l 879 944 q 853 989 811.5 1047.5 q 770 1106 722 1166.5 q 674 1227 627 1278 m 351 1795 l 351 1795 l 379 1787 q 345 1705 299.5 1630 q 254 1555 201 1491 q 148 1427 90 1377 l 90 1377 q 87 1380 82.5 1384 q 78 1388 73 1392 q 68 1396 64 1398 l 64 1398 q 123 1445 176.5 1508 q 230 1571 274.5 1644 q 319 1717 351 1795 m 611 1791 l 639 1803 q 666 1746 703.5 1687.5 q 741 1629 784 1575 q 827 1521 871.5 1476 q 916 1431 956 1401 l 956 1401 q 952 1398 947.5 1393 q 943 1388 938.5 1384 q 934 1380 930 1376 l 930 1376 q 890 1409 846 1456 q 802 1503 759 1559 q 716 1615 678 1674.5 q 640 1734 611 1791 l 611 1791 m 172 1011 l 172 1011 q 171 1015 169 1021 q 167 1027 165 1033 q 163 1039 160 1043 l 160 1043 q 175 1046 197.5 1070.5 q 220 1095 246 1131 l 246 1131 q 260 1148 288 1187.5 q 316 1227 351.5 1280.5 q 387 1334 424 1395.5 q 461 1457 493 1519 l 493 1519 l 522 1505 q 474 1419 422.5 1333 q 371 1247 316.5 1170 q 262 1093 205 1032 l 205 1032 l 205 1031 q 205 1031 200 1029.5 q 195 1028 188.5 1025.5 q 182 1023 177 1019.5 q 172 1016 172 1011 m 172 1011 l 172 1011 l 172 1035 l 203 1051 l 811 1082 q 812 1076 814 1067.5 q 816 1059 817 1054 l 817 1054 q 673 1046 570.5 1040.5 q 468 1035 399 1031 q 330 1027 287.5 1024 q 245 1021 222 1019 q 199 1017 188.5 1015 q 178 1013 172 1011"},"英":{"ha":1000,"x_min":49,"x_max":960,"o":"m 65 1232 l 65 1262 l 939 1262 l 939 1232 l 65 1232 m 175 1253 l 175 1501 l 831 1501 l 831 1253 l 802 1253 l 802 1472 l 204 1472 l 204 1253 l 175 1253 m 480 1372 l 480 1631 l 510 1631 l 510 1372 q 510 1323 503.5 1274 q 497 1225 474 1176.5 q 451 1128 403 1083.5 q 355 1039 273 999 q 191 959 66 927 l 66 927 q 64 931 61 935.5 q 58 940 55 944.5 q 52 949 49 952 l 49 952 q 172 983 252 1021 q 332 1059 378.5 1101.5 q 425 1144 446.5 1189.5 q 468 1235 474 1281 q 480 1327 480 1372 l 480 1372 m 507 1246 l 536 1255 q 583 1128 691.5 1054 q 800 980 960 954 l 960 954 q 956 951 952 946 q 948 941 945 936 q 942 931 939 927 l 939 927 q 832 948 746.5 988.5 q 661 1029 600.5 1093 q 540 1157 507 1246 l 507 1246 m 79 1694 l 79 1723 l 917 1723 l 917 1694 l 79 1694 m 307 1574 l 307 1830 l 336 1830 l 336 1574 l 307 1574 m 659 1574 l 659 1830 l 688 1830 l 688 1574 l 659 1574"},"解":{"ha":1000,"x_min":44,"x_max":953,"o":"m 135 1551 l 135 1580 l 436 1580 l 436 1551 l 135 1551 m 136 1366 l 136 1395 l 437 1395 l 437 1366 l 136 1366 m 134 1174 l 134 1203 l 435 1203 l 435 1174 l 134 1174 m 583 1329 l 583 1359 l 923 1359 l 923 1329 l 583 1329 m 190 1716 l 190 1745 l 385 1745 l 385 1716 l 190 1716 m 516 1751 l 516 1780 l 905 1780 l 905 1751 l 516 1751 m 507 1146 l 507 1176 l 953 1176 l 953 1146 l 507 1146 m 723 932 l 723 1470 l 753 1470 l 753 932 l 723 932 m 274 973 l 274 1569 l 303 1569 l 303 973 l 274 973 m 891 1774 l 891 1780 l 920 1780 q 920 1780 920 1773.5 q 920 1767 919 1762 l 919 1762 q 915 1676 909.5 1624 q 904 1572 897 1545.5 q 890 1519 879 1508 l 879 1508 q 871 1499 860.5 1495 q 850 1491 831 1491 l 831 1491 q 817 1490 787 1491 q 757 1492 724 1494 l 724 1494 q 723 1501 721.5 1509 q 720 1517 716 1523 l 716 1523 q 752 1520 783.5 1519.5 q 815 1519 825 1519 l 825 1519 q 837 1518 844.5 1519.5 q 852 1521 856 1526 l 856 1526 q 864 1535 870 1561 q 876 1587 881 1638.5 q 886 1690 891 1774 l 891 1774 m 609 1463 l 609 1463 l 639 1457 q 623 1387 595.5 1323 q 568 1259 534 1213 l 534 1213 q 531 1215 526 1218 q 521 1221 516 1224 q 511 1227 506 1228 l 506 1228 q 542 1273 567.5 1334.5 q 593 1396 609 1463 m 210 1831 l 210 1831 l 239 1825 q 221 1759 195 1697 q 169 1635 138 1581 q 107 1527 71 1485 l 71 1485 q 69 1488 64 1491 q 59 1494 53.5 1497.5 q 48 1501 44 1503 l 44 1503 q 100 1563 142.5 1649.5 q 185 1736 210 1831 m 120 1313 l 120 1580 l 149 1580 l 149 1313 q 149 1270 146 1219.5 q 143 1169 135 1117.5 q 127 1066 111 1017.5 q 95 969 69 928 l 69 928 q 67 931 62 933.5 q 57 936 52.5 939 q 48 942 44 943 l 44 943 q 78 997 94 1061.5 q 110 1126 115 1191.5 q 120 1257 120 1313 l 120 1313 m 427 978 l 427 1580 l 455 1580 l 455 978 q 455 962 450 953.5 q 445 945 432 941 l 432 941 q 420 937 395.5 936 q 371 935 329 935 l 329 935 q 328 941 325 949 q 322 957 318 963 l 318 963 q 353 962 378 962 q 403 962 411 963 l 411 963 q 427 963 427 978 l 427 978 m 681 1772 l 681 1772 l 712 1772 q 702 1708 680.5 1649 q 659 1590 620.5 1543 q 582 1496 521 1466 l 521 1466 q 517 1471 510.5 1476.5 q 504 1482 499 1486 l 499 1486 q 559 1514 596 1559 q 633 1604 653 1659 q 673 1714 681 1772 m 375 1738 l 375 1745 l 381 1745 l 387 1747 l 408 1733 q 397 1702 382.5 1670.5 q 368 1639 352.5 1610 q 337 1581 322 1559 l 322 1559 q 318 1563 310.5 1567 q 303 1571 297 1572 l 297 1572 q 312 1594 326.5 1622.5 q 341 1651 354 1681.5 q 367 1712 375 1738 l 375 1738"},"体":{"ha":1000,"x_min":47,"x_max":959,"o":"m 280 1827 l 280 1827 l 308 1820 q 280 1736 242.5 1656.5 q 205 1577 161.5 1507 q 118 1437 70 1381 l 70 1381 q 68 1384 64 1388.5 q 60 1393 55.5 1397.5 q 51 1402 47 1405 l 47 1405 q 94 1457 137.5 1525 q 181 1593 217 1670 q 253 1747 280 1827 m 180 932 l 180 1588 l 207 1616 l 209 1615 l 209 932 l 180 932 m 595 934 l 595 1829 l 624 1829 l 624 934 l 595 934 m 284 1575 l 284 1605 l 947 1605 l 947 1575 l 284 1575 m 397 1133 l 397 1163 l 813 1163 l 813 1133 l 397 1133 m 626 1586 l 654 1595 q 685 1501 732.5 1411 q 780 1321 838.5 1247.5 q 897 1174 959 1131 l 959 1131 q 953 1127 946 1120 q 939 1113 934 1107 l 934 1107 q 872 1154 813.5 1229.5 q 755 1305 706.5 1397 q 658 1489 626 1586 l 626 1586 m 569 1594 l 569 1594 l 594 1585 q 561 1488 510.5 1396 q 460 1304 401 1228.5 q 342 1153 281 1104 l 281 1104 q 279 1108 275.5 1112.5 q 272 1117 267.5 1121 q 263 1125 259 1127 l 259 1127 q 320 1171 378.5 1245 q 437 1319 487 1409.5 q 537 1500 569 1594"},"那":{"ha":1000,"x_min":60,"x_max":928,"o":"m 61 1751 l 61 1780 l 476 1780 l 476 1751 l 61 1751 m 77 1507 l 77 1536 l 483 1536 l 483 1507 l 77 1507 m 71 1265 l 71 1294 l 481 1294 l 481 1265 l 71 1265 m 466 1770 l 466 1780 l 495 1780 q 495 1780 495 1775.5 q 495 1771 495 1765 q 495 1759 495 1756 l 495 1756 q 494 1583 493 1457 q 492 1331 490.5 1243.5 q 489 1156 485.5 1100 q 482 1044 476.5 1013.5 q 471 983 462 970 l 462 970 q 451 954 437.5 947.5 q 424 941 404 940 l 404 940 q 384 939 351.5 940.5 q 319 942 287 944 l 287 944 q 286 952 284 960.5 q 282 969 278 975 l 278 975 q 319 972 353 971.5 q 387 971 401 971 l 401 971 q 413 970 420.5 973 q 428 976 434 986 l 434 986 q 443 999 449 1044.5 q 455 1090 458.5 1179.5 q 462 1269 463.5 1414 q 465 1559 466 1770 l 466 1770 m 249 1768 l 249 1768 l 280 1768 q 278 1621 270.5 1497 q 263 1373 243.5 1270.5 q 224 1168 186 1083.5 q 148 999 84 931 l 84 931 q 82 933 77.5 937 q 73 941 68.5 945 q 64 949 60 952 l 60 952 q 123 1015 160.5 1097 q 198 1179 216.5 1281 q 235 1383 241.5 1504.5 q 248 1626 249 1768 m 602 931 l 602 1771 l 905 1771 l 905 1742 l 631 1742 l 631 931 l 602 931 m 897 1766 l 897 1771 l 903 1771 l 909 1773 l 928 1759 q 894 1692 850 1611.5 q 806 1531 764 1459 l 764 1459 q 824 1410 858 1367 q 892 1324 906 1285.5 q 920 1247 920 1210 l 920 1210 q 921 1175 911 1144 q 901 1113 875 1098 l 875 1098 q 863 1091 845.5 1086.5 q 828 1082 810 1080 l 810 1080 q 784 1078 753.5 1078.5 q 723 1079 697 1081 l 697 1081 q 696 1086 692.5 1095 q 689 1104 684 1111 l 684 1111 q 717 1107 748.5 1106.5 q 780 1106 803 1108 l 803 1108 q 818 1109 832 1112.5 q 846 1116 857 1121 l 857 1121 q 877 1132 884.5 1157 q 892 1182 892 1210 l 892 1210 q 892 1262 856.5 1321 q 821 1380 728 1454 l 728 1454 q 752 1494 776 1535.5 q 800 1577 821.5 1618 q 843 1659 862.5 1696.5 q 882 1734 897 1766 l 897 1766"},"秒":{"ha":1000,"x_min":39,"x_max":940,"o":"m 237 933 l 237 1758 l 267 1758 l 267 933 l 237 933 m 54 1519 l 54 1548 l 426 1548 l 426 1519 l 54 1519 m 238 1539 l 238 1539 l 262 1531 q 247 1479 224 1422.5 q 201 1366 173.5 1312 q 146 1258 117 1211.5 q 88 1165 60 1133 l 60 1133 q 56 1138 50 1145 q 44 1152 39 1156 l 39 1156 q 66 1186 95 1230 q 124 1274 151 1326 q 178 1378 200.5 1433 q 223 1488 238 1539 m 381 1812 l 381 1812 l 406 1789 q 366 1772 310 1756.5 q 254 1741 193 1729 q 132 1717 76 1708 l 76 1708 q 75 1713 71.5 1720 q 68 1727 65 1732 l 65 1732 q 121 1742 181 1754 q 241 1766 294 1781 q 347 1796 381 1812 m 244 1483 l 263 1498 q 272 1487 292 1460 q 312 1433 335.5 1401 q 359 1369 378 1341.5 q 397 1314 405 1302 l 405 1302 l 383 1278 q 374 1294 355.5 1323 q 337 1352 315 1384.5 q 293 1417 274 1444 q 255 1471 244 1483 l 244 1483 m 511 1662 l 511 1662 l 540 1657 q 530 1597 516 1538.5 q 502 1480 485 1427.5 q 468 1375 448 1334 l 448 1334 q 445 1336 440 1339 q 435 1342 430.5 1345 q 426 1348 422 1349 l 422 1349 q 443 1390 459.5 1440.5 q 476 1491 489 1548 q 502 1605 511 1662 m 785 1657 l 785 1657 l 810 1666 q 838 1624 864 1575.5 q 890 1527 910 1480.5 q 930 1434 940 1397 l 940 1397 l 914 1387 q 903 1424 883 1471 q 863 1518 837.5 1566.5 q 812 1615 785 1657 m 852 1345 l 852 1345 l 879 1334 q 842 1235 774 1156 q 706 1077 608.5 1020 q 511 963 383 930 l 383 930 q 379 935 374 942.5 q 369 950 364 954 l 364 954 q 491 986 587 1041 q 683 1096 749 1172.5 q 815 1249 852 1345 m 645 1214 l 645 1831 l 674 1831 l 674 1214 l 645 1214"},"整":{"ha":1000,"x_min":47,"x_max":952,"o":"m 125 1239 l 125 1269 l 884 1269 l 884 1239 l 125 1239 m 62 1722 l 62 1752 l 513 1752 l 513 1722 l 62 1722 m 502 1103 l 502 1132 l 833 1132 l 833 1103 l 502 1103 m 51 959 l 51 988 l 952 988 l 952 959 l 51 959 m 485 974 l 485 1261 l 515 1261 l 515 974 l 485 974 m 277 1302 l 277 1831 l 306 1831 l 306 1302 l 277 1302 m 232 977 l 232 1171 l 262 1171 l 262 977 l 232 977 m 446 1624 l 128 1624 l 128 1526 l 446 1526 l 446 1624 m 98 1497 l 98 1654 l 476 1654 l 476 1497 l 98 1497 m 655 1831 l 655 1831 l 684 1825 q 661 1741 621.5 1667 q 582 1593 532 1541 l 532 1541 q 530 1544 525.5 1547.5 q 521 1551 516 1554.5 q 511 1558 507 1560 l 507 1560 q 557 1609 595 1679.5 q 633 1750 655 1831 m 607 1679 l 622 1709 l 949 1709 l 949 1679 l 607 1679 m 861 1697 l 861 1697 l 890 1691 q 850 1540 755 1447.5 q 660 1355 523 1300 l 523 1300 q 521 1303 517.5 1308 q 514 1313 510 1317.5 q 506 1322 502 1325 l 502 1325 q 639 1373 731.5 1463 q 824 1553 861 1697 m 598 1667 l 619 1691 q 639 1623 681 1551.5 q 723 1480 789.5 1419 q 856 1358 950 1322 l 950 1322 q 947 1319 943 1314.5 q 939 1310 935.5 1305.5 q 932 1301 930 1297 l 930 1297 q 837 1336 770.5 1398 q 704 1460 661.5 1531 q 619 1602 598 1667 l 598 1667 m 275 1503 l 275 1503 l 297 1492 q 273 1456 234.5 1420 q 196 1384 152.5 1354 q 109 1324 68 1306 l 68 1306 q 64 1311 58 1317.5 q 52 1324 47 1328 l 47 1328 q 89 1344 132.5 1372 q 176 1400 213.5 1434 q 251 1468 275 1503 m 309 1457 l 309 1457 l 326 1476 q 367 1458 410.5 1432 q 454 1406 479 1383 l 479 1383 l 463 1360 q 437 1383 393.5 1410 q 350 1437 309 1457"},"片":{"ha":1000,"x_min":53,"x_max":907,"o":"m 214 1532 l 214 1562 l 907 1562 l 907 1532 l 214 1532 m 551 1542 l 551 1829 l 580 1829 l 580 1542 l 551 1542 m 198 1471 l 198 1800 l 228 1800 l 228 1472 q 228 1399 223 1327 q 218 1255 203 1186.5 q 188 1118 157.5 1054 q 127 990 76 932 l 76 932 q 74 935 70 938 q 66 941 61.5 944.5 q 57 948 53 950 l 53 950 q 119 1025 149.5 1110 q 180 1195 189 1286.5 q 198 1378 198 1471 l 198 1471 m 211 1311 l 211 1340 l 716 1340 l 716 929 l 686 929 l 686 1311 l 211 1311"},"都":{"ha":1000,"x_min":31,"x_max":951,"o":"m 97 1674 l 97 1704 l 451 1704 l 451 1674 l 97 1674 m 188 1003 l 188 1033 l 498 1033 l 498 1003 l 188 1003 m 187 1176 l 187 1205 l 497 1205 l 497 1176 l 187 1176 m 49 1486 l 49 1516 l 571 1516 l 571 1486 l 49 1486 m 274 1500 l 274 1822 l 303 1822 l 303 1500 l 274 1500 m 541 1806 l 541 1806 l 569 1796 q 481 1618 349 1482.5 q 217 1347 56 1257 l 56 1257 q 54 1260 49 1264 q 44 1268 39.5 1272.5 q 35 1277 31 1279 l 31 1279 q 196 1365 327.5 1499.5 q 459 1634 541 1806 m 185 1366 l 196 1366 l 495 1366 l 495 1337 l 196 1337 l 196 937 l 167 937 l 167 1347 l 185 1366 m 484 951 l 484 1366 l 515 1366 l 515 951 l 484 951 m 624 929 l 624 1772 l 927 1772 l 927 1743 l 655 1743 l 655 929 l 624 929 m 918 1766 l 918 1772 l 924 1772 l 930 1774 l 951 1759 q 915 1689 870 1607 q 825 1525 781 1453 l 781 1453 q 845 1405 880 1361.5 q 915 1318 929.5 1278.5 q 944 1239 944 1200 l 944 1200 q 945 1163 934.5 1132.5 q 924 1102 898 1086 l 898 1086 q 874 1072 834 1067 l 834 1067 q 812 1065 784.5 1065.5 q 757 1066 733 1067 l 733 1067 q 732 1074 729 1082.5 q 726 1091 721 1098 l 721 1098 q 750 1095 778.5 1094.5 q 807 1094 826 1096 l 826 1096 q 842 1097 855.5 1100.5 q 869 1104 879 1110 l 879 1110 q 900 1122 907.5 1146.5 q 915 1171 914 1200 l 914 1200 q 914 1254 877.5 1314 q 841 1374 744 1447 l 744 1447 q 769 1488 793.5 1530.5 q 818 1573 840.5 1614 q 863 1655 882.5 1694 q 902 1733 918 1766 l 918 1766"},"悄":{"ha":1000,"x_min":49,"x_max":928,"o":"m 195 932 l 195 1831 l 225 1831 l 225 932 l 195 932 m 104 1643 l 104 1643 l 132 1638 q 129 1600 122 1553.5 q 115 1507 104 1461.5 q 93 1416 78 1381 l 78 1381 l 49 1390 q 64 1423 75 1467 q 86 1511 93.5 1557.5 q 101 1604 104 1643 m 263 1663 l 263 1663 l 287 1674 q 304 1646 319.5 1614 q 335 1582 347 1552.5 q 359 1523 365 1501 l 365 1501 l 339 1485 q 333 1508 321 1538.5 q 309 1569 294 1602 q 279 1635 263 1663 m 443 1340 l 443 1370 l 885 1370 l 885 1340 l 443 1340 m 439 1169 l 439 1198 l 885 1198 l 885 1169 l 439 1169 m 901 1798 l 901 1798 l 928 1782 q 900 1735 866 1683 q 832 1631 801 1593 l 801 1593 l 777 1608 q 798 1634 821 1667 q 844 1700 865 1735 q 886 1770 901 1798 m 411 1782 l 411 1782 l 436 1794 q 459 1765 481.5 1731 q 504 1697 521.5 1664.5 q 539 1632 548 1606 l 548 1606 l 522 1591 q 513 1617 495.5 1650.5 q 478 1684 456 1718.5 q 434 1753 411 1782 m 427 929 l 427 1539 l 890 1539 l 890 1510 l 456 1510 l 456 929 l 427 929 m 869 988 l 869 1539 l 899 1539 l 899 988 q 899 969 892.5 958.5 q 886 948 869 943 l 869 943 q 853 939 817.5 938.5 q 782 938 723 938 l 723 938 q 722 944 718.5 953 q 715 962 711 969 l 711 969 q 762 968 799 967.5 q 836 967 849 968 l 849 968 q 861 969 865 973.5 q 869 978 869 988 l 869 988 m 653 1526 l 653 1831 l 682 1831 l 682 1526 l 653 1526"},"重":{"ha":1000,"x_min":59,"x_max":942,"o":"m 59 964 l 59 993 l 942 993 l 942 964 l 59 964 m 64 1624 l 64 1654 l 938 1654 l 938 1624 l 64 1624 m 134 1114 l 134 1143 l 880 1143 l 880 1114 l 134 1114 m 482 982 l 482 1771 l 512 1771 l 512 982 l 482 982 m 811 1820 l 811 1820 l 836 1796 q 775 1784 693 1774 q 611 1764 518 1756.5 q 425 1749 330 1744 q 235 1739 147 1736 l 147 1736 q 147 1742 144.5 1750 q 142 1758 139 1763 l 139 1763 q 226 1766 321 1771 q 416 1776 507.5 1783 q 599 1790 677.5 1799.5 q 756 1809 811 1820 m 813 1376 l 194 1376 l 194 1268 l 813 1268 l 813 1376 m 813 1511 l 194 1511 l 194 1405 l 813 1405 l 813 1511 m 165 1238 l 165 1540 l 842 1540 l 842 1238 l 165 1238"},"写":{"ha":1000,"x_min":91,"x_max":910,"o":"m 91 1604 l 91 1768 l 910 1768 l 910 1604 l 880 1604 l 880 1739 l 121 1739 l 121 1604 l 91 1604 m 297 1543 l 297 1572 l 796 1572 l 796 1543 l 297 1543 m 254 1343 l 254 1373 l 788 1373 l 788 1343 l 254 1343 m 96 1167 l 96 1196 l 674 1196 l 674 1167 l 96 1167 m 774 1367 l 774 1373 l 805 1373 q 805 1373 804.5 1369.5 q 804 1366 804 1361 q 804 1356 803 1353 l 803 1353 q 790 1226 777 1147 q 764 1068 750 1026.5 q 736 985 717 967 l 717 967 q 704 955 689.5 951 q 675 947 652 947 l 652 947 q 630 946 586 947.5 q 542 949 492 953 l 492 953 q 491 960 489 968 q 487 976 482 983 l 482 983 q 537 978 583 976.5 q 629 975 647 975 l 647 975 q 665 975 675 976.5 q 685 978 692 984 l 692 984 q 709 999 723 1041 q 737 1083 749.5 1161.5 q 762 1240 774 1367 l 774 1367 m 317 1712 l 317 1712 l 347 1708 q 335 1651 319 1583 q 303 1515 287.5 1451.5 q 272 1388 259 1343 l 259 1343 l 227 1343 q 241 1390 257.5 1454.5 q 274 1519 289.5 1587.5 q 305 1656 317 1712"},"自":{"ha":1000,"x_min":182,"x_max":835,"o":"m 202 1432 l 202 1462 l 820 1462 l 820 1432 l 202 1432 m 202 1212 l 202 1241 l 820 1241 l 820 1212 l 202 1212 m 202 989 l 202 1019 l 820 1019 l 820 989 l 202 989 m 182 927 l 182 1687 l 835 1687 l 835 935 l 806 935 l 806 1658 l 212 1658 l 212 927 l 182 927 m 483 1833 l 483 1833 l 512 1825 q 497 1785 480.5 1741.5 q 464 1698 447 1666 l 447 1666 l 423 1672 q 433 1694 444.5 1723 q 456 1752 466.5 1781 q 477 1810 483 1833"},"己":{"ha":1000,"x_min":147,"x_max":948,"o":"m 176 1409 l 176 1438 l 789 1438 l 789 1409 l 176 1409 m 147 1740 l 147 1769 l 814 1769 l 814 1340 l 784 1340 l 784 1740 l 147 1740 m 160 1052 l 160 1438 l 189 1438 l 189 1051 q 189 1025 200.5 1010.5 q 212 996 242.5 990 q 273 984 329 984 l 329 984 q 345 984 388 984 q 431 984 487 984 q 543 984 600.5 984 q 658 984 705 984 q 752 984 775 984 l 775 984 q 817 984 843.5 992 q 870 1000 884.5 1021 q 899 1042 906 1080.5 q 913 1119 917 1179 l 917 1179 q 922 1176 927 1173 q 932 1170 937.5 1168 q 943 1166 948 1165 l 948 1165 q 943 1102 934 1061 q 925 1020 907 996.5 q 889 973 856.5 963.5 q 824 954 770 954 l 770 954 q 762 954 729.5 954 q 697 954 650.5 954 q 604 954 553 954 q 502 954 455.5 954 q 409 954 377 954 q 345 954 337 954 l 337 954 q 270 954 231.5 961.5 q 193 969 176.5 990 q 160 1011 160 1052 l 160 1052"},"坐":{"ha":1000,"x_min":46,"x_max":942,"o":"m 59 971 l 59 1000 l 942 1000 l 942 971 l 59 971 m 130 1243 l 130 1273 l 880 1273 l 880 1243 l 130 1243 m 483 987 l 483 1817 l 513 1817 l 513 987 l 483 987 m 274 1779 l 274 1779 l 304 1774 q 273 1632 214.5 1521 q 156 1410 70 1335 l 70 1335 q 68 1338 63.5 1342.5 q 59 1347 54.5 1351 q 50 1355 46 1358 l 46 1358 q 132 1428 188.5 1535.5 q 245 1643 274 1779 m 226 1586 l 226 1586 l 248 1602 q 280 1572 315 1536.5 q 350 1501 380.5 1468 q 411 1435 431 1411 l 431 1411 l 409 1391 q 389 1416 358 1449.5 q 327 1483 292.5 1519.5 q 258 1556 226 1586 m 757 1778 l 757 1778 l 786 1773 q 756 1639 698 1535.5 q 640 1432 554 1362 l 554 1362 q 552 1365 548 1369.5 q 544 1374 539.5 1378 q 535 1382 531 1385 l 531 1385 q 617 1450 673 1550.5 q 729 1651 757 1778 m 696 1586 l 696 1586 l 719 1601 q 758 1564 799 1520.5 q 840 1477 876 1436 q 912 1395 934 1364 l 934 1364 l 912 1344 q 890 1376 854 1418 q 818 1460 776.5 1504.5 q 735 1549 696 1586"},"标":{"ha":1000,"x_min":31,"x_max":948,"o":"m 464 1711 l 464 1740 l 896 1740 l 896 1711 l 464 1711 m 423 1472 l 423 1501 l 948 1501 l 948 1472 l 423 1472 m 654 982 l 654 1487 l 684 1487 l 684 982 q 684 962 677.5 952.5 q 671 943 655 938 l 655 938 q 639 934 605.5 933.5 q 572 933 518 933 l 518 933 q 517 939 513 947.5 q 509 956 505 963 l 505 963 q 553 962 588.5 962 q 624 962 634 963 l 634 963 q 646 964 650 968 q 654 972 654 982 l 654 982 m 786 1334 l 786 1334 l 815 1341 q 841 1294 865.5 1240 q 890 1186 910 1135.5 q 930 1085 940 1047 l 940 1047 l 910 1037 q 900 1075 880.5 1126 q 861 1177 836.5 1232 q 812 1287 786 1334 m 518 1340 l 518 1340 l 547 1334 q 531 1277 509 1222.5 q 487 1168 461.5 1120 q 436 1072 407 1034 l 407 1034 q 405 1036 400 1039.5 q 395 1043 389.5 1046.5 q 384 1050 380 1052 l 380 1052 q 425 1107 460.5 1182.5 q 496 1258 518 1340 m 65 1574 l 65 1604 l 406 1604 l 406 1574 l 65 1574 m 231 932 l 231 1831 l 261 1831 l 261 932 l 231 932 m 228 1596 l 228 1596 l 257 1588 q 242 1535 220 1477.5 q 198 1420 171 1364.5 q 144 1309 114.5 1261 q 85 1213 55 1180 l 55 1180 q 52 1184 47.5 1188.5 q 43 1193 39 1197 q 35 1201 31 1203 l 31 1203 q 69 1245 107 1310 q 145 1375 177 1450.5 q 209 1526 228 1596 m 233 1533 l 256 1548 q 265 1538 285 1512 q 305 1486 328.5 1455 q 352 1424 372 1398 q 392 1372 400 1360 l 400 1360 l 375 1335 q 366 1350 347 1378 q 328 1406 306 1437.5 q 284 1469 264 1495 q 244 1521 233 1533 l 233 1533"},"系":{"ha":1000,"x_min":102,"x_max":926,"o":"m 329 1231 l 329 1231 l 357 1222 q 327 1180 289 1139 q 251 1098 210 1062 q 169 1026 129 997 l 129 997 q 127 1000 122 1003.5 q 117 1007 112 1011 q 107 1015 102 1017 l 102 1017 q 164 1058 225 1114.5 q 286 1171 329 1231 m 654 1222 l 654 1222 l 674 1236 q 719 1202 766.5 1161 q 814 1120 856 1081 q 898 1042 926 1012 l 926 1012 l 905 993 q 878 1022 835.5 1062.5 q 793 1103 745.5 1145 q 698 1187 654 1222 m 499 996 l 499 1313 l 529 1313 l 529 996 q 529 978 523.5 969 q 518 960 501 955 l 501 955 q 484 950 450 949.5 q 416 949 361 949 l 361 949 q 360 956 356.5 964.5 q 353 973 348 980 l 348 980 q 383 979 410 978.5 q 437 978 455 978.5 q 473 979 480 979 l 480 979 q 492 980 495.5 983.5 q 499 987 499 996 l 499 996 m 819 1812 l 819 1812 l 839 1786 q 776 1771 692.5 1758 q 609 1745 513.5 1734.5 q 418 1724 320 1716 q 222 1708 131 1702 l 131 1702 q 130 1708 127.5 1715.5 q 125 1723 122 1728 l 122 1728 q 212 1734 310 1742.5 q 408 1751 503 1761.5 q 598 1772 679.5 1784.5 q 761 1797 819 1812 m 122 1263 l 122 1263 q 122 1267 120 1273 q 118 1279 116 1285 q 114 1291 111 1296 l 111 1296 q 130 1298 165.5 1313 q 201 1328 247 1351 l 247 1351 q 272 1363 322 1391 q 372 1419 437 1459 q 502 1499 572.5 1546 q 643 1593 709 1644 l 709 1644 l 736 1624 q 587 1514 441 1428.5 q 295 1343 152 1280 l 152 1280 l 152 1279 q 152 1279 147.5 1278 q 143 1277 137 1274.5 q 131 1272 126.5 1269 q 122 1266 122 1263 m 122 1263 l 122 1263 l 122 1287 l 154 1304 l 830 1349 q 829 1342 829 1334 q 829 1326 829 1321 l 829 1321 q 671 1310 558 1302.5 q 445 1295 369.5 1289.5 q 294 1284 248 1280 q 202 1276 177 1273.5 q 152 1271 140.5 1268.5 q 129 1266 122 1263 m 187 1463 l 187 1463 q 187 1467 185.5 1473 q 184 1479 182 1485.5 q 180 1492 178 1496 l 178 1496 q 190 1497 208.5 1508.5 q 227 1520 248 1537 l 248 1537 q 260 1546 284.5 1566.5 q 309 1587 340 1615.5 q 371 1644 403.5 1677.5 q 436 1711 465 1745 l 465 1745 l 494 1730 q 426 1656 356 1592.5 q 286 1529 217 1482 l 217 1482 l 217 1481 q 217 1481 212.5 1479.5 q 208 1478 202 1475.5 q 196 1473 191.5 1470 q 187 1467 187 1463 m 187 1463 l 187 1463 l 187 1488 l 214 1501 l 543 1519 q 542 1512 541.5 1503.5 q 541 1495 541 1490 l 541 1490 q 426 1484 358 1479.5 q 290 1475 255.5 1472.5 q 221 1470 207.5 1468 q 194 1466 187 1463 m 686 1448 l 686 1448 l 711 1460 q 751 1427 792 1387.5 q 833 1348 867.5 1310.5 q 902 1273 923 1244 l 923 1244 l 898 1229 q 877 1259 842 1297.5 q 807 1336 766 1375.5 q 725 1415 686 1448"},"花":{"ha":1000,"x_min":65,"x_max":946,"o":"m 527 1024 l 527 1572 l 557 1572 l 557 1023 q 557 994 570 984 q 583 974 626 974 l 626 974 q 637 974 667.5 974 q 698 974 735 974 q 772 974 804 974 q 836 974 850 974 l 850 974 q 877 974 890 986.5 q 903 999 908.5 1034 q 914 1069 917 1136 l 917 1136 q 921 1133 926 1130.5 q 931 1128 936 1126 q 941 1124 946 1122 l 946 1122 q 943 1053 935.5 1014.5 q 928 976 908.5 960 q 889 944 849 944 l 849 944 q 843 944 821 944 q 799 944 769 944 q 739 944 709 944 q 679 944 656.5 944 q 634 944 629 944 l 629 944 q 590 944 568 950.5 q 546 957 536.5 974 q 527 991 527 1024 l 527 1024 m 860 1470 l 860 1470 l 885 1447 q 827 1400 745.5 1352.5 q 664 1305 571.5 1259.5 q 479 1214 387 1173 l 387 1173 q 386 1178 382 1184 q 378 1190 375 1195 l 375 1195 q 464 1235 556 1281.5 q 648 1328 728 1376 q 808 1424 860 1470 m 322 1563 l 322 1563 l 350 1554 q 318 1492 276.5 1433.5 q 235 1375 188 1324.5 q 141 1274 92 1235 l 92 1235 q 90 1238 85.5 1241.5 q 81 1245 76 1249 q 71 1253 67 1255 l 67 1255 q 117 1292 164 1341 q 211 1390 251.5 1447 q 292 1504 322 1563 m 65 1694 l 65 1723 l 934 1723 l 934 1694 l 65 1694 m 324 1597 l 324 1831 l 353 1831 l 353 1597 l 324 1597 m 649 1588 l 649 1831 l 678 1831 l 678 1588 l 649 1588 m 229 931 l 229 1397 l 257 1425 l 258 1425 l 258 931 l 229 931"},"云":{"ha":1000,"x_min":64,"x_max":938,"o":"m 168 1707 l 168 1736 l 834 1736 l 834 1707 l 168 1707 m 64 1423 l 64 1452 l 938 1452 l 938 1423 l 64 1423 m 641 1289 l 641 1289 l 667 1302 q 710 1245 756.5 1179.5 q 803 1114 843.5 1052.5 q 884 991 908 944 l 908 944 l 882 930 q 856 977 815.5 1039.5 q 775 1102 729.5 1168 q 684 1234 641 1289 m 148 967 l 148 967 q 147 971 145 977 q 143 983 141 989.5 q 139 996 136 1000 l 136 1000 q 150 1003 168.5 1025 q 187 1047 209 1081 l 209 1081 q 221 1097 246 1133.5 q 271 1170 302 1220.5 q 333 1271 364.5 1329 q 396 1387 423 1445 l 423 1445 l 453 1430 q 413 1349 367.5 1269.5 q 322 1190 274 1118.5 q 226 1047 177 989 l 177 989 l 177 988 q 177 988 172.5 986 q 168 984 162.5 981 q 157 978 152.5 974.5 q 148 971 148 967 m 148 967 l 148 967 l 148 992 l 180 1009 l 822 1068 q 823 1061 825 1053 q 827 1045 829 1040 l 829 1040 q 677 1026 568.5 1015.5 q 460 1005 387.5 998 q 315 991 270.5 986.5 q 226 982 202 978.5 q 178 975 166.5 972.5 q 155 970 148 967"},"山":{"ha":1000,"x_min":123,"x_max":875,"o":"m 484 1022 l 484 1816 l 514 1816 l 514 1022 l 484 1022 m 846 936 l 846 1629 l 875 1629 l 875 936 l 846 936 m 123 1013 l 123 1630 l 153 1630 l 153 1042 l 866 1042 l 866 1013 l 123 1013"},"水":{"ha":1000,"x_min":56,"x_max":967,"o":"m 84 1533 l 84 1563 l 377 1563 l 377 1533 l 84 1533 m 484 981 l 484 1827 l 515 1827 l 515 982 q 515 959 507.5 948.5 q 500 938 484 934 l 484 934 q 469 930 437.5 929 q 406 928 352 928 l 352 928 q 351 932 348.5 937.5 q 346 943 344 949 q 342 955 339 959 l 339 959 q 384 958 418.5 958 q 453 958 463 959 l 463 959 q 474 960 479 964 q 484 968 484 981 l 484 981 m 370 1554 l 370 1563 l 377 1563 l 383 1565 l 402 1556 q 376 1430 327 1330.5 q 278 1231 215 1158 q 152 1085 80 1037 l 80 1037 q 78 1041 73.5 1045.5 q 69 1050 64.5 1054.5 q 60 1059 56 1061 l 56 1061 q 128 1106 190.5 1176.5 q 253 1247 299.5 1342 q 346 1437 370 1554 l 370 1554 m 489 1585 l 512 1594 q 547 1515 597 1435.5 q 647 1356 707 1285.5 q 767 1215 833.5 1159 q 900 1103 967 1070 l 967 1070 q 964 1067 960 1062.5 q 956 1058 952 1053.5 q 948 1049 945 1045 l 945 1045 q 878 1081 811.5 1138.5 q 745 1196 685 1268.5 q 625 1341 575 1422 q 525 1503 489 1585 l 489 1585 m 833 1629 l 833 1629 l 859 1611 q 828 1571 789 1526 q 750 1481 710 1439 q 670 1397 635 1366 l 635 1366 l 616 1381 q 650 1413 690 1456.5 q 730 1500 768 1545.5 q 806 1591 833 1629"},"光":{"ha":1000,"x_min":45,"x_max":951,"o":"m 609 997 l 609 1417 l 638 1417 l 638 997 q 638 975 648.5 967 q 659 959 693 959 l 693 959 q 702 959 725 959 q 748 959 776 959 q 804 959 828.5 959 q 853 959 864 959 l 864 959 q 887 959 898.5 972 q 910 985 914.5 1023 q 919 1061 921 1136 l 921 1136 q 925 1133 930 1130.5 q 935 1128 940.5 1126 q 946 1124 951 1122 l 951 1122 q 948 1046 941.5 1004 q 935 962 917.5 946 q 900 930 865 930 l 865 930 q 859 930 834 930 q 809 930 779 930 q 749 930 725 930 q 701 930 695 930 l 695 930 q 662 930 643 935 q 624 940 616.5 954.5 q 609 969 609 997 l 609 997 m 351 1412 l 351 1412 l 381 1412 q 374 1324 357.5 1249 q 341 1174 307.5 1113 q 274 1052 215.5 1006.5 q 157 961 66 931 l 66 931 q 64 934 60.5 938.5 q 57 943 53 947.5 q 49 952 45 954 l 45 954 q 135 982 192 1026 q 249 1070 281.5 1128.5 q 314 1187 329 1258 q 344 1329 351 1412 m 155 1766 l 155 1766 l 182 1775 q 210 1736 237 1690.5 q 264 1645 285 1601.5 q 306 1558 316 1524 l 316 1524 l 288 1514 q 278 1547 257.5 1591 q 237 1635 210.5 1681 q 184 1727 155 1766 m 822 1790 l 822 1790 l 850 1777 q 830 1735 805.5 1686.5 q 781 1638 755.5 1593 q 730 1548 707 1514 l 707 1514 l 684 1525 q 707 1560 732.5 1606.5 q 758 1653 782 1702 q 806 1751 822 1790 m 60 1404 l 60 1433 l 943 1433 l 943 1404 l 60 1404 m 483 1421 l 483 1831 l 513 1831 l 513 1421 l 483 1421"},"诗":{"ha":1000,"x_min":57,"x_max":950,"o":"m 415 1656 l 415 1685 l 899 1685 l 899 1656 l 415 1656 m 368 1287 l 368 1317 l 947 1317 l 947 1287 l 368 1287 m 344 1461 l 344 1490 l 950 1490 l 950 1461 l 344 1461 m 639 1473 l 639 1825 l 668 1825 l 668 1473 l 639 1473 m 775 984 l 775 1472 l 804 1472 l 804 985 q 804 963 797.5 952 q 791 941 774 936 l 774 936 q 758 932 723 931.5 q 688 931 630 931 l 630 931 q 629 938 625.5 947.5 q 622 957 618 964 l 618 964 q 652 963 680 963 q 708 963 727.5 963.5 q 747 964 755 964 l 755 964 q 766 965 770.5 969.5 q 775 974 775 984 l 775 984 m 462 1222 l 462 1222 l 485 1237 q 508 1211 531.5 1179 q 555 1147 574 1116.5 q 593 1086 604 1062 l 604 1062 l 579 1043 q 569 1068 550 1099 q 531 1130 508 1162.5 q 485 1195 462 1222 m 138 1778 l 138 1778 l 161 1796 q 187 1774 214.5 1748 q 242 1722 266 1696.5 q 290 1671 305 1652 l 305 1652 l 281 1630 q 266 1650 242.5 1676 q 219 1702 191.5 1729 q 164 1756 138 1778 m 191 956 l 191 956 l 190 987 l 207 1012 l 371 1120 q 373 1115 376.5 1108 q 380 1101 382 1096 l 382 1096 q 322 1054 286 1029 q 250 1004 231 990.5 q 212 977 204 969.5 q 196 962 191 956 m 57 1481 l 57 1511 l 231 1511 l 231 1481 l 57 1481 m 191 956 l 191 956 q 189 960 185 964.5 q 181 969 177.5 973.5 q 174 978 170 981 l 170 981 q 177 986 189 997.5 q 201 1009 210.5 1026.5 q 220 1044 220 1066 l 220 1066 l 220 1511 l 249 1511 l 249 1020 q 249 1020 243 1015 q 237 1010 228.5 1002 q 220 994 211.5 985.5 q 203 977 197 969 q 191 961 191 956"},"文":{"ha":1000,"x_min":47,"x_max":955,"o":"m 758 1634 l 758 1634 l 788 1623 q 721 1443 621.5 1311.5 q 522 1180 385 1088 q 248 996 68 933 l 68 933 q 66 936 62.5 941.5 q 59 947 55 952.5 q 51 958 47 961 l 47 961 q 227 1020 363 1110.5 q 499 1201 596.5 1330 q 694 1459 758 1634 m 208 1623 l 235 1633 q 297 1470 399.5 1335.5 q 502 1201 641.5 1105 q 781 1009 955 962 l 955 962 q 952 959 948 954 q 944 949 940 944.5 q 936 940 933 935 l 933 935 q 758 985 618 1082.5 q 478 1180 375 1317.5 q 272 1455 208 1623 l 208 1623 m 56 1617 l 56 1646 l 948 1646 l 948 1617 l 56 1617 m 434 1824 l 434 1824 l 462 1833 q 488 1797 513 1753 q 538 1709 551 1678 l 551 1678 l 522 1667 q 510 1698 485 1742.5 q 460 1787 434 1824"},"字":{"ha":1000,"x_min":75,"x_max":922,"o":"m 232 1512 l 232 1541 l 745 1541 l 745 1512 l 232 1512 m 75 1258 l 75 1287 l 922 1287 l 922 1258 l 75 1258 m 486 977 l 486 1359 l 516 1359 l 516 978 q 516 959 509 949.5 q 502 940 485 935 l 485 935 q 469 931 434.5 930.5 q 400 930 335 930 l 335 930 q 334 934 331.5 938.5 q 329 943 326.5 948 q 324 953 321 957 l 321 957 q 358 957 387.5 956.5 q 417 956 437 956.5 q 457 957 465 957 l 465 957 q 477 958 481.5 962.5 q 486 967 486 977 l 486 977 m 737 1534 l 737 1541 l 744 1541 l 751 1543 l 772 1528 q 738 1493 692.5 1458 q 647 1423 598.5 1392.5 q 550 1362 506 1340 l 506 1340 q 502 1345 496.5 1350.5 q 491 1356 486 1359 l 486 1359 q 530 1380 577 1409 q 624 1438 666 1470.5 q 708 1503 737 1534 l 737 1534 m 93 1534 l 93 1716 l 908 1716 l 908 1534 l 878 1534 l 878 1686 l 123 1686 l 123 1534 l 93 1534 m 443 1826 l 443 1826 l 469 1837 q 492 1808 513 1772 q 534 1736 544 1710 l 544 1710 l 516 1697 q 507 1724 486.5 1760.5 q 466 1797 443 1826"},"拓":{"ha":1000,"x_min":41,"x_max":947,"o":"m 54 1250 l 41 1280 q 84 1293 138.5 1309.5 q 193 1326 254 1345.5 q 315 1365 377 1385 l 377 1385 l 380 1358 q 294 1329 208 1300 q 122 1271 54 1250 l 54 1250 m 53 1587 l 53 1617 l 380 1617 l 380 1587 l 53 1587 m 215 985 l 215 1830 l 244 1830 l 244 986 q 244 966 237 956.5 q 230 947 216 943 l 216 943 q 202 939 173.5 938 q 145 937 95 937 l 95 937 q 94 943 90 951.5 q 86 960 83 967 l 83 967 q 124 966 154.5 966 q 185 966 195 966 l 195 966 q 206 967 210.5 971 q 215 975 215 985 l 215 985 m 369 1726 l 369 1756 l 947 1756 l 947 1726 l 369 1726 m 495 989 l 495 1019 l 888 1019 l 888 989 l 495 989 m 486 930 l 486 1419 l 897 1419 l 897 934 l 868 934 l 868 1389 l 516 1389 l 516 930 l 486 930 m 603 1748 l 603 1748 l 633 1741 q 607 1642 566 1540.5 q 525 1439 467.5 1347.5 q 410 1256 334 1185 l 334 1185 q 332 1188 328 1192 q 324 1196 320.5 1200.5 q 317 1205 314 1207 l 314 1207 q 370 1258 415.5 1321.5 q 461 1385 496.5 1456 q 532 1527 558.5 1601.5 q 585 1676 603 1748"},"扑":{"ha":1000,"x_min":51,"x_max":957,"o":"m 64 1250 l 51 1280 q 100 1295 163 1314.5 q 226 1334 297.5 1356.5 q 369 1379 440 1402 l 440 1402 l 444 1376 q 344 1342 243 1308 q 142 1274 64 1250 l 64 1250 m 63 1587 l 63 1617 l 447 1617 l 447 1587 l 63 1587 m 244 985 l 244 1830 l 274 1830 l 274 986 q 274 966 266.5 956.5 q 259 947 245 943 l 245 943 q 232 939 203.5 938 q 175 937 125 937 l 125 937 q 124 943 120 951.5 q 116 960 112 967 l 112 967 q 153 966 184 966 q 215 966 225 966 l 225 966 q 235 967 239.5 971 q 244 975 244 985 l 244 985 m 613 932 l 613 1831 l 642 1831 l 642 932 l 613 932 m 633 1506 l 633 1506 l 653 1526 q 708 1494 766 1455 q 824 1416 874.5 1376.5 q 925 1337 957 1305 l 957 1305 l 937 1280 q 905 1313 854.5 1353 q 804 1393 746 1433.5 q 688 1474 633 1506"},"口":{"ha":1000,"x_min":148,"x_max":857,"o":"m 148 959 l 148 1719 l 857 1719 l 857 967 l 827 967 l 827 1690 l 178 1690 l 178 959 l 148 959 m 158 1049 l 158 1079 l 856 1079 l 856 1049 l 158 1049"},"锁":{"ha":1000,"x_min":44,"x_max":944,"o":"m 195 1827 l 195 1827 l 224 1820 q 206 1769 181.5 1719.5 q 157 1670 128 1626.5 q 99 1583 67 1549 l 67 1549 q 65 1552 61 1556 q 57 1560 52.5 1565 q 48 1570 44 1572 l 44 1572 q 91 1619 131 1686.5 q 171 1754 195 1827 m 149 1670 l 155 1699 l 412 1699 l 412 1670 l 149 1670 m 198 941 l 198 941 l 198 972 l 216 993 l 395 1086 q 397 1081 399.5 1074 q 402 1067 404 1062 l 404 1062 q 339 1027 300 1005.5 q 261 984 241 971.5 q 221 959 212 952.5 q 203 946 198 941 m 115 1500 l 115 1529 l 386 1529 l 386 1500 l 115 1500 m 82 1297 l 82 1327 l 411 1327 l 411 1297 l 82 1297 m 653 1271 l 653 1444 l 682 1444 l 682 1271 q 682 1229 674 1183.5 q 666 1138 638.5 1092.5 q 611 1047 554.5 1005 q 498 963 400 930 l 400 930 q 398 935 392.5 942 q 387 949 382 954 l 382 954 q 476 985 530.5 1024 q 585 1063 611.5 1105.5 q 638 1148 645.5 1190.5 q 653 1233 653 1271 l 653 1271 m 667 1068 l 667 1068 l 685 1089 q 730 1071 778.5 1048 q 827 1025 871 1001.5 q 915 978 944 958 l 944 958 l 926 933 q 897 953 853.5 977.5 q 810 1002 761 1026 q 712 1050 667 1068 m 469 1092 l 469 1544 l 871 1544 l 871 1092 l 842 1092 l 842 1515 l 498 1515 l 498 1092 l 469 1092 m 452 1776 l 452 1776 l 476 1789 q 508 1747 537.5 1697 q 567 1647 580 1610 l 580 1610 l 555 1596 q 546 1621 529.5 1652.5 q 513 1684 493 1716.5 q 473 1749 452 1776 m 858 1785 l 858 1785 l 885 1774 q 862 1728 833 1677 q 804 1626 778 1589 l 778 1589 l 755 1600 q 772 1625 791.5 1657.5 q 811 1690 828.5 1724 q 846 1758 858 1785 m 655 1526 l 655 1840 l 684 1840 l 684 1526 l 655 1526 m 198 941 l 198 941 q 196 945 192 949.5 q 188 954 184 959 q 180 964 177 967 l 177 967 q 184 972 196 983 q 208 994 217.5 1011 q 227 1028 227 1050 l 227 1050 l 227 1508 l 256 1508 l 256 1004 q 256 1004 250 999 q 244 994 235.5 986.5 q 227 979 218.5 970 q 210 961 204 953.5 q 198 946 198 941"},"场":{"ha":1000,"x_min":45,"x_max":922,"o":"m 60 1552 l 60 1581 l 347 1581 l 347 1552 l 60 1552 m 196 1151 l 196 1821 l 226 1821 l 226 1151 l 196 1151 m 56 1078 l 45 1108 q 84 1121 133 1139.5 q 182 1158 237 1179.5 q 292 1201 348 1222 l 348 1222 l 353 1194 q 274 1163 196 1132.5 q 118 1102 56 1078 l 56 1078 m 376 1752 l 376 1781 l 791 1781 l 791 1752 l 376 1752 m 892 1490 l 892 1498 l 922 1498 q 922 1498 921.5 1494 q 921 1490 921 1485 q 921 1480 920 1476 l 920 1476 q 912 1342 903.5 1250 q 895 1158 886 1099.5 q 877 1041 866 1009 q 855 977 842 962 l 842 962 q 831 949 818.5 944 q 806 939 787 939 l 787 939 q 772 938 745.5 939 q 719 940 690 942 l 690 942 q 690 949 688 957.5 q 686 966 682 972 l 682 972 q 715 969 743 968.5 q 771 968 783 968 l 783 968 q 795 967 802.5 969.5 q 810 972 817 980 l 817 980 q 833 996 845.5 1049 q 858 1102 869.5 1208.5 q 881 1315 892 1490 l 892 1490 m 400 1460 l 400 1460 q 399 1464 396.5 1469.5 q 394 1475 391.5 1480.5 q 389 1486 386 1490 l 386 1490 q 402 1492 427.5 1505 q 453 1518 482 1537 l 482 1537 q 498 1547 530.5 1570 q 563 1593 604.5 1625 q 646 1657 690 1695 q 734 1733 774 1772 l 774 1772 l 774 1776 l 791 1785 l 819 1768 q 712 1675 616.5 1602.5 q 521 1530 429 1478 l 429 1478 l 429 1477 q 429 1477 424.5 1475.5 q 420 1474 414.5 1471.5 q 409 1469 404.5 1466 q 400 1463 400 1460 m 400 1460 l 400 1460 l 400 1489 l 429 1498 l 904 1498 l 904 1469 l 484 1469 q 445 1469 426 1467 q 407 1465 400 1460 m 766 1489 l 766 1489 l 794 1482 q 737 1291 637 1152.5 q 537 1014 391 925 l 391 925 q 389 928 384.5 932 q 380 936 375.5 939.5 q 371 943 367 946 l 367 946 q 515 1031 613.5 1168 q 712 1305 766 1489 m 624 1487 l 624 1487 l 653 1480 q 617 1375 551.5 1293 q 486 1211 406 1155 l 406 1155 q 404 1158 399.5 1162 q 395 1166 390 1170 q 385 1174 381 1176 l 381 1176 q 463 1228 526.5 1307.5 q 590 1387 624 1487"},"景":{"ha":1000,"x_min":59,"x_max":942,"o":"m 791 1647 l 212 1647 l 212 1562 l 791 1562 l 791 1647 m 791 1760 l 212 1760 l 212 1676 l 791 1676 l 791 1760 m 182 1532 l 182 1789 l 820 1789 l 820 1532 l 182 1532 m 59 1417 l 59 1446 l 942 1446 l 942 1417 l 59 1417 m 768 1317 l 234 1317 l 234 1183 l 768 1183 l 768 1317 m 205 1154 l 205 1346 l 797 1346 l 797 1154 l 205 1154 m 483 971 l 483 1175 l 513 1175 l 513 971 q 513 955 508 946.5 q 503 938 488 935 l 488 935 q 474 931 442.5 930 q 411 929 358 929 l 358 929 q 357 935 353.5 942 q 350 949 346 956 l 346 956 q 377 955 401.5 954.5 q 426 954 443 954.5 q 460 955 467 955 l 467 955 q 477 956 480 959.5 q 483 963 483 971 l 483 971 m 642 1086 l 642 1086 l 660 1107 q 708 1090 759.5 1066 q 811 1042 857 1017.5 q 903 993 933 971 l 933 971 l 915 946 q 885 968 839.5 993 q 794 1018 742 1043 q 690 1068 642 1086 m 312 1112 l 312 1112 l 339 1101 q 306 1073 262 1045.5 q 218 1018 171.5 993.5 q 125 969 82 951 l 82 951 q 80 954 75.5 958.5 q 71 963 67 968 q 63 973 59 975 l 59 975 q 103 992 149 1014 q 195 1036 237.5 1061 q 280 1086 312 1112 m 449 1510 l 449 1510 l 475 1521 q 491 1502 505 1479 q 519 1456 525 1437 l 525 1437 l 497 1425 q 491 1443 478 1467 q 465 1491 449 1510"},"点":{"ha":1000,"x_min":54,"x_max":934,"o":"m 475 1496 l 475 1831 l 504 1831 l 504 1496 l 475 1496 m 792 1486 l 206 1486 l 206 1256 l 792 1256 l 792 1486 m 178 1227 l 178 1516 l 821 1516 l 821 1227 l 178 1227 m 489 1676 l 489 1706 l 905 1706 l 905 1676 l 489 1676 m 360 1128 l 360 1128 l 389 1129 q 396 1099 401.5 1064.5 q 407 1030 410 999 q 413 968 413 946 l 413 946 l 382 941 q 382 965 379.5 997 q 377 1029 372 1063.5 q 367 1098 360 1128 m 568 1127 l 568 1127 l 595 1132 q 611 1103 625.5 1069 q 640 1035 652 1003 q 664 971 669 948 l 669 948 l 640 940 q 635 964 623.5 996.5 q 612 1029 598 1063.5 q 584 1098 568 1127 m 773 1137 l 773 1137 l 799 1149 q 826 1118 852.5 1083 q 879 1048 900.5 1014 q 922 980 934 953 l 934 953 l 908 939 q 896 966 874 1000.5 q 852 1035 826 1071 q 800 1107 773 1137 m 200 1145 l 200 1145 l 227 1137 q 199 1081 161 1023.5 q 123 966 80 928 l 80 928 l 54 940 q 98 976 136.5 1032.5 q 175 1089 200 1145"},"击":{"ha":1000,"x_min":81,"x_max":923,"o":"m 157 1629 l 157 1659 l 850 1659 l 850 1629 l 157 1629 m 81 1401 l 81 1430 l 923 1430 l 923 1401 l 81 1401 m 485 1005 l 485 1830 l 515 1830 l 515 1005 l 485 1005 m 806 929 l 806 1304 l 834 1304 l 834 929 l 806 929 m 163 997 l 163 1306 l 193 1306 l 193 1027 l 819 1027 l 819 997 l 163 997"},"面":{"ha":1000,"x_min":67,"x_max":936,"o":"m 350 1353 l 350 1382 l 642 1382 l 642 1353 l 350 1353 m 350 1173 l 350 1202 l 646 1202 l 646 1173 l 350 1173 m 133 984 l 133 1014 l 870 1014 l 870 984 l 133 984 m 116 929 l 116 1564 l 884 1564 l 884 929 l 854 929 l 854 1534 l 146 1534 l 146 929 l 116 929 m 331 998 l 331 1550 l 361 1550 l 361 998 l 331 998 m 631 1003 l 631 1550 l 661 1550 l 661 1003 l 631 1003 m 478 1741 l 478 1741 l 511 1730 q 498 1685 482.5 1633.5 q 467 1582 452 1546 l 452 1546 l 426 1556 q 435 1581 445 1613.5 q 455 1646 464 1680 q 473 1714 478 1741 m 67 1725 l 67 1755 l 936 1755 l 936 1725 l 67 1725"},"填":{"ha":1000,"x_min":45,"x_max":949,"o":"m 367 1694 l 367 1723 l 918 1723 l 918 1694 l 367 1694 m 711 1085 l 711 1085 l 732 1103 q 766 1081 801.5 1054 q 837 1027 868.5 1000.5 q 900 974 920 953 l 920 953 l 898 932 q 878 953 846.5 980 q 815 1007 779.5 1034.5 q 744 1062 711 1085 m 528 1100 l 528 1100 l 562 1084 q 533 1057 496 1028.5 q 459 1000 420 974 q 381 948 345 928 l 345 928 q 342 933 336 940 q 330 947 326 951 l 326 951 q 361 971 399.5 996 q 438 1021 472 1048 q 506 1075 528 1100 m 322 1124 l 322 1153 l 949 1153 l 949 1124 l 322 1124 m 434 1467 l 434 1496 l 836 1496 l 836 1467 l 434 1467 m 432 1357 l 432 1386 l 839 1386 l 839 1357 l 432 1357 m 435 1244 l 435 1274 l 837 1274 l 837 1244 l 435 1244 m 423 1146 l 423 1611 l 844 1611 l 844 1146 l 815 1146 l 815 1581 l 452 1581 l 452 1146 l 423 1146 m 621 1830 l 621 1830 l 654 1824 q 645 1787 635 1743.5 q 625 1700 615 1659.5 q 605 1619 594 1589 l 594 1589 l 567 1595 q 577 1626 587 1668 q 597 1710 606.5 1753 q 616 1796 621 1830 m 45 1552 l 45 1581 l 328 1581 l 328 1552 l 45 1552 m 172 1164 l 172 1821 l 202 1821 l 202 1164 l 172 1164 m 57 1088 l 45 1118 q 80 1132 125 1151 q 170 1170 220.5 1192 q 271 1214 322 1237 l 322 1237 l 327 1210 q 255 1177 184.5 1145.5 q 114 1114 57 1088 l 57 1088"},"入":{"ha":1000,"x_min":50,"x_max":950,"o":"m 319 1769 l 319 1769 l 337 1794 q 406 1746 454.5 1688.5 q 503 1631 538.5 1567.5 q 574 1504 604 1438 q 634 1372 665 1306.5 q 696 1241 734 1180.5 q 772 1120 824 1067 q 876 1014 950 972 l 950 972 q 947 968 943.5 962.5 q 940 957 937.5 951.5 q 935 946 934 941 l 934 941 q 859 983 805.5 1037 q 752 1091 713 1153 q 674 1215 642 1281 q 610 1347 580 1414 q 550 1481 514.5 1544.5 q 479 1608 432 1665.5 q 385 1723 319 1769 m 484 1604 l 484 1604 l 516 1598 q 480 1438 422.5 1313 q 365 1188 280.5 1094 q 196 1000 78 932 l 78 932 q 75 935 70 939 q 65 943 60 947.5 q 55 952 50 955 l 50 955 q 229 1050 331 1212 q 433 1374 484 1604"},"空":{"ha":1000,"x_min":85,"x_max":919,"o":"m 486 973 l 486 1317 l 516 1317 l 516 973 l 486 973 m 90 1494 l 90 1700 l 913 1700 l 913 1523 l 883 1523 l 883 1670 l 120 1670 l 120 1494 l 90 1494 m 172 1302 l 172 1331 l 834 1331 l 834 1302 l 172 1302 m 85 963 l 85 992 l 919 992 l 919 963 l 85 963 m 588 1566 l 588 1566 l 605 1583 q 644 1562 686 1537.5 q 728 1513 768.5 1487.5 q 809 1462 844 1438 q 879 1414 904 1395 l 904 1395 l 887 1373 q 862 1393 827 1417 q 792 1441 751.5 1467.5 q 711 1494 669 1519.5 q 627 1545 588 1566 m 391 1591 l 391 1591 l 413 1574 q 377 1539 333 1502 q 289 1465 236.5 1430.5 q 184 1396 122 1369 l 122 1369 l 101 1390 q 196 1428 268.5 1483.5 q 341 1539 391 1591 m 446 1824 l 446 1824 l 475 1834 q 495 1800 516.5 1758.5 q 538 1717 550 1690 l 550 1690 l 521 1676 q 509 1705 488 1747 q 467 1789 446 1824"},"缺":{"ha":1000,"x_min":39,"x_max":958,"o":"m 49 1415 l 49 1444 l 456 1444 l 456 1415 l 49 1415 m 128 1671 l 128 1701 l 432 1701 l 432 1671 l 128 1671 m 392 1004 l 392 1330 l 422 1330 l 422 1004 l 392 1004 m 239 1052 l 239 1692 l 269 1692 l 269 1052 l 239 1052 m 156 1833 l 156 1833 l 185 1827 q 172 1771 154 1716.5 q 136 1662 114.5 1613.5 q 93 1565 68 1527 l 68 1527 q 65 1529 60 1531.5 q 55 1534 49.5 1537 q 44 1540 39 1541 l 39 1541 q 79 1597 108 1674 q 137 1751 156 1833 m 90 1024 l 90 1058 q 152 1065 234 1075 q 316 1085 404 1096 l 404 1096 l 405 1067 q 317 1054 236 1043 q 155 1032 90 1024 l 90 1024 m 90 1051 l 90 1329 l 120 1329 l 120 1040 l 90 1051 m 475 1320 l 475 1349 l 938 1349 l 938 1320 l 475 1320 m 500 1624 l 500 1654 l 858 1654 l 858 1338 l 828 1338 l 828 1624 l 500 1624 m 691 1335 l 719 1342 q 737 1254 769.5 1178.5 q 802 1103 849.5 1046 q 897 989 958 956 l 958 956 q 954 953 949.5 948.5 q 945 944 941.5 940 q 938 936 935 932 l 935 932 q 843 987 781.5 1092.5 q 720 1198 691 1335 l 691 1335 m 668 1506 l 668 1831 l 697 1831 l 697 1506 q 697 1428 690 1351 q 683 1274 661 1200 q 639 1126 595.5 1058 q 552 990 478 931 l 478 931 q 476 934 472.5 937.5 q 469 941 464.5 944.5 q 460 948 456 950 l 456 950 q 528 1008 570.5 1074 q 613 1140 634 1211.5 q 655 1283 661.5 1357 q 668 1431 668 1506 l 668 1506"},"章":{"ha":1000,"x_min":50,"x_max":951,"o":"m 50 1071 l 50 1100 l 942 1100 l 942 1071 l 50 1071 m 484 931 l 484 1204 l 514 1204 l 514 931 l 484 931 m 795 1322 l 206 1322 l 206 1225 l 795 1225 l 795 1322 m 795 1446 l 206 1446 l 206 1351 l 795 1351 l 795 1446 m 177 1195 l 177 1475 l 824 1475 l 824 1195 l 177 1195 m 119 1705 l 119 1734 l 882 1734 l 882 1705 l 119 1705 m 50 1547 l 50 1576 l 951 1576 l 951 1547 l 50 1547 m 691 1697 l 691 1697 l 720 1683 q 700 1649 675.5 1612.5 q 651 1576 629 1550 l 629 1550 l 607 1562 q 621 1580 636.5 1604 q 652 1628 667 1653 q 682 1678 691 1697 m 283 1681 l 283 1681 l 308 1692 q 331 1664 350.5 1630 q 370 1596 379 1571 l 379 1571 l 352 1558 q 343 1584 324 1618.5 q 305 1653 283 1681 m 451 1835 l 451 1835 l 476 1846 q 499 1818 518.5 1784 q 538 1750 548 1724 l 548 1724 l 521 1712 q 511 1738 491 1772.5 q 471 1807 451 1835"},"分":{"ha":1000,"x_min":56,"x_max":949,"o":"m 180 1412 l 180 1441 l 784 1441 l 784 1412 l 180 1412 m 772 1434 l 772 1441 l 802 1441 q 802 1441 802 1437 q 802 1433 802 1428.5 q 802 1424 801 1421 l 801 1421 q 794 1303 787.5 1221 q 781 1139 773.5 1086 q 766 1033 756 1003.5 q 746 974 732 960 l 732 960 q 720 947 705.5 942.5 q 691 938 668 938 l 668 938 q 644 937 598.5 938.5 q 553 940 503 944 l 503 944 q 502 951 500 959 q 498 967 493 974 l 493 974 q 549 969 597 967.5 q 645 966 662 966 l 662 966 q 695 966 707 977 l 707 977 q 722 992 733.5 1039.5 q 745 1087 754.5 1182 q 764 1277 772 1434 l 772 1434 m 341 1803 l 341 1803 l 371 1795 q 338 1714 293 1641.5 q 248 1569 194.5 1508.5 q 141 1448 82 1402 l 82 1402 q 80 1405 75 1408.5 q 70 1412 65 1416 q 60 1420 56 1422 l 56 1422 q 117 1466 170.5 1525.5 q 224 1585 267.5 1655.5 q 311 1726 341 1803 m 632 1794 l 658 1805 q 682 1752 715.5 1697.5 q 749 1643 788 1593 q 827 1543 868.5 1502.5 q 910 1462 949 1435 l 949 1435 q 945 1432 940.5 1428 q 936 1424 932 1419.5 q 928 1415 925 1411 l 925 1411 q 886 1440 845 1483 q 804 1526 765 1577.5 q 726 1629 691.5 1684.5 q 657 1740 632 1794 l 632 1794 m 407 1434 l 407 1434 l 438 1434 q 428 1354 408.5 1278 q 389 1202 351.5 1134.5 q 314 1067 251 1014 q 188 961 90 927 l 90 927 q 88 930 85 934 q 82 938 78.5 941.5 q 75 945 72 948 l 72 948 q 168 980 229.5 1031.5 q 291 1083 327 1148 q 363 1213 380.5 1286 q 398 1359 407 1434"},"类":{"ha":1000,"x_min":60,"x_max":952,"o":"m 80 1597 l 80 1626 l 927 1626 l 927 1597 l 80 1597 m 78 1197 l 78 1227 l 925 1227 l 925 1197 l 78 1197 m 768 1807 l 768 1807 l 796 1793 q 771 1759 740 1722 q 709 1685 681 1659 l 681 1659 l 658 1671 q 676 1689 696 1713.5 q 716 1738 735.5 1763 q 755 1788 768 1807 m 482 1383 l 482 1829 l 512 1829 l 512 1383 l 482 1383 m 200 1789 l 200 1789 l 223 1804 q 257 1776 289.5 1738.5 q 322 1701 338 1672 l 338 1672 l 315 1655 q 299 1684 266.5 1722 q 234 1760 200 1789 m 490 1359 l 490 1359 l 522 1359 q 512 1290 494 1231.5 q 476 1173 444.5 1125 q 413 1077 364.5 1039.5 q 316 1002 245 974.5 q 174 947 76 930 l 76 930 q 75 933 72.5 938 q 70 943 66.5 947.5 q 63 952 60 955 l 60 955 q 156 972 225.5 998 q 295 1024 342 1060 q 389 1096 419 1141 q 449 1186 465.5 1240.5 q 482 1295 490 1359 m 460 1618 l 460 1618 l 483 1607 q 443 1547 379 1494.5 q 315 1442 239.5 1403 q 164 1364 87 1342 l 87 1342 q 85 1346 82 1350.5 q 79 1355 75.5 1359 q 72 1363 68 1366 l 68 1366 q 145 1386 220.5 1423 q 296 1460 358.5 1510.5 q 421 1561 460 1618 m 510 1210 l 537 1220 q 584 1112 693.5 1045 q 803 978 952 955 l 952 955 q 948 952 944 947 q 940 942 936.5 937 q 933 932 931 928 l 931 928 q 831 946 748 983 q 665 1020 604 1077 q 543 1134 510 1210 l 510 1210 m 489 1595 l 489 1595 l 504 1615 q 558 1588 615.5 1556 q 673 1524 728.5 1491 q 784 1458 832.5 1427.5 q 881 1397 916 1373 l 916 1373 l 901 1348 q 867 1373 818.5 1404.5 q 770 1436 714 1469.5 q 658 1503 600 1535.5 q 542 1568 489 1595"},"有":{"ha":1000,"x_min":55,"x_max":932,"o":"m 72 1663 l 72 1692 l 932 1692 l 932 1663 l 72 1663 m 291 1309 l 291 1338 l 795 1338 l 795 1309 l 291 1309 m 274 930 l 274 1510 l 789 1510 l 789 1480 l 303 1480 l 303 930 l 274 930 m 779 987 l 779 1510 l 809 1510 l 809 987 q 809 965 802 954.5 q 795 944 775 939 l 775 939 q 756 935 714.5 935 q 673 935 605 935 l 605 935 q 604 941 600 949.5 q 596 958 592 965 l 592 965 q 633 964 666 963.5 q 699 963 722.5 963.5 q 746 964 756 964 l 756 964 q 770 965 774.5 970 q 779 975 779 987 l 779 987 m 417 1830 l 417 1830 l 445 1822 q 412 1716 360.5 1612.5 q 309 1509 237 1419 q 165 1329 72 1262 l 72 1262 q 71 1266 67.5 1270 q 64 1274 61 1278 q 58 1282 55 1285 l 55 1285 q 123 1333 179.5 1395 q 236 1457 281.5 1528 q 327 1599 361 1675.5 q 395 1752 417 1830 m 291 1135 l 291 1165 l 795 1165 l 795 1135 l 291 1135"},"感":{"ha":1000,"x_min":58,"x_max":943,"o":"m 681 1809 l 681 1809 l 699 1830 q 739 1819 781 1799 q 823 1779 847 1760 l 847 1760 l 829 1734 q 805 1754 763 1775 q 721 1796 681 1809 m 157 1691 l 157 1720 l 943 1720 l 943 1691 l 157 1691 m 228 1575 l 228 1605 l 546 1605 l 546 1575 l 228 1575 m 832 1621 l 832 1621 l 861 1614 q 812 1484 730 1385 q 648 1286 547 1219 l 547 1219 q 545 1222 540 1225.5 q 535 1229 530.5 1233 q 526 1237 522 1239 l 522 1239 q 626 1303 706 1400.5 q 786 1498 832 1621 m 575 1831 l 575 1831 l 606 1831 q 611 1702 638 1593.5 q 665 1485 705 1405.5 q 745 1326 789.5 1282.5 q 834 1239 873 1239 l 873 1239 q 893 1240 902 1271 q 911 1302 914 1373 l 914 1373 q 919 1368 927 1364.5 q 935 1361 941 1359 l 941 1359 q 938 1303 930.5 1270.5 q 923 1238 909 1224 q 895 1210 872 1210 l 872 1210 q 823 1210 773.5 1258 q 724 1306 681 1391.5 q 638 1477 609.5 1589.5 q 581 1702 575 1831 m 142 1572 l 142 1720 l 172 1720 l 172 1572 q 172 1532 168.5 1485 q 165 1438 155 1388 q 145 1338 127.5 1289.5 q 110 1241 81 1199 l 81 1199 q 79 1203 74.5 1207 q 70 1211 66 1214.5 q 62 1218 58 1219 l 58 1219 q 95 1273 112.5 1335.5 q 130 1398 136 1459.5 q 142 1521 142 1572 l 142 1572 m 272 996 l 272 1183 l 301 1183 l 301 996 q 301 977 316.5 970.5 q 332 964 384 964 l 384 964 q 394 964 420.5 964 q 447 964 481.5 964 q 516 964 551 964 q 586 964 614.5 964 q 643 964 657 964 l 657 964 q 687 964 701 972.5 q 715 981 720.5 1007.5 q 726 1034 728 1088 l 728 1088 q 733 1085 738 1082.5 q 743 1080 748.5 1078.5 q 754 1077 759 1076 l 759 1076 q 756 1018 747.5 987.5 q 739 957 718.5 946 q 698 935 658 935 l 658 935 q 652 935 624.5 935 q 597 935 560 935 q 523 935 485.5 935 q 448 935 421 935 q 394 935 388 935 l 388 935 q 343 935 317.5 939 q 292 943 282 956.5 q 272 970 272 996 l 272 996 m 418 1206 l 418 1206 l 442 1220 q 468 1197 495 1168 q 522 1139 545.5 1111 q 569 1083 582 1061 l 582 1061 l 557 1044 q 543 1066 520.5 1094.5 q 498 1123 471.5 1152.5 q 445 1182 418 1206 m 775 1160 l 775 1160 l 802 1171 q 826 1144 848.5 1111 q 871 1078 889 1046 q 907 1014 917 989 l 917 989 l 889 977 q 879 1002 861 1034 q 843 1066 820.5 1099 q 798 1132 775 1160 m 170 1146 l 170 1146 l 193 1134 q 172 1095 144 1045 q 116 995 85 959 l 85 959 l 59 972 q 81 995 101.5 1026 q 122 1057 139.5 1089 q 157 1121 170 1146 m 491 1468 l 279 1468 l 279 1331 l 491 1331 l 491 1468 m 249 1302 l 249 1497 l 521 1497 l 521 1302 l 249 1302"},"实":{"ha":1000,"x_min":75,"x_max":931,"o":"m 545 1148 l 545 1148 l 562 1169 q 631 1139 698 1104 q 765 1069 823 1032 q 881 995 923 959 l 923 959 l 903 937 q 861 973 804 1009.5 q 747 1046 680.5 1081.5 q 614 1117 545 1148 m 448 1822 l 448 1822 l 476 1831 q 497 1800 518 1763 q 539 1726 549 1701 l 549 1701 l 521 1689 q 511 1715 490 1753 q 469 1791 448 1822 m 104 1520 l 104 1697 l 897 1697 l 897 1520 l 868 1520 l 868 1668 l 133 1668 l 133 1520 l 104 1520 m 523 1610 l 523 1610 l 553 1610 q 549 1494 539.5 1399.5 q 530 1305 505 1230 q 480 1155 432 1098 q 384 1041 304 1001 q 224 961 104 935 l 104 935 q 102 941 96.5 949 q 91 957 86 962 l 86 962 q 205 986 283 1024 q 361 1062 408 1116.5 q 455 1171 478.5 1243 q 502 1315 511 1406.5 q 520 1498 523 1610 m 75 1208 l 75 1237 l 931 1237 l 931 1208 l 75 1208 m 249 1568 l 249 1568 l 269 1586 q 297 1570 325.5 1549.5 q 354 1529 379 1508 q 404 1487 419 1469 l 419 1469 l 399 1447 q 384 1465 359 1486.5 q 334 1508 305.5 1529.5 q 277 1551 249 1568 m 151 1408 l 151 1408 l 171 1427 q 201 1411 232 1389.5 q 263 1368 290 1346 q 317 1324 333 1305 l 333 1305 l 314 1281 q 297 1301 270 1324 q 243 1347 212 1369 q 181 1391 151 1408"},"列":{"ha":1000,"x_min":74,"x_max":903,"o":"m 74 1739 l 74 1768 l 569 1768 l 569 1739 l 74 1739 m 270 1760 l 270 1760 l 299 1755 q 278 1663 248.5 1577.5 q 219 1492 182.5 1418.5 q 146 1345 102 1288 l 102 1288 q 100 1291 95 1294 q 90 1297 85 1300 q 80 1303 76 1305 l 76 1305 q 122 1360 158.5 1432 q 195 1504 223 1587.5 q 251 1671 270 1760 m 210 1516 l 219 1545 l 511 1545 l 511 1516 l 210 1516 m 499 1537 l 499 1545 l 505 1545 l 511 1547 l 528 1540 q 502 1370 441.5 1248 q 381 1126 297.5 1047.5 q 214 969 117 927 l 117 927 q 115 931 112 935.5 q 109 940 105.5 944 q 102 948 98 951 l 98 951 q 192 989 274 1065.5 q 356 1142 415.5 1259 q 475 1376 499 1537 l 499 1537 m 189 1321 l 189 1321 l 206 1341 q 242 1321 279 1296 q 316 1271 349 1246 q 382 1221 402 1200 l 402 1200 l 385 1175 q 364 1196 331.5 1222 q 299 1248 262 1274 q 225 1300 189 1321 m 667 1161 l 667 1704 l 696 1704 l 696 1161 l 667 1161 m 872 984 l 872 1831 l 903 1831 l 903 985 q 903 963 895 953 q 887 943 871 938 l 871 938 q 856 934 825 933.5 q 794 933 740 933 l 740 933 q 738 938 734.5 947 q 731 956 727 963 l 727 963 q 772 962 806.5 962 q 841 962 852 963 l 852 963 q 863 964 867.5 968 q 872 972 872 984 l 872 984"},"表":{"ha":1000,"x_min":51,"x_max":956,"o":"m 111 1696 l 111 1725 l 897 1725 l 897 1696 l 111 1696 m 163 1551 l 163 1580 l 847 1580 l 847 1551 l 163 1551 m 74 1399 l 74 1428 l 925 1428 l 925 1399 l 74 1399 m 483 1403 l 483 1831 l 513 1831 l 513 1403 l 483 1403 m 468 1421 l 468 1421 l 492 1407 q 456 1365 406 1325 q 356 1285 299 1249 q 242 1213 183.5 1184 q 125 1155 72 1136 l 72 1136 q 70 1140 66 1144.5 q 62 1149 58.5 1153.5 q 55 1158 51 1161 l 51 1161 q 105 1179 163.5 1206.5 q 222 1234 278.5 1268.5 q 335 1303 384 1342 q 433 1381 468 1421 m 494 1412 l 521 1421 q 557 1319 620 1234.5 q 683 1150 768 1089.5 q 853 1029 956 998 l 956 998 q 953 995 949 990.5 q 945 986 941.5 982 q 938 978 935 973 l 935 973 q 832 1007 746.5 1069.5 q 661 1132 597 1219 q 533 1306 494 1412 l 494 1412 m 862 1341 l 862 1341 l 886 1327 q 840 1283 781.5 1237 q 723 1191 672 1157 l 672 1157 l 651 1173 q 685 1195 724 1224.5 q 763 1254 799.5 1284.5 q 836 1315 862 1341 m 269 931 l 269 931 l 269 957 l 290 977 l 581 1071 q 581 1065 582.5 1058 q 584 1051 585 1046 l 585 1046 q 483 1011 422.5 990 q 362 969 331 958 q 300 947 287.5 941.5 q 275 936 269 931 m 269 931 l 269 931 q 268 935 265 940.5 q 262 946 259 951.5 q 256 957 253 961 l 253 961 q 261 965 270.5 975.5 q 280 986 280 1013 l 280 1013 l 280 1266 l 310 1266 l 310 967 q 310 967 306 964.5 q 302 962 296 958 q 290 954 283.5 949 q 277 944 273 939.5 q 269 935 269 931"},"接":{"ha":1000,"x_min":35,"x_max":955,"o":"m 47 1244 l 35 1275 q 88 1292 162 1318.5 q 236 1345 315 1374 l 315 1374 l 321 1343 q 248 1317 176 1291 q 104 1265 47 1244 l 47 1244 m 46 1587 l 46 1617 l 329 1617 l 329 1587 l 46 1587 m 181 975 l 181 1830 l 210 1830 l 210 976 q 210 957 203.5 948 q 197 939 184 935 l 184 935 q 172 931 148 930 q 124 929 83 930 l 83 930 q 82 935 78.5 943.5 q 75 952 71 958 l 71 958 q 105 957 130.5 957 q 156 957 164 958 l 164 958 q 181 958 181 975 l 181 975 m 384 1680 l 384 1710 l 915 1710 l 915 1680 l 384 1680 m 344 1443 l 344 1473 l 945 1473 l 945 1443 l 344 1443 m 463 1636 l 463 1636 l 484 1649 q 511 1617 536 1578 q 561 1539 573 1512 l 573 1512 l 551 1495 q 538 1524 513.5 1564 q 489 1604 463 1636 m 790 1650 l 790 1650 l 822 1641 q 797 1596 767.5 1545.5 q 738 1495 710 1460 l 710 1460 l 682 1469 q 701 1493 721 1525 q 741 1557 759.5 1590.5 q 778 1624 790 1650 m 332 1283 l 332 1313 l 955 1313 l 955 1283 l 332 1283 m 794 1302 l 794 1302 l 823 1292 q 805 1216 768 1156 q 731 1096 672 1052.5 q 613 1009 530 979.5 q 447 950 337 933 l 337 933 q 334 939 329.5 947 q 325 955 320 961 l 320 961 q 465 980 561.5 1022.5 q 658 1065 714 1134.5 q 770 1204 794 1302 m 444 1142 l 414 1144 q 443 1181 475.5 1230 q 508 1279 537.5 1331 q 567 1383 587 1429 l 587 1429 l 615 1424 q 594 1376 564 1323.5 q 534 1271 502.5 1223.5 q 471 1176 444 1142 l 444 1142 m 414 1144 l 414 1144 l 438 1166 q 503 1148 571 1123.5 q 639 1099 704.5 1070 q 770 1041 826.5 1011 q 883 981 924 951 l 924 951 l 898 927 q 859 956 803.5 986 q 748 1016 682.5 1045.5 q 617 1075 548 1100.5 q 479 1126 414 1144 m 573 1817 l 573 1817 l 599 1824 q 621 1796 641.5 1761 q 662 1726 672 1701 l 672 1701 l 643 1691 q 633 1717 613 1752.5 q 593 1788 573 1817"},"统":{"ha":1000,"x_min":47,"x_max":944,"o":"m 752 1558 l 752 1558 l 777 1571 q 804 1536 833.5 1496 q 863 1456 889 1419 q 915 1382 931 1355 l 931 1355 l 905 1338 q 889 1365 863.5 1403 q 838 1441 809 1482 q 780 1523 752 1558 m 418 1642 l 418 1671 l 939 1671 l 939 1642 l 418 1642 m 716 1009 l 716 1359 l 745 1359 l 745 1009 q 745 993 751 988.5 q 757 984 779 984 l 779 984 q 786 984 807 984 q 828 984 850.5 984 q 873 984 881 984 l 881 984 q 895 984 902 992.5 q 909 1001 912 1028 q 915 1055 916 1112 l 916 1112 q 921 1107 929 1103.5 q 937 1100 944 1098 l 944 1098 q 943 1041 938 1009.5 q 933 978 920.5 966 q 908 954 884 954 l 884 954 q 880 954 865 954 q 850 954 831 954 q 812 954 797 954 q 782 954 778 954 l 778 954 q 754 954 740.5 958 q 727 962 721.5 974 q 716 986 716 1009 l 716 1009 m 528 1357 l 528 1357 l 558 1357 q 555 1268 544.5 1200.5 q 534 1133 510.5 1084 q 487 1035 444.5 1000.5 q 402 966 334 942 l 334 942 q 332 946 329 950 q 326 954 322.5 958 q 319 962 315 964 l 315 964 q 380 986 421 1018.5 q 462 1051 484.5 1097.5 q 507 1144 516.5 1208 q 526 1272 528 1357 m 417 1367 l 417 1367 l 417 1392 l 444 1406 l 868 1441 q 868 1435 869 1427.5 q 870 1420 871 1415 l 871 1415 q 751 1404 672 1397 q 593 1390 544.5 1385 q 496 1380 470.5 1377 q 445 1374 434 1372 q 423 1370 417 1367 m 609 1822 l 609 1822 l 635 1831 q 655 1798 675 1758.5 q 695 1719 705 1693 l 705 1693 l 677 1680 q 667 1708 647.5 1748 q 628 1788 609 1822 m 417 1367 l 417 1367 q 416 1372 413 1378 q 410 1384 407 1390 q 404 1396 401 1399 l 401 1399 q 413 1402 428 1407.5 q 443 1413 455 1425 l 455 1425 q 466 1436 488.5 1465 q 511 1494 538 1530 q 565 1566 588.5 1599.5 q 612 1633 625 1652 l 625 1652 l 663 1652 q 647 1627 621.5 1591.5 q 596 1556 567.5 1518 q 539 1480 513 1446.5 q 487 1413 469 1392 l 469 1392 q 469 1392 463.5 1390.5 q 458 1389 450.5 1386.5 q 443 1384 435.5 1381 q 428 1378 422.5 1374.5 q 417 1371 417 1367 m 65 1195 l 65 1195 q 64 1199 62 1205.5 q 60 1212 58 1218.5 q 56 1225 54 1229 l 54 1229 q 67 1231 85.5 1250 q 104 1269 128 1297 l 128 1297 q 140 1311 165.5 1342.5 q 191 1374 223 1417.5 q 255 1461 288.5 1512 q 322 1563 350 1614 l 350 1614 l 380 1599 q 314 1491 241 1391 q 168 1291 94 1217 l 94 1217 l 94 1216 q 94 1216 89.5 1214 q 85 1212 79.5 1209 q 74 1206 69.5 1202.5 q 65 1199 65 1195 m 65 1195 l 65 1195 l 65 1223 l 88 1239 l 361 1292 q 361 1286 362 1278.5 q 363 1271 364 1266 l 364 1266 q 268 1246 210.5 1233.5 q 153 1221 124 1214 q 95 1207 83 1203 q 71 1199 65 1195 m 59 1432 l 59 1432 q 58 1436 56 1442.5 q 54 1449 52 1456 q 50 1463 47 1467 l 47 1467 q 59 1469 74 1486.5 q 89 1504 106 1531 l 106 1531 q 116 1544 135 1574 q 154 1604 177.5 1645.5 q 201 1687 225.5 1734 q 250 1781 269 1828 l 269 1828 l 300 1814 q 269 1748 234 1683.5 q 199 1619 162 1560.5 q 125 1502 87 1455 l 87 1455 l 87 1454 q 87 1454 83 1452 q 79 1450 73 1446.5 q 67 1443 63 1439.5 q 59 1436 59 1432 m 59 1432 l 59 1432 l 59 1460 l 82 1474 l 289 1500 q 288 1494 288 1486 q 288 1478 289 1473 l 289 1473 q 217 1462 173.5 1455 q 130 1448 107 1444 q 84 1440 74 1437.5 q 64 1435 59 1432 m 56 1008 l 49 1038 q 89 1047 139 1058.5 q 189 1070 245.5 1083.5 q 302 1097 361 1111 l 361 1111 l 363 1082 q 280 1063 199 1043.5 q 118 1024 56 1008 l 56 1008"},"响":{"ha":1000,"x_min":84,"x_max":922,"o":"m 95 1698 l 95 1727 l 308 1727 l 308 1199 l 95 1199 l 95 1229 l 279 1229 l 279 1698 l 95 1698 m 84 1096 l 84 1727 l 114 1727 l 114 1096 l 84 1096 m 893 985 l 893 1658 l 922 1658 l 922 985 q 922 967 916.5 957.5 q 911 948 897 943 l 897 943 q 883 939 854 937.5 q 825 936 780 937 l 780 937 q 779 943 775.5 952.5 q 772 962 769 969 l 769 969 q 807 968 836.5 967.5 q 866 967 876 968 l 876 968 q 886 969 889.5 972 q 893 975 893 985 l 893 985 m 406 937 l 406 1658 l 911 1658 l 911 1628 l 435 1628 l 435 937 l 406 937 m 547 1105 l 547 1480 l 576 1480 l 576 1105 l 547 1105 m 564 1451 l 564 1480 l 779 1480 l 779 1165 l 564 1165 l 564 1194 l 750 1194 l 750 1451 l 564 1451 m 658 1833 l 658 1833 l 689 1822 q 672 1777 650.5 1723.5 q 629 1670 610 1634 l 610 1634 l 584 1644 q 597 1669 611 1702.5 q 625 1736 637.5 1770.5 q 650 1805 658 1833"},"应":{"ha":1000,"x_min":45,"x_max":948,"o":"m 146 1660 l 146 1689 l 932 1689 l 932 1660 l 146 1660 m 133 1413 l 133 1689 l 163 1689 l 163 1413 q 163 1359 159.5 1296.5 q 156 1234 146.5 1168.5 q 137 1103 118.5 1040.5 q 100 978 70 924 l 70 924 q 68 927 63 930 q 58 933 53.5 936 q 49 939 45 940 l 45 940 q 75 993 92.5 1053.5 q 110 1114 119 1177 q 128 1240 130.5 1300.5 q 133 1361 133 1413 l 133 1413 m 481 1823 l 481 1823 l 507 1834 q 527 1805 546.5 1770.5 q 566 1736 576 1713 l 576 1713 l 549 1700 q 539 1725 519.5 1760 q 500 1795 481 1823 m 269 1491 l 269 1491 l 294 1503 q 316 1449 338.5 1387 q 361 1325 379.5 1266 q 398 1207 408 1161 l 408 1161 l 380 1148 q 370 1195 352 1254 q 334 1313 312 1375 q 290 1437 269 1491 m 505 1540 l 505 1540 l 531 1551 q 549 1496 566 1434.5 q 583 1373 597 1314 q 611 1255 618 1208 l 618 1208 l 590 1198 q 583 1245 569 1304 q 555 1363 538.5 1424.5 q 522 1486 505 1540 m 844 1559 l 844 1559 l 873 1544 q 848 1453 813 1357.5 q 778 1262 735 1168.5 q 692 1075 642 990 l 642 990 q 638 994 632.5 998.5 q 627 1003 622 1007 l 622 1007 q 671 1089 714 1182.5 q 757 1276 790.5 1372.5 q 824 1469 844 1559 m 202 984 l 202 1014 l 948 1014 l 948 984 l 202 984"},"错":{"ha":1000,"x_min":55,"x_max":951,"o":"m 192 1827 l 192 1827 l 221 1820 q 205 1770 182.5 1721.5 q 160 1673 133 1630 q 106 1587 77 1553 l 77 1553 q 75 1556 71 1560.5 q 67 1565 63 1569.5 q 59 1574 55 1576 l 55 1576 q 99 1623 134.5 1689 q 170 1755 192 1827 m 144 1670 l 150 1699 l 398 1699 l 398 1670 l 144 1670 m 203 951 l 203 951 l 202 982 l 220 1005 l 381 1098 q 383 1092 386 1085.5 q 389 1079 391 1074 l 391 1074 q 332 1038 296.5 1016.5 q 261 995 242.5 982.5 q 224 970 216 963 q 208 956 203 951 m 107 1500 l 107 1529 l 381 1529 l 381 1500 l 107 1500 m 70 1297 l 70 1327 l 406 1327 l 406 1297 l 70 1297 m 203 951 l 203 951 q 201 955 197.5 960 q 194 965 190 970 q 186 975 182 978 l 182 978 q 193 984 210 1003.5 q 227 1023 227 1054 l 227 1054 l 227 1518 l 256 1518 l 256 1009 q 256 1009 248 1002.5 q 240 996 229.5 986 q 219 976 211 966.5 q 203 957 203 951 m 452 1654 l 452 1683 l 929 1683 l 929 1654 l 452 1654 m 426 1456 l 426 1485 l 951 1485 l 951 1456 l 426 1456 m 497 1154 l 497 1183 l 860 1183 l 860 1154 l 497 1154 m 497 981 l 497 1010 l 860 1010 l 860 981 l 497 981 m 481 933 l 481 1351 l 873 1351 l 873 936 l 844 936 l 844 1322 l 511 1322 l 511 933 l 481 933 m 558 1470 l 558 1831 l 587 1831 l 587 1470 l 558 1470 m 766 1470 l 766 1831 l 795 1831 l 795 1470 l 766 1470"},"误":{"ha":1000,"x_min":54,"x_max":954,"o":"m 850 1752 l 473 1752 l 473 1566 l 850 1566 l 850 1752 m 443 1536 l 443 1781 l 879 1781 l 879 1536 l 443 1536 m 410 1387 l 410 1417 l 914 1417 l 914 1387 l 410 1387 m 371 1212 l 371 1241 l 954 1241 l 954 1212 l 371 1212 m 633 1220 l 660 1227 q 693 1122 768.5 1050.5 q 844 979 953 950 l 953 950 q 950 947 946 943 q 942 939 938.5 934.5 q 935 930 933 925 l 933 925 q 822 960 745 1035 q 668 1110 633 1220 l 633 1220 m 644 1408 l 644 1408 l 673 1408 q 668 1308 653 1231 q 638 1154 604.5 1096 q 571 1038 511 997.5 q 451 957 356 931 l 356 931 q 355 934 351.5 938.5 q 348 943 344.5 947.5 q 341 952 337 954 l 337 954 q 430 979 488.5 1017.5 q 547 1056 579 1111 q 611 1166 625 1240 q 639 1314 644 1408 m 118 1772 l 118 1772 l 138 1791 q 165 1769 193 1742.5 q 221 1716 245.5 1690.5 q 270 1665 284 1645 l 284 1645 l 264 1621 q 248 1642 224 1668 q 200 1694 172.5 1721.5 q 145 1749 118 1772 m 54 1481 l 54 1511 l 231 1511 l 231 1481 l 54 1481 m 204 977 l 204 977 l 203 1008 l 220 1033 l 383 1140 q 385 1135 389 1128.5 q 393 1122 395 1117 l 395 1117 q 335 1076 299 1050.5 q 263 1025 244 1011 q 225 997 217 990 q 209 983 204 977 m 204 977 l 204 977 q 203 981 200 986.5 q 197 992 193.5 997.5 q 190 1003 187 1007 l 187 1007 q 195 1011 204 1022 q 213 1033 213 1061 l 213 1061 l 213 1511 l 242 1511 l 242 1015 q 242 1015 236.5 1011 q 231 1007 223 1001 q 215 995 209.5 988.5 q 204 982 204 977"},"节":{"ha":1000,"x_min":61,"x_max":939,"o":"m 797 1131 l 797 1481 l 826 1481 l 826 1132 q 826 1111 819.5 1100.5 q 813 1090 793 1085 l 793 1085 q 773 1081 728.5 1080.5 q 684 1080 612 1080 l 612 1080 q 611 1087 607 1095 q 603 1103 599 1110 l 599 1110 q 644 1109 679.5 1108.5 q 715 1108 739 1108.5 q 763 1109 773 1110 l 773 1110 q 788 1111 792.5 1115.5 q 797 1120 797 1131 l 797 1131 m 389 931 l 389 1469 l 419 1469 l 419 931 l 389 931 m 101 1452 l 101 1481 l 808 1481 l 808 1452 l 101 1452 m 61 1673 l 61 1703 l 939 1703 l 939 1673 l 61 1673 m 314 1540 l 314 1831 l 343 1831 l 343 1540 l 314 1540 m 652 1540 l 652 1831 l 681 1831 l 681 1540 l 652 1540"},"与":{"ha":1000,"x_min":66,"x_max":868,"o":"m 194 1392 l 194 1422 l 848 1422 l 848 1392 l 194 1392 m 250 1646 l 250 1675 l 864 1675 l 864 1646 l 250 1646 m 66 1185 l 66 1215 l 688 1215 l 688 1185 l 66 1185 m 837 1415 l 837 1422 l 868 1422 q 868 1422 867.5 1418.5 q 867 1415 867 1410 q 867 1405 866 1402 l 866 1402 q 850 1258 834.5 1168 q 819 1078 801.5 1030 q 784 982 762 962 l 762 962 q 748 949 732.5 945 q 717 941 692 940 l 692 940 q 669 940 621.5 942 q 574 944 521 948 l 521 948 q 520 955 518 963 q 516 971 511 977 l 511 977 q 569 972 618.5 970.5 q 668 969 687 969 l 687 969 q 707 969 718 971 q 729 973 737 980 l 737 980 q 758 998 775 1045.5 q 792 1093 807 1182.5 q 822 1272 837 1415 l 837 1415 m 273 1803 l 273 1803 l 301 1799 q 291 1751 279 1696 q 267 1641 253.5 1585 q 240 1529 227.5 1479.5 q 215 1430 204 1392 l 204 1392 l 173 1392 q 185 1431 198 1482 q 211 1533 224.5 1589.5 q 238 1646 250.5 1701 q 263 1756 273 1803"},"边":{"ha":1000,"x_min":39,"x_max":963,"o":"m 344 1610 l 344 1639 l 889 1639 l 889 1610 l 344 1610 m 876 1631 l 876 1639 l 906 1639 q 906 1639 906 1635 q 906 1631 906 1626 q 906 1621 906 1618 l 906 1618 q 899 1485 891.5 1393.5 q 884 1302 875.5 1244 q 867 1186 857 1153.5 q 847 1121 834 1107 l 834 1107 q 823 1094 809 1089 q 795 1084 773 1084 l 773 1084 q 753 1083 715 1084.5 q 677 1086 636 1089 l 636 1089 q 635 1096 633 1104 q 631 1112 626 1119 l 626 1119 q 673 1115 713 1114 q 753 1113 769 1113 l 769 1113 q 783 1112 792.5 1114.5 q 802 1117 809 1125 l 809 1125 q 820 1137 829.5 1168.5 q 839 1200 847 1258.5 q 855 1317 862.5 1408.5 q 870 1500 876 1631 l 876 1631 m 573 1810 l 573 1810 l 602 1810 q 599 1686 590.5 1577 q 582 1468 557 1376 q 532 1284 480.5 1212.5 q 429 1141 341 1093 l 341 1093 q 337 1098 330.5 1104 q 324 1110 318 1114 l 318 1114 q 405 1159 455.5 1228.5 q 506 1298 530.5 1388 q 555 1478 563 1584.5 q 571 1691 573 1810 m 50 1484 l 229 1484 l 229 1080 l 199 1080 l 199 1455 l 50 1455 l 50 1484 m 93 1789 l 93 1789 l 115 1804 q 145 1779 176.5 1749.5 q 208 1720 235.5 1691 q 263 1662 280 1640 l 280 1640 l 258 1621 q 241 1644 213.5 1673.5 q 186 1703 154.5 1733.5 q 123 1764 93 1789 m 211 1099 l 211 1099 q 235 1099 256.5 1078 q 278 1057 321 1027 l 321 1027 q 370 993 433.5 983.5 q 497 974 586 974 l 586 974 q 638 974 689.5 975.5 q 741 977 790 979 q 839 981 883 983.5 q 927 986 963 988 l 963 988 q 961 985 959 979 q 957 973 955.5 966 q 954 959 953 953 l 953 953 q 927 952 880.5 950 q 834 948 779.5 946.5 q 725 945 673.5 944 q 622 943 586 943 l 586 943 q 489 943 422.5 954.5 q 356 966 303 1003 l 303 1003 q 275 1025 251 1048 q 227 1071 211 1071 l 211 1071 q 194 1071 171 1053.5 q 148 1036 121.5 1005.5 q 95 975 64 935 l 64 935 l 39 959 q 89 1018 131.5 1058.5 q 174 1099 211 1099"},"构":{"ha":1000,"x_min":44,"x_max":927,"o":"m 530 1831 l 530 1831 l 560 1825 q 543 1753 519 1685 q 495 1617 465.5 1558.5 q 436 1500 401 1454 l 401 1454 q 398 1456 393 1459.5 q 388 1463 383 1466 q 378 1469 374 1471 l 374 1471 q 410 1515 439 1572.5 q 468 1630 491 1696 q 514 1762 530 1831 m 485 1632 l 497 1662 l 913 1662 l 913 1632 l 485 1632 m 898 1653 l 898 1662 l 927 1662 q 927 1662 927 1657.5 q 927 1653 927 1647.5 q 927 1642 927 1639 l 927 1639 q 921 1456 915 1332.5 q 909 1209 901 1132 q 893 1055 883 1014 q 873 973 859 956 l 859 956 q 848 941 833.5 936 q 819 931 799 930 l 799 930 q 779 929 746 930 q 713 931 678 934 l 678 934 q 677 941 675 949 q 673 957 669 964 l 669 964 q 711 960 746 959.5 q 781 959 795 959 l 795 959 q 809 958 817 960.5 q 825 963 832 973 l 832 973 q 844 987 854 1028.5 q 864 1070 871.5 1148 q 879 1226 885.5 1350 q 892 1474 898 1653 l 898 1653 m 438 1162 l 438 1162 l 438 1187 l 461 1202 l 737 1252 q 739 1246 741 1239 q 743 1232 744 1229 l 744 1229 q 645 1210 586.5 1198 q 528 1186 498 1179.5 q 468 1173 456 1169 q 444 1165 438 1162 m 438 1162 l 438 1162 q 438 1166 436 1171.5 q 434 1177 432 1183 q 430 1189 428 1193 l 428 1193 q 438 1195 448.5 1213 q 459 1231 472 1256 l 472 1256 q 478 1269 491 1298 q 504 1327 520 1367 q 536 1407 551 1452 q 566 1497 577 1542 l 577 1542 l 608 1534 q 589 1470 566 1407 q 543 1344 517.5 1287 q 492 1230 465 1183 l 465 1183 l 465 1182 q 465 1182 461 1180.5 q 457 1179 451.5 1176 q 446 1173 442 1169.5 q 438 1166 438 1162 m 655 1399 l 655 1399 l 678 1407 q 700 1367 720.5 1321 q 741 1275 757 1232 q 773 1189 780 1157 l 780 1157 l 756 1146 q 748 1179 732 1222.5 q 716 1266 696 1312.5 q 676 1359 655 1399 m 60 1602 l 60 1631 l 391 1631 l 391 1602 l 60 1602 m 226 932 l 226 1831 l 255 1831 l 255 932 l 226 932 m 224 1623 l 224 1623 l 250 1616 q 237 1556 217 1491.5 q 197 1427 172.5 1364.5 q 148 1302 121 1248.5 q 94 1195 67 1158 l 67 1158 q 65 1162 61 1166.5 q 57 1171 52.5 1175 q 48 1179 44 1181 l 44 1181 q 71 1216 97.5 1267 q 124 1318 148.5 1378 q 173 1438 192.5 1501 q 212 1564 224 1623 m 232 1531 l 251 1546 q 259 1536 276.5 1510.5 q 294 1485 313.5 1455 q 333 1425 350 1399 q 367 1373 374 1362 l 374 1362 l 352 1335 q 344 1350 327.5 1378 q 311 1406 292.5 1437 q 274 1468 257.5 1493.5 q 241 1519 232 1531 l 232 1531"},"世":{"ha":1000,"x_min":58,"x_max":945,"o":"m 58 1541 l 58 1571 l 945 1571 l 945 1541 l 58 1541 m 214 1006 l 214 1806 l 246 1806 l 246 1035 l 914 1035 l 914 1006 l 214 1006 m 475 1206 l 475 1829 l 504 1829 l 504 1235 l 749 1235 l 749 1817 l 778 1817 l 778 1206 l 475 1206"},"界":{"ha":1000,"x_min":57,"x_max":950,"o":"m 799 1598 l 198 1598 l 198 1453 l 799 1453 l 799 1598 m 799 1770 l 198 1770 l 198 1627 l 799 1627 l 799 1770 m 169 1424 l 169 1800 l 828 1800 l 828 1424 l 169 1424 m 557 1432 l 583 1444 q 621 1392 680 1346.5 q 739 1301 809.5 1266.5 q 880 1232 950 1213 l 950 1213 q 947 1210 943 1205 q 939 1200 935.5 1195.5 q 932 1191 929 1187 l 929 1187 q 860 1209 788.5 1245.5 q 717 1282 656.5 1330 q 596 1378 557 1432 l 557 1432 m 424 1443 l 424 1443 l 449 1430 q 409 1377 347.5 1329 q 286 1281 215.5 1243.5 q 145 1206 78 1182 l 78 1182 q 76 1187 72.5 1191.5 q 69 1196 65 1200.5 q 61 1205 57 1208 l 57 1208 q 125 1228 194.5 1264 q 264 1300 324.5 1346 q 385 1392 424 1443 m 329 1219 l 329 1273 l 358 1273 l 358 1219 q 358 1183 351.5 1144.5 q 345 1106 324.5 1067.5 q 304 1029 262.5 992.5 q 221 956 150 925 l 150 925 q 148 929 144 933 q 140 937 136.5 940.5 q 133 944 129 947 l 129 947 q 198 976 238.5 1010 q 279 1044 298.5 1080 q 318 1116 323.5 1151.5 q 329 1187 329 1219 l 329 1219 m 482 1433 l 482 1782 l 512 1782 l 512 1433 l 482 1433 m 660 931 l 660 1275 l 689 1275 l 689 931 l 660 931"},"我":{"ha":1000,"x_min":51,"x_max":952,"o":"m 703 1788 l 703 1788 l 727 1805 q 758 1779 791 1747 q 824 1715 853 1684.5 q 882 1654 900 1631 l 900 1631 l 874 1611 q 857 1635 828.5 1666 q 800 1697 767.5 1729 q 735 1761 703 1788 m 62 1494 l 62 1523 l 940 1523 l 940 1494 l 62 1494 m 65 1189 l 51 1219 q 109 1232 187.5 1251 q 266 1270 354.5 1291.5 q 443 1313 531 1335 l 531 1335 l 534 1309 q 451 1288 366.5 1266 q 282 1244 204.5 1224.5 q 127 1205 65 1189 l 65 1189 m 301 982 l 301 1750 l 330 1750 l 330 983 q 330 958 322 947.5 q 314 937 296 933 l 296 933 q 279 929 241.5 928 q 204 927 141 928 l 141 928 q 140 932 138 937 q 136 942 133.5 948 q 131 954 129 958 l 129 958 q 182 957 223.5 957 q 265 957 278 958 l 278 958 q 291 959 296 964 q 301 969 301 982 l 301 982 m 476 1813 l 476 1813 l 501 1789 q 450 1769 381 1751 q 312 1733 236.5 1717.5 q 161 1702 90 1690 l 90 1690 q 89 1695 86 1702 q 83 1709 79 1715 l 79 1715 q 149 1727 224 1743 q 299 1759 365.5 1777 q 432 1795 476 1813 m 578 1822 l 578 1822 l 609 1822 q 610 1668 622.5 1535 q 635 1402 658 1295.5 q 681 1189 713 1113 q 745 1037 784.5 997 q 824 957 870 957 l 870 957 q 896 957 907.5 1001.5 q 919 1046 923 1150 l 923 1150 q 928 1146 936.5 1142 q 945 1138 952 1136 l 952 1136 q 948 1059 939.5 1013 q 931 967 914.5 947 q 898 927 868 927 l 868 927 q 822 927 783 958 q 744 989 712 1047 q 680 1105 656 1185.5 q 632 1266 615 1366 q 598 1466 589 1581 q 580 1696 578 1822 m 849 1435 l 849 1435 l 876 1424 q 830 1334 761.5 1249 q 693 1164 608.5 1093 q 524 1022 430 973 l 430 973 q 426 978 419.5 984.5 q 413 991 407 995 l 407 995 q 500 1042 584 1112 q 668 1182 736 1265.5 q 804 1349 849 1435"},"们":{"ha":1000,"x_min":48,"x_max":910,"o":"m 578 1761 l 578 1790 l 892 1790 l 892 1761 l 578 1761 m 879 988 l 879 1790 l 910 1790 l 910 988 q 910 965 902 953.5 q 894 942 876 937 l 876 937 q 859 933 821.5 932.5 q 784 932 725 932 l 725 932 q 724 938 720.5 948 q 717 958 713 965 l 713 965 q 764 964 804 964 q 844 964 857 965 l 857 965 q 869 966 874 970.5 q 879 975 879 988 l 879 988 m 402 1818 l 402 1818 l 427 1828 q 450 1798 472.5 1762 q 495 1726 514 1692 q 533 1658 544 1633 l 544 1633 l 518 1621 q 507 1646 488 1680.5 q 469 1715 446.5 1751 q 424 1787 402 1818 m 361 929 l 361 1648 l 390 1648 l 390 929 l 361 929 m 248 1822 l 248 1822 l 277 1816 q 253 1731 221 1650 q 189 1569 151 1497.5 q 113 1426 71 1369 l 71 1369 q 69 1372 64.5 1376.5 q 60 1381 56 1385 q 52 1389 48 1392 l 48 1392 q 90 1446 127 1515.5 q 164 1585 195 1663.5 q 226 1742 248 1822 m 171 930 l 171 1595 l 199 1623 l 200 1621 l 200 930 l 171 930"},"毛":{"ha":1000,"x_min":70,"x_max":951,"o":"m 423 1045 l 423 1708 l 452 1708 l 452 1043 q 452 1018 459 1004 q 466 990 485.5 984 q 505 978 542 978 l 542 978 q 553 978 581.5 978 q 610 978 648 978 q 686 978 724.5 978 q 763 978 794.5 978 q 826 978 841 978 l 841 978 q 873 978 888.5 990.5 q 904 1003 910.5 1036 q 917 1069 920 1130 l 920 1130 q 927 1125 935.5 1121 q 944 1117 951 1115 l 951 1115 q 947 1052 938 1015.5 q 929 979 906 963.5 q 883 948 837 948 l 837 948 q 830 948 801 948 q 772 948 732 948 q 692 948 651.5 948 q 611 948 582 948 q 553 948 546 948 l 546 948 q 499 948 472 956 q 445 964 434 985 q 423 1006 423 1045 l 423 1045 m 779 1818 l 779 1818 l 809 1796 q 746 1771 663 1748 q 580 1725 484.5 1705.5 q 389 1686 289.5 1670 q 190 1654 95 1641 l 95 1641 q 95 1645 93.5 1649 q 92 1653 90 1658 q 88 1663 86 1666 l 86 1666 q 179 1679 278 1695.5 q 377 1712 471 1731.5 q 565 1751 644.5 1772.5 q 724 1794 779 1818 m 103 1426 l 98 1454 l 855 1562 l 860 1534 l 103 1426 m 75 1196 l 70 1224 l 928 1339 l 933 1311 l 75 1196"},"玻":{"ha":1000,"x_min":50,"x_max":963,"o":"m 60 1723 l 60 1753 l 347 1753 l 347 1723 l 60 1723 m 68 1432 l 68 1462 l 325 1462 l 325 1432 l 68 1432 m 61 1045 l 50 1076 q 88 1090 135.5 1109 q 183 1128 237.5 1150 q 292 1172 347 1194 l 347 1194 l 353 1165 q 275 1134 198 1102.5 q 121 1071 61 1045 l 61 1045 m 195 1116 l 195 1735 l 225 1735 l 225 1127 l 195 1116 m 420 1641 l 420 1670 l 915 1670 l 915 1641 l 420 1641 m 908 1664 l 908 1670 l 915 1670 l 920 1672 l 941 1664 q 925 1616 908 1564 q 891 1512 876 1477 l 876 1477 l 849 1485 q 863 1519 879.5 1569 q 896 1619 908 1664 l 908 1664 m 641 1407 l 641 1830 l 671 1830 l 671 1407 l 641 1407 m 402 1415 l 402 1670 l 431 1670 l 431 1414 q 431 1361 427 1300.5 q 423 1240 411.5 1176.5 q 400 1113 377.5 1052.5 q 355 992 318 939 l 318 939 q 316 943 312 946.5 q 308 950 303.5 953.5 q 299 957 295 959 l 295 959 q 331 1010 352 1068 q 373 1126 384 1186.5 q 395 1247 398.5 1305.5 q 402 1364 402 1415 l 402 1415 m 423 1402 l 423 1431 l 860 1431 l 860 1402 l 423 1402 m 852 1424 l 852 1431 l 858 1431 l 865 1433 l 883 1424 q 846 1291 773.5 1193 q 701 1095 607.5 1030 q 514 965 415 930 l 415 930 q 412 935 406.5 943 q 401 951 396 955 l 396 955 q 468 979 538 1020.5 q 608 1062 670 1120.5 q 732 1179 779 1255 q 826 1331 852 1424 l 852 1424 m 468 1414 l 494 1423 q 551 1251 670.5 1129.5 q 790 1008 963 959 l 963 959 q 960 956 956 951.5 q 952 947 948.5 942.5 q 945 938 942 934 l 942 934 q 770 987 648.5 1112 q 527 1237 468 1414 l 468 1414"},"璃":{"ha":1000,"x_min":43,"x_max":939,"o":"m 356 1698 l 356 1727 l 939 1727 l 939 1698 l 356 1698 m 889 982 l 889 1286 l 919 1286 l 919 982 q 919 965 914 956 q 909 947 894 942 l 894 942 q 878 938 847 937 q 816 936 765 936 l 765 936 q 764 943 760 951 q 756 959 752 966 l 752 966 q 798 965 830 965 q 862 965 872 966 l 872 966 q 883 966 886 969.5 q 889 973 889 982 l 889 982 m 705 1206 l 705 1206 l 729 1218 q 750 1192 771.5 1161 q 793 1130 811 1101 q 829 1072 839 1050 l 839 1050 l 814 1034 q 803 1057 785 1086.5 q 767 1116 746.5 1147.5 q 726 1179 705 1206 m 509 1638 l 509 1638 l 529 1655 q 576 1625 627.5 1589.5 q 679 1554 726 1520.5 q 773 1487 804 1461 l 804 1461 l 783 1440 q 752 1466 705.5 1500.5 q 659 1535 607.5 1571.5 q 556 1608 509 1638 m 385 930 l 385 1286 l 904 1286 l 904 1257 l 415 1257 l 415 930 l 385 930 m 427 1376 l 427 1654 l 456 1654 l 456 1406 l 844 1406 l 844 1654 l 873 1654 l 873 1376 l 427 1376 m 770 1663 l 770 1663 l 796 1652 q 759 1610 710 1568.5 q 661 1527 608.5 1491 q 556 1455 506 1427 l 506 1427 q 503 1432 496.5 1440.5 q 490 1449 485 1453 l 485 1453 q 535 1478 587.5 1511.5 q 640 1545 687.5 1584 q 735 1623 770 1663 m 49 1713 l 49 1742 l 328 1742 l 328 1713 l 49 1713 m 63 1432 l 63 1462 l 306 1462 l 306 1432 l 63 1432 m 58 1073 l 43 1101 q 99 1118 177.5 1143.5 q 256 1169 337 1197 l 337 1197 l 342 1170 q 267 1143 192.5 1118 q 118 1093 58 1073 l 58 1073 m 181 1128 l 181 1730 l 211 1730 l 211 1139 l 181 1128 m 478 1055 l 478 1055 q 477 1059 475.5 1065 q 474 1071 472 1077.5 q 470 1084 468 1087 l 468 1087 q 479 1089 490.5 1104.5 q 502 1120 516 1142 l 516 1142 q 526 1157 548 1197 q 570 1237 595 1290 q 620 1343 638 1397 l 638 1397 l 668 1384 q 645 1328 618.5 1272.5 q 592 1217 564 1167 q 536 1117 506 1077 l 506 1077 l 506 1076 q 506 1076 502 1074 q 498 1072 492 1069 q 486 1066 482 1062.5 q 478 1059 478 1055 m 478 1055 l 478 1055 l 478 1082 l 503 1096 l 782 1131 q 784 1125 787 1117 q 790 1109 792 1104 l 792 1104 q 692 1091 632 1082.5 q 572 1074 540.5 1069 q 509 1064 496.5 1061 q 484 1058 478 1055 m 601 1824 l 601 1824 l 629 1830 q 644 1803 659.5 1770 q 675 1737 682 1715 l 682 1715 l 653 1706 q 645 1729 630.5 1762.5 q 616 1796 601 1824"},"后":{"ha":1000,"x_min":44,"x_max":941,"o":"m 178 1522 l 178 1551 l 941 1551 l 941 1522 l 178 1522 m 325 985 l 325 1015 l 850 1015 l 850 985 l 325 985 m 835 1817 l 835 1817 l 864 1793 q 801 1779 719 1766 q 637 1753 544.5 1742.5 q 452 1732 357 1723.5 q 262 1715 172 1709 l 172 1709 q 171 1715 168.5 1722 q 166 1729 163 1734 l 163 1734 q 252 1740 346.5 1749 q 441 1758 532 1768.5 q 623 1779 701.5 1791.5 q 780 1804 835 1817 m 307 928 l 307 1346 l 861 1346 l 861 928 l 831 928 l 831 1317 l 336 1317 l 336 928 l 307 928 m 163 1492 l 163 1734 l 192 1734 l 192 1492 q 192 1431 188 1359 q 184 1287 171.5 1212 q 159 1137 134 1064 q 109 991 68 928 l 68 928 q 66 932 61.5 936 q 57 940 52.5 943.5 q 48 947 44 949 l 44 949 q 84 1010 108 1079.5 q 132 1149 143.5 1221.5 q 155 1294 159 1363 q 163 1432 163 1492 l 163 1492"},"阅":{"ha":1000,"x_min":111,"x_max":887,"o":"m 679 1468 l 317 1468 l 317 1317 l 679 1317 l 679 1468 m 287 1287 l 287 1497 l 709 1497 l 709 1287 l 287 1287 m 416 1300 l 416 1300 l 446 1300 q 439 1224 418.5 1167 q 398 1110 356.5 1069.5 q 315 1029 244 1003 l 244 1003 q 242 1007 238.5 1011.5 q 235 1016 231.5 1020.5 q 228 1025 224 1027 l 224 1027 q 293 1050 332.5 1087.5 q 372 1125 391 1178 q 410 1231 416 1300 m 635 1671 l 635 1671 l 666 1661 q 642 1617 613.5 1568 q 585 1519 559 1483 l 559 1483 l 531 1494 q 549 1518 568.5 1549.5 q 588 1581 605.5 1613.5 q 623 1646 635 1671 m 337 1654 l 337 1654 l 363 1667 q 391 1635 416 1596 q 441 1557 451 1527 l 451 1527 l 425 1513 q 414 1542 389.5 1582 q 365 1622 337 1654 m 858 990 l 858 1768 l 887 1768 l 887 990 q 887 971 881 960.5 q 875 950 861 945 l 861 945 q 846 941 817 940 q 788 939 743 939 l 743 939 q 741 946 737.5 955.5 q 734 965 730 972 l 730 972 q 769 971 799.5 971 q 830 971 840 972 l 840 972 q 851 973 854.5 976.5 q 858 980 858 990 l 858 990 m 111 928 l 111 1621 l 140 1621 l 140 928 l 111 928 m 126 1797 l 126 1797 l 149 1812 q 171 1794 193 1772 q 215 1750 234 1729 q 253 1708 265 1691 l 265 1691 l 240 1672 q 229 1690 210 1712 q 191 1734 169.5 1756.5 q 148 1779 126 1797 m 364 1738 l 364 1768 l 876 1768 l 876 1738 l 364 1738 m 552 1085 l 552 1302 l 581 1302 l 581 1085 q 581 1072 587.5 1067.5 q 594 1063 617 1063 l 617 1063 q 624 1063 646.5 1063 q 669 1063 693 1063 q 717 1063 726 1063 l 726 1063 q 739 1063 745.5 1069.5 q 752 1076 755 1096 q 758 1116 759 1159 l 759 1159 q 764 1155 771.5 1151.5 q 779 1148 786 1146 l 786 1146 q 785 1101 780 1077 q 775 1053 763.5 1044 q 752 1035 730 1035 l 730 1035 q 726 1035 710 1035 q 694 1035 673.5 1035 q 653 1035 637 1035 q 621 1035 617 1035 l 617 1035 q 592 1035 577.5 1038.5 q 563 1042 557.5 1053 q 552 1064 552 1085 l 552 1085"},"读":{"ha":1000,"x_min":49,"x_max":942,"o":"m 415 1694 l 415 1723 l 883 1723 l 883 1694 l 415 1694 m 632 1561 l 632 1830 l 663 1830 l 663 1561 l 632 1561 m 459 1465 l 459 1465 l 480 1484 q 507 1471 534.5 1453 q 562 1435 585.5 1417 q 609 1399 624 1382 l 624 1382 l 602 1360 q 580 1384 539.5 1413.5 q 499 1443 459 1465 m 388 1370 l 388 1370 l 407 1390 q 434 1377 462 1360 q 490 1343 514 1325 q 538 1307 552 1290 l 552 1290 l 534 1267 q 519 1283 495 1301.5 q 471 1320 443 1338 q 415 1356 388 1370 m 375 1548 l 375 1577 l 896 1577 l 896 1548 l 375 1548 m 888 1570 l 888 1577 l 895 1577 l 901 1579 l 920 1571 q 903 1528 883.5 1482 q 864 1436 845 1405 l 845 1405 l 819 1417 q 836 1446 855 1488 q 874 1530 888 1570 l 888 1570 m 355 1201 l 355 1230 l 942 1230 l 942 1201 l 355 1201 m 663 1364 l 663 1495 l 693 1495 l 693 1364 q 693 1319 687 1272.5 q 681 1226 663 1180 q 645 1134 609 1090 q 573 1046 512.5 1005 q 452 964 361 927 l 361 927 q 359 931 356 935.5 q 353 940 349.5 944 q 346 948 342 951 l 342 951 q 453 995 517.5 1045.5 q 582 1096 613.5 1149.5 q 645 1203 654 1257.5 q 663 1312 663 1364 l 663 1364 m 688 1120 l 688 1120 l 708 1138 q 750 1110 795 1076 q 840 1042 879 1008 q 918 974 942 948 l 942 948 l 922 926 q 897 953 858 987.5 q 819 1022 774.5 1057 q 730 1092 688 1120 m 130 1777 l 130 1777 l 150 1796 q 177 1774 205 1747.5 q 233 1721 257.5 1695.5 q 282 1670 296 1650 l 296 1650 l 276 1626 q 260 1647 235.5 1673 q 211 1699 183.5 1726.5 q 156 1754 130 1777 m 197 964 l 197 964 l 196 995 l 212 1022 l 370 1140 q 373 1134 376.5 1127.5 q 380 1121 383 1117 l 383 1117 q 325 1072 290 1044.5 q 255 1017 236.5 1001.5 q 218 986 210 978 q 202 970 197 964 m 197 963 l 197 963 q 195 967 191 971.5 q 187 976 183 980.5 q 179 985 176 988 l 176 988 q 183 993 194 1004.5 q 205 1016 214 1033 q 223 1050 223 1072 l 223 1072 l 223 1510 l 252 1510 l 252 1026 q 252 1026 243.5 1018.5 q 235 1011 224.5 1000.5 q 214 990 205.5 979.5 q 197 969 197 963 m 49 1480 l 49 1510 l 237 1510 l 237 1480 l 49 1480"},"连":{"ha":1000,"x_min":49,"x_max":963,"o":"m 50 1484 l 229 1484 l 229 1080 l 199 1080 l 199 1455 l 50 1455 l 50 1484 m 95 1802 l 95 1802 l 119 1816 q 147 1789 175.5 1756.5 q 204 1724 228.5 1692.5 q 253 1661 268 1637 l 268 1637 l 243 1621 q 229 1645 204.5 1676.5 q 180 1708 151.5 1741 q 123 1774 95 1802 m 211 1099 l 211 1099 q 235 1099 256.5 1078 q 278 1057 321 1027 l 321 1027 q 370 993 433.5 983.5 q 497 974 586 974 l 586 974 q 638 974 689.5 975.5 q 741 977 790 979 q 839 981 883 983.5 q 927 986 963 988 l 963 988 q 961 985 959 979 q 957 973 955.5 966 q 954 959 953 953 l 953 953 q 927 952 880.5 950 q 834 948 779.5 946.5 q 725 945 673.5 944 q 622 943 586 943 l 586 943 q 489 943 422.5 954.5 q 356 966 303 1003 l 303 1003 q 275 1025 251 1048 q 227 1071 211 1071 l 211 1071 q 195 1071 173.5 1053.5 q 152 1036 127 1005 q 102 974 74 935 l 74 935 l 49 959 q 95 1018 135.5 1058.5 q 176 1099 211 1099 m 634 1004 l 634 1618 l 665 1618 l 665 1004 l 634 1004 m 316 1229 l 316 1258 l 934 1258 l 934 1229 l 316 1229 m 322 1692 l 322 1721 l 909 1721 l 909 1692 l 322 1692 m 378 1428 l 378 1428 l 378 1458 l 408 1471 l 882 1471 l 882 1441 l 463 1441 q 424 1441 404.5 1437.5 q 385 1434 378 1428 m 378 1428 l 378 1428 q 378 1432 376.5 1438 q 375 1444 372.5 1450.5 q 370 1457 368 1461 l 368 1461 q 379 1463 391.5 1481.5 q 404 1500 419 1528 l 419 1528 q 427 1542 442.5 1572.5 q 458 1603 476.5 1645 q 495 1687 513.5 1734.5 q 532 1782 546 1829 l 546 1829 l 577 1820 q 553 1753 526 1686.5 q 499 1620 469.5 1559.5 q 440 1499 409 1450 l 409 1450 l 409 1449 q 409 1449 404.5 1447.5 q 400 1446 393.5 1443 q 387 1440 382.5 1436 q 378 1432 378 1428"},"度":{"ha":1000,"x_min":49,"x_max":952,"o":"m 200 1522 l 200 1551 l 928 1551 l 928 1522 l 200 1522 m 220 1229 l 220 1259 l 816 1259 l 816 1229 l 220 1229 m 386 1347 l 386 1659 l 416 1659 l 416 1376 l 720 1376 l 720 1659 l 749 1659 l 749 1347 l 386 1347 m 807 1252 l 807 1259 l 814 1259 l 820 1261 l 839 1248 q 797 1173 727 1119 q 657 1065 569 1028.5 q 481 992 383.5 969.5 q 286 947 187 935 l 187 935 q 186 940 182 948 q 178 956 174 962 l 174 962 q 269 972 365 993 q 461 1014 547 1048.5 q 633 1083 700.5 1133.5 q 768 1184 807 1252 l 807 1252 m 345 1216 l 371 1228 q 422 1151 510 1095 q 598 1039 711.5 1004 q 825 969 952 955 l 952 955 q 949 952 945.5 947 q 942 942 939 937.5 q 936 933 934 929 l 934 929 q 808 946 693.5 982.5 q 579 1019 488.5 1077 q 398 1135 345 1216 l 345 1216 m 155 1688 l 155 1718 l 941 1718 l 941 1688 l 155 1688 m 141 1441 l 141 1718 l 171 1718 l 171 1441 q 171 1385 167.5 1319.5 q 164 1254 154 1185.5 q 144 1117 125 1051 q 106 985 74 928 l 74 928 q 72 931 67 934 q 62 937 57.5 940 q 53 943 49 944 l 49 944 q 81 1000 99 1064 q 117 1128 126.5 1194 q 136 1260 138.5 1323 q 141 1386 141 1441 l 141 1441 m 484 1824 l 484 1824 l 512 1833 q 531 1805 550.5 1771 q 570 1737 579 1714 l 579 1714 l 551 1702 q 541 1726 522.5 1761 q 504 1796 484 1824"},"关":{"ha":1000,"x_min":67,"x_max":942,"o":"m 131 1577 l 131 1607 l 872 1607 l 872 1577 l 131 1577 m 77 1327 l 77 1356 l 928 1356 l 928 1327 l 77 1327 m 498 1336 l 524 1345 q 559 1252 619.5 1176 q 680 1100 762 1045.5 q 844 991 942 963 l 942 963 q 939 960 935 955.5 q 931 951 927.5 946.5 q 924 942 921 937 l 921 937 q 823 968 740.5 1025 q 658 1082 596.5 1161 q 535 1240 498 1336 l 498 1336 m 732 1824 l 732 1824 l 762 1812 q 743 1775 720 1733.5 q 697 1692 673 1653.5 q 649 1615 626 1586 l 626 1586 l 603 1597 q 625 1627 649 1667 q 673 1707 695 1749 q 717 1791 732 1824 m 245 1802 l 245 1802 l 269 1815 q 301 1776 330 1728 q 359 1680 372 1645 l 372 1645 l 345 1630 q 337 1654 321 1684 q 305 1714 285 1745 q 265 1776 245 1802 m 484 1460 l 484 1594 l 514 1594 l 514 1460 q 514 1413 508 1360 q 502 1307 480.5 1251.5 q 459 1196 413 1140.5 q 367 1085 287.5 1032 q 208 979 86 931 l 86 931 q 85 934 81.5 938.5 q 78 943 74.5 947.5 q 71 952 67 955 l 67 955 q 188 1001 265.5 1052 q 343 1103 388 1156.5 q 433 1210 453.5 1263 q 474 1316 479 1366 q 484 1416 484 1460 l 484 1460"},"于":{"ha":1000,"x_min":59,"x_max":942,"o":"m 59 1390 l 59 1420 l 942 1420 l 942 1390 l 59 1390 m 493 994 l 493 1745 l 523 1745 l 523 995 q 523 968 513 956.5 q 503 945 482 940 l 482 940 q 462 936 416.5 935.5 q 371 935 292 935 l 292 935 q 291 939 288.5 944.5 q 286 950 283.5 955.5 q 281 961 279 966 l 279 966 q 324 965 362 965 q 400 965 427 965.5 q 454 966 464 966 l 464 966 q 480 967 486.5 972.5 q 493 978 493 994 l 493 994 m 130 1722 l 130 1752 l 871 1752 l 871 1722 l 130 1722"},"克":{"ha":1000,"x_min":59,"x_max":951,"o":"m 782 1513 l 220 1513 l 220 1300 l 782 1300 l 782 1513 m 190 1271 l 190 1542 l 812 1542 l 812 1271 l 190 1271 m 74 1686 l 74 1716 l 930 1716 l 930 1686 l 74 1686 m 483 1544 l 483 1831 l 513 1831 l 513 1544 l 483 1544 m 584 1000 l 584 1292 l 614 1292 l 614 1000 q 614 981 625 974.5 q 636 968 673 968 l 673 968 q 682 968 707.5 968 q 733 968 764.5 968 q 796 968 823 968 q 850 968 863 968 l 863 968 q 887 968 898.5 979 q 910 990 914.5 1024 q 919 1058 921 1127 l 921 1127 q 926 1124 931 1121 q 936 1118 941.5 1116 q 947 1114 951 1113 l 951 1113 q 949 1042 942 1004 q 935 966 917.5 952 q 900 938 864 938 l 864 938 q 859 938 840 938 q 821 938 795 938 q 769 938 743.5 938 q 718 938 699 938 q 680 938 675 938 l 675 938 q 640 938 620 942.5 q 600 947 592 960.5 q 584 974 584 1000 l 584 1000 m 371 1284 l 371 1284 l 402 1284 q 393 1214 373 1157 q 353 1100 316.5 1056.5 q 280 1013 222 981 q 164 949 78 928 l 78 928 q 77 932 73.5 936.5 q 70 941 66.5 946 q 63 951 59 954 l 59 954 q 143 973 199.5 1002.5 q 256 1032 291 1073.5 q 326 1115 344.5 1167.5 q 363 1220 371 1284"},"制":{"ha":1000,"x_min":53,"x_max":917,"o":"m 710 1187 l 710 1730 l 739 1730 l 739 1187 l 710 1187 m 886 994 l 886 1827 l 917 1827 l 917 996 q 917 970 908.5 958.5 q 900 947 881 942 l 881 942 q 864 938 826 937 q 788 936 734 936 l 734 936 q 732 943 728.5 953.5 q 725 964 721 973 l 721 973 q 771 972 811.5 971.5 q 852 971 866 972 l 866 972 q 877 973 881.5 977 q 886 981 886 994 l 886 994 m 314 930 l 314 1829 l 343 1829 l 343 930 l 314 930 m 533 1057 l 533 1350 l 563 1350 l 563 1057 q 563 1041 558 1032.5 q 553 1024 538 1019 l 538 1019 q 525 1015 495.5 1014 q 466 1013 420 1013 l 420 1013 q 419 1020 415.5 1027.5 q 412 1035 407 1042 l 407 1042 q 451 1041 479.5 1041 q 508 1041 518 1042 l 518 1042 q 533 1042 533 1057 l 533 1057 m 106 1014 l 106 1350 l 546 1350 l 546 1321 l 135 1321 l 135 1014 l 106 1014 m 53 1481 l 53 1511 l 610 1511 l 610 1481 l 53 1481 m 135 1646 l 141 1675 l 570 1675 l 570 1646 l 135 1646 m 171 1802 l 171 1802 l 201 1796 q 182 1719 153 1646 q 124 1573 90 1523 l 90 1523 q 87 1524 82 1526 q 77 1528 71.5 1530.5 q 66 1533 61 1534 l 61 1534 q 99 1587 126 1657.5 q 153 1728 171 1802"},"好":{"ha":1000,"x_min":35,"x_max":951,"o":"m 376 1610 l 376 1619 l 382 1619 l 387 1621 l 407 1615 q 390 1423 342 1288.5 q 294 1154 221.5 1067.5 q 149 981 57 932 l 57 932 q 55 936 51.5 940 q 48 944 43.5 948.5 q 39 953 35 956 l 35 956 q 124 1000 194.5 1084 q 265 1168 312 1298 q 359 1428 376 1610 l 376 1610 m 476 1715 l 476 1744 l 877 1744 l 877 1715 l 476 1715 m 426 1364 l 426 1393 l 951 1393 l 951 1364 l 426 1364 m 678 978 l 678 1529 l 708 1529 l 708 979 q 708 959 700.5 949 q 693 939 676 935 l 676 935 q 660 931 628 930 q 596 929 537 930 l 537 930 q 535 935 530.5 943 q 526 951 523 958 l 523 958 q 557 958 584.5 957.5 q 612 957 631 957.5 q 650 958 658 958 l 658 958 q 669 959 673.5 963.5 q 678 968 678 978 l 678 978 m 868 1736 l 868 1744 l 875 1744 l 882 1747 l 906 1731 q 880 1691 845 1650.5 q 810 1610 772.5 1573.5 q 735 1537 701 1509 l 701 1509 q 697 1514 690.5 1519.5 q 684 1525 678 1529 l 678 1529 q 712 1555 747.5 1590.5 q 783 1626 815 1664 q 847 1702 868 1736 l 868 1736 m 49 1589 l 49 1619 l 387 1619 l 387 1589 l 49 1589 m 84 1280 l 84 1280 l 106 1301 q 152 1275 197.5 1244.5 q 243 1214 285 1181 q 327 1148 360.5 1116.5 q 394 1085 416 1057 l 416 1057 l 392 1033 q 370 1061 336.5 1093.5 q 303 1126 261.5 1159 q 220 1192 174.5 1223.5 q 129 1255 84 1280 m 113 1273 l 84 1280 q 101 1331 119.5 1399 q 138 1467 155 1543 q 172 1619 186 1693.5 q 200 1768 209 1832 l 209 1832 l 238 1830 q 229 1764 214.5 1688.5 q 200 1613 182.5 1537 q 165 1461 147 1392.5 q 129 1324 113 1273 l 113 1273"},"每":{"ha":1000,"x_min":50,"x_max":952,"o":"m 249 1536 l 249 1566 l 806 1566 l 806 1536 l 249 1536 m 175 1059 l 175 1088 l 925 1088 l 925 1059 l 175 1059 m 232 1690 l 232 1719 l 921 1719 l 921 1690 l 232 1690 m 793 1558 l 793 1566 l 822 1566 q 822 1566 822 1561.5 q 822 1557 821.5 1552 q 821 1547 821 1544 l 821 1544 q 816 1388 810.5 1281 q 805 1174 798 1107.5 q 791 1041 781.5 1005 q 772 969 760 954 l 760 954 q 749 941 735 936 q 721 931 701 930 l 701 930 q 682 930 647.5 931 q 613 932 577 935 l 577 935 q 576 941 574.5 949 q 573 957 569 963 l 569 963 q 611 960 647 959 q 683 958 697 958 l 697 958 q 711 958 719 960.5 q 727 963 734 971 l 734 971 q 745 983 753.5 1019 q 762 1055 769 1122.5 q 776 1190 782 1297 q 788 1404 793 1558 l 793 1558 m 233 1566 l 233 1566 l 263 1566 q 255 1507 245.5 1438 q 236 1369 225.5 1299 q 215 1229 204.5 1167 q 194 1105 185 1060 l 185 1060 l 155 1060 q 165 1107 175.5 1169.5 q 186 1232 197 1302 q 208 1372 217 1440.5 q 226 1509 233 1566 m 283 1836 l 283 1836 l 313 1828 q 283 1760 245 1695 q 207 1630 164.5 1573.5 q 122 1517 77 1473 l 77 1473 q 74 1475 69 1478.5 q 64 1482 59 1486 q 54 1490 50 1492 l 50 1492 q 97 1534 140 1589.5 q 183 1645 219.5 1708 q 256 1771 283 1836 m 391 1486 l 391 1486 l 411 1507 q 448 1491 486.5 1470 q 525 1449 558.5 1427 q 592 1405 613 1384 l 613 1384 l 593 1361 q 572 1381 538.5 1404 q 505 1427 466.5 1448.5 q 428 1470 391 1486 m 353 1254 l 353 1254 l 372 1275 q 412 1256 453.5 1230.5 q 495 1205 531 1179 q 567 1153 589 1130 l 589 1130 l 571 1105 q 548 1128 512 1155 q 476 1182 434.5 1208 q 393 1234 353 1254 m 51 1300 l 51 1329 l 214 1329 l 214 1329 l 800 1329 l 800 1329 l 952 1329 l 952 1300 l 800 1300 l 800 1300 l 214 1300 l 214 1300 l 51 1300"},"个":{"ha":1000,"x_min":47,"x_max":956,"o":"m 514 1831 l 514 1831 l 539 1819 q 488 1735 414 1653 q 340 1571 251.5 1502 q 163 1433 70 1386 l 70 1386 q 66 1391 59.5 1397 q 53 1403 47 1407 l 47 1407 q 141 1453 229 1521 q 317 1589 391 1669 q 465 1749 514 1831 m 487 1779 l 511 1789 q 561 1711 626.5 1644 q 692 1577 774.5 1519 q 857 1461 956 1407 l 956 1407 q 950 1403 944 1396.5 q 938 1390 934 1384 l 934 1384 q 834 1440 752 1500.5 q 670 1561 604.5 1630 q 539 1699 487 1779 l 487 1779 m 485 930 l 485 1565 l 515 1565 l 515 930 l 485 930"},"元":{"ha":1000,"x_min":65,"x_max":947,"o":"m 605 1017 l 605 1443 l 634 1443 l 634 1017 q 634 993 645 985.5 q 656 978 690 978 l 690 978 q 698 978 720.5 978 q 743 978 771 978 q 799 978 823 978 q 847 978 859 978 l 859 978 q 883 978 895 992 q 907 1006 911.5 1047 q 916 1088 917 1169 l 917 1169 q 922 1166 927 1162.5 q 932 1159 937.5 1157 q 943 1155 947 1153 l 947 1153 q 945 1072 938 1027.5 q 931 983 913.5 965.5 q 896 948 859 948 l 859 948 q 853 948 828.5 948 q 804 948 774.5 948 q 745 948 721 948 q 697 948 691 948 l 691 948 q 658 948 639 953.5 q 620 959 612.5 974 q 605 989 605 1017 l 605 1017 m 66 1426 l 66 1456 l 935 1456 l 935 1426 l 66 1426 m 150 1716 l 150 1745 l 857 1745 l 857 1716 l 150 1716 m 349 1435 l 349 1435 l 379 1435 q 372 1350 357 1273.5 q 342 1197 310.5 1132 q 279 1067 224.5 1016 q 170 965 85 932 l 85 932 q 83 936 76.5 942 q 70 948 65 952 l 65 952 q 148 984 200.5 1033 q 253 1082 283.5 1145 q 314 1208 328.5 1281.5 q 343 1355 349 1435"},"素":{"ha":1000,"x_min":64,"x_max":937,"o":"m 669 1288 l 669 1288 l 690 1306 q 728 1285 767 1258.5 q 806 1232 839.5 1204.5 q 873 1177 894 1154 l 894 1154 l 872 1132 q 851 1156 817.5 1184 q 784 1212 745.5 1239.5 q 707 1267 669 1288 m 647 1106 l 647 1106 l 670 1125 q 714 1104 761.5 1078 q 809 1052 851.5 1025 q 894 998 921 975 l 921 975 l 898 953 q 871 976 829 1003.5 q 787 1031 739.5 1058 q 692 1085 647 1106 m 319 1128 l 319 1128 l 346 1117 q 312 1085 268.5 1053.5 q 225 1022 179 994.5 q 133 967 89 946 l 89 946 q 87 949 82.5 952.5 q 78 956 73 960 q 68 964 64 966 l 64 966 q 132 997 201 1039.5 q 270 1082 319 1128 m 485 1479 l 485 1832 l 515 1832 l 515 1479 l 485 1479 m 120 1709 l 120 1738 l 892 1738 l 892 1709 l 120 1709 m 178 1590 l 178 1620 l 826 1620 l 826 1590 l 178 1590 m 68 1470 l 68 1499 l 937 1499 l 937 1470 l 68 1470 m 119 1156 l 119 1156 q 119 1161 117 1167 q 115 1173 113 1179.5 q 111 1186 109 1191 l 109 1191 q 129 1193 163 1202 q 197 1211 237 1226 l 237 1226 q 255 1232 288 1245 q 321 1258 364 1276.5 q 407 1295 456.5 1317.5 q 506 1340 557.5 1366.5 q 609 1393 658 1421 l 658 1421 l 680 1397 q 547 1322 415.5 1267 q 284 1212 153 1173 l 153 1173 l 153 1172 q 153 1172 148 1171 q 143 1170 136 1167.5 q 129 1165 124 1162 q 119 1159 119 1156 m 119 1156 l 119 1156 l 119 1179 l 150 1193 l 804 1229 q 806 1223 809.5 1215.5 q 813 1208 817 1203 l 817 1203 q 660 1194 548.5 1187.5 q 437 1181 362.5 1176.5 q 288 1172 242 1169 q 196 1166 171.5 1164 q 147 1162 136 1160 q 125 1158 119 1156 m 206 1304 l 206 1304 q 206 1308 204 1314.5 q 202 1321 200 1327.5 q 198 1334 196 1338 l 196 1338 q 209 1339 224.5 1344 q 240 1349 259 1357 l 259 1357 q 272 1363 303.5 1380 q 335 1397 374 1420.5 q 413 1444 447 1471 l 447 1471 l 476 1452 q 415 1409 355 1377 q 295 1345 236 1324 l 236 1324 l 236 1323 q 236 1323 231.5 1321.5 q 227 1320 221 1317.5 q 215 1315 210.5 1311.5 q 206 1308 206 1304 m 206 1304 l 206 1304 l 206 1328 l 232 1340 l 556 1359 q 553 1352 549.5 1343.5 q 546 1335 544 1330 l 544 1330 q 456 1325 397 1321.5 q 338 1318 302.5 1315.5 q 267 1313 247.5 1311 q 228 1309 219.5 1307.5 q 211 1306 206 1304 m 495 981 l 495 1196 l 525 1196 l 525 981 q 525 963 519.5 954.5 q 514 946 497 941 l 497 941 q 481 937 447 936 q 413 935 357 935 l 357 935 q 356 943 352.5 950.5 q 349 958 344 965 l 344 965 q 380 964 406.5 963.5 q 433 963 451 963.5 q 469 964 476 964 l 476 964 q 488 965 491.5 968.5 q 495 972 495 981 l 495 981"},"存":{"ha":1000,"x_min":43,"x_max":953,"o":"m 322 1228 l 322 1257 l 953 1257 l 953 1228 l 322 1228 m 414 1493 l 414 1523 l 856 1523 l 856 1493 l 414 1493 m 624 981 l 624 1353 l 654 1353 l 654 982 q 654 961 647 951 q 640 941 622 936 l 622 936 q 603 932 562.5 932 q 522 932 453 932 l 453 932 q 451 938 447.5 945.5 q 444 953 439 960 l 439 960 q 481 959 514 958.5 q 547 958 569.5 958.5 q 592 959 602 960 l 602 960 q 616 961 620 965.5 q 624 970 624 981 l 624 981 m 846 1516 l 846 1523 l 853 1523 l 859 1524 l 880 1511 q 851 1477 811 1444 q 771 1411 727.5 1383 q 684 1355 644 1334 l 644 1334 q 641 1339 635 1344 q 629 1349 624 1353 l 624 1353 q 664 1372 706 1399.5 q 748 1427 785 1457.5 q 822 1488 846 1516 l 846 1516 m 70 1670 l 70 1699 l 930 1699 l 930 1670 l 70 1670 m 402 1830 l 402 1830 l 432 1822 q 399 1714 348 1607 q 297 1500 226.5 1406.5 q 156 1313 63 1243 l 63 1243 q 61 1246 57.5 1250 q 54 1254 50 1258.5 q 46 1263 43 1265 l 43 1265 q 111 1316 167 1381 q 223 1446 268 1520 q 313 1594 346.5 1672.5 q 380 1751 402 1830 m 208 932 l 208 1430 l 237 1430 l 237 932 l 208 932"},"理":{"ha":1000,"x_min":46,"x_max":959,"o":"m 878 1552 l 438 1552 l 438 1380 l 878 1380 l 878 1552 m 878 1751 l 438 1751 l 438 1581 l 878 1581 l 878 1751 m 409 1351 l 409 1780 l 908 1780 l 908 1351 l 409 1351 m 391 1173 l 391 1202 l 925 1202 l 925 1173 l 391 1173 m 307 964 l 307 993 l 959 993 l 959 964 l 307 964 m 56 1723 l 56 1753 l 348 1753 l 348 1723 l 56 1723 m 67 1432 l 67 1462 l 336 1462 l 336 1432 l 67 1432 m 56 1045 l 46 1076 q 84 1088 132.5 1103.5 q 181 1119 235.5 1138 q 290 1157 346 1176 l 346 1176 l 351 1146 q 272 1120 194.5 1093 q 117 1066 56 1045 l 56 1045 m 194 1106 l 194 1741 l 224 1741 l 224 1116 l 194 1106 m 641 1368 l 641 1761 l 671 1761 l 671 1368 l 671 1368 l 671 982 l 641 982 l 641 1368 l 641 1368"},"由":{"ha":1000,"x_min":128,"x_max":872,"o":"m 139 1306 l 139 1335 l 859 1335 l 859 1306 l 139 1306 m 139 1001 l 139 1031 l 855 1031 l 855 1001 l 139 1001 m 128 931 l 128 1632 l 872 1632 l 872 937 l 843 937 l 843 1603 l 157 1603 l 157 931 l 128 931 m 484 1015 l 484 1831 l 514 1831 l 514 1015 l 484 1015"},"其":{"ha":1000,"x_min":52,"x_max":942,"o":"m 59 1142 l 59 1172 l 942 1172 l 942 1142 l 59 1142 m 85 1667 l 85 1696 l 919 1696 l 919 1667 l 85 1667 m 276 1499 l 276 1528 l 730 1528 l 730 1499 l 276 1499 m 276 1320 l 276 1349 l 730 1349 l 730 1320 l 276 1320 m 257 1169 l 257 1830 l 286 1830 l 286 1169 l 257 1169 m 716 1169 l 716 1830 l 745 1830 l 745 1169 l 716 1169 m 596 1083 l 596 1083 l 613 1104 q 675 1082 735 1056.5 q 795 1031 848.5 1006 q 902 981 942 958 l 942 958 l 921 935 q 883 958 831 983.5 q 779 1009 719 1034 q 659 1059 596 1083 m 374 1106 l 374 1106 l 407 1090 q 364 1060 307 1031.5 q 250 1003 189 977.5 q 128 952 73 933 l 73 933 q 70 938 63.5 945.5 q 57 953 52 957 l 52 957 q 108 975 169 999.5 q 230 1024 284.5 1052 q 339 1080 374 1106"},"余":{"ha":1000,"x_min":37,"x_max":966,"o":"m 240 1491 l 240 1521 l 766 1521 l 766 1491 l 240 1491 m 86 1298 l 86 1327 l 920 1327 l 920 1298 l 86 1298 m 666 1196 l 666 1196 l 687 1213 q 729 1181 772.5 1142.5 q 816 1104 853.5 1067 q 891 1030 914 1000 l 914 1000 l 891 979 q 868 1009 831 1047 q 794 1085 751 1124.5 q 708 1164 666 1196 m 300 1208 l 300 1208 l 329 1198 q 298 1156 259 1115 q 220 1074 178 1038 q 136 1002 95 974 l 95 974 q 93 977 88.5 980.5 q 84 984 79 987.5 q 74 991 70 993 l 70 993 q 133 1034 195 1091 q 257 1148 300 1208 m 493 980 l 493 1505 l 523 1505 l 523 981 q 523 959 515.5 949.5 q 508 940 491 935 l 491 935 q 475 931 438.5 930.5 q 402 930 338 931 l 338 931 q 337 935 335 939.5 q 333 944 331 949.5 q 329 955 326 959 l 326 959 q 362 958 392 958 q 422 958 443 958.5 q 464 959 472 959 l 472 959 q 484 960 488.5 964 q 493 968 493 980 l 493 980 m 510 1839 l 510 1839 l 534 1826 q 480 1754 402 1683.5 q 324 1613 235.5 1552.5 q 147 1492 59 1450 l 59 1450 q 55 1455 48.5 1461.5 q 42 1468 37 1472 l 37 1472 q 126 1513 214.5 1572 q 303 1631 380 1700 q 457 1769 510 1839 m 490 1799 l 514 1810 q 591 1707 704.5 1630 q 818 1553 966 1489 l 966 1489 q 961 1485 955 1478.5 q 949 1472 945 1466 l 945 1466 q 846 1511 762.5 1561 q 679 1611 611 1670 q 543 1729 490 1799 l 490 1799"},"皆":{"ha":1000,"x_min":135,"x_max":937,"o":"m 207 930 l 207 1335 l 813 1335 l 813 930 l 783 930 l 783 1306 l 236 1306 l 236 930 l 207 930 m 220 1140 l 220 1170 l 798 1170 l 798 1140 l 220 1140 m 195 1661 l 195 1690 l 478 1690 l 478 1661 l 195 1661 m 220 968 l 220 997 l 798 997 l 798 968 l 220 968 m 479 1440 l 479 1440 l 509 1428 q 493 1399 476.5 1368.5 q 460 1338 444 1316 l 444 1316 l 421 1326 q 435 1349 452.5 1382.5 q 470 1416 479 1440 m 867 1753 l 867 1753 l 892 1728 q 852 1707 797.5 1687 q 743 1667 683.5 1649 q 624 1631 568 1616 l 568 1616 q 567 1621 563 1628 q 559 1635 556 1641 l 556 1641 q 611 1656 669.5 1674.5 q 728 1693 780 1713.5 q 832 1734 867 1753 m 548 1491 l 548 1830 l 577 1830 l 577 1490 q 577 1469 589 1462 q 601 1455 643 1455 l 643 1455 q 653 1455 681.5 1455 q 710 1455 745 1455 q 780 1455 811 1455 q 842 1455 855 1455 l 855 1455 q 877 1455 887.5 1463 q 898 1471 902.5 1495 q 907 1519 909 1567 l 909 1567 q 915 1563 922.5 1560 q 930 1557 937 1555 l 937 1555 q 935 1503 928 1475.5 q 921 1448 904.5 1437 q 888 1426 856 1426 l 856 1426 q 851 1426 829.5 1426 q 808 1426 779.5 1426 q 751 1426 722 1426 q 693 1426 671.5 1426 q 650 1426 645 1426 l 645 1426 q 607 1426 586 1431 q 565 1436 556.5 1450 q 548 1464 548 1491 l 548 1491 m 152 1401 l 152 1401 l 152 1428 l 175 1446 l 489 1516 q 489 1510 489.5 1503 q 490 1496 491 1491 l 491 1491 q 380 1464 315 1448 q 250 1432 217 1423.5 q 184 1415 171 1410 q 158 1405 152 1401 m 152 1401 l 152 1401 q 151 1406 148 1411.5 q 145 1417 141.5 1422.5 q 138 1428 135 1432 l 135 1432 q 147 1437 164 1449 q 181 1461 181 1489 l 181 1489 l 181 1829 l 213 1829 l 213 1443 q 213 1443 207 1440 q 201 1437 192 1432.5 q 183 1428 173.5 1422.5 q 164 1417 158 1411.5 q 152 1406 152 1401"},"是":{"ha":1000,"x_min":48,"x_max":953,"o":"m 59 1347 l 59 1376 l 942 1376 l 942 1347 l 59 1347 m 500 1170 l 500 1199 l 875 1199 l 875 1170 l 500 1170 m 491 982 l 491 1370 l 521 1370 l 521 982 l 491 982 m 228 1191 l 253 1205 q 287 1114 344 1066 q 401 1018 483.5 1000.5 q 566 983 675 983 l 675 983 q 681 983 708 983 q 735 983 772.5 983 q 810 983 847.5 983 q 885 983 914 983 q 943 983 953 983 l 953 983 q 950 979 947 973.5 q 944 968 942 962.5 q 940 957 939 953 l 939 953 l 879 953 l 676 953 q 586 953 515.5 963 q 445 973 390.5 999 q 336 1025 296 1071.5 q 256 1118 228 1191 l 228 1191 m 254 1303 l 254 1303 l 284 1299 q 261 1173 207.5 1081 q 154 989 72 929 l 72 929 q 70 932 66 936 q 62 940 57 944 q 52 948 48 950 l 48 950 q 131 1006 181.5 1095 q 232 1184 254 1303 m 788 1612 l 205 1612 l 205 1498 l 788 1498 l 788 1612 m 788 1753 l 205 1753 l 205 1641 l 788 1641 l 788 1753 m 176 1469 l 176 1782 l 818 1782 l 818 1469 l 176 1469"},"噪":{"ha":1000,"x_min":87,"x_max":956,"o":"m 100 1705 l 100 1734 l 289 1734 l 289 1170 l 100 1170 l 100 1199 l 260 1199 l 260 1705 l 100 1705 m 87 1094 l 87 1734 l 117 1734 l 117 1094 l 87 1094 m 777 1756 l 497 1756 l 497 1611 l 777 1611 l 777 1756 m 468 1581 l 468 1785 l 807 1785 l 807 1581 l 468 1581 m 568 1497 l 387 1497 l 387 1343 l 568 1343 l 568 1497 m 358 1314 l 358 1526 l 597 1526 l 597 1314 l 358 1314 m 886 1497 l 700 1497 l 700 1343 l 886 1343 l 886 1497 m 671 1314 l 671 1526 l 916 1526 l 916 1314 l 671 1314 m 334 1192 l 334 1222 l 944 1222 l 944 1192 l 334 1192 m 619 929 l 619 1308 l 648 1308 l 648 929 l 619 929 m 598 1216 l 598 1216 l 623 1204 q 589 1153 535 1105.5 q 481 1058 419.5 1020.5 q 358 983 299 960 l 299 960 q 295 966 289 973 q 283 980 278 984 l 278 984 q 337 1005 398 1041 q 459 1077 511.5 1122 q 564 1167 598 1216 m 648 1201 l 673 1213 q 704 1169 750.5 1126 q 797 1083 851 1048 q 905 1013 956 993 l 956 993 q 952 990 948 986 q 944 982 940 977.5 q 936 973 933 969 l 933 969 q 883 992 829.5 1028.5 q 776 1065 728 1110 q 680 1155 648 1201 l 648 1201"},"声":{"ha":1000,"x_min":39,"x_max":922,"o":"m 80 1710 l 80 1739 l 922 1739 l 922 1710 l 80 1710 m 137 1545 l 137 1574 l 879 1574 l 879 1545 l 137 1545 m 176 1182 l 176 1212 l 842 1212 l 842 1182 l 176 1182 m 175 1414 l 175 1443 l 855 1443 l 855 1134 l 825 1134 l 825 1414 l 175 1414 m 165 1304 l 165 1443 l 194 1443 l 194 1304 q 194 1261 189 1212.5 q 184 1164 169.5 1113.5 q 155 1063 129 1015 q 103 967 61 925 l 61 925 q 59 929 55 932.5 q 51 936 47 940 q 43 944 39 946 l 39 946 q 93 1000 120 1062.5 q 147 1125 156 1187.5 q 165 1250 165 1304 l 165 1304 m 483 1556 l 483 1834 l 513 1834 l 513 1556 l 483 1556 m 483 1196 l 483 1434 l 513 1434 l 513 1196 l 483 1196"},"物":{"ha":1000,"x_min":41,"x_max":936,"o":"m 552 1831 l 552 1831 l 581 1825 q 562 1744 533.5 1669.5 q 505 1595 469 1531.5 q 433 1468 389 1419 l 389 1419 q 387 1422 382.5 1425.5 q 378 1429 373 1432.5 q 368 1436 364 1438 l 364 1438 q 408 1485 443.5 1546.5 q 479 1608 506.5 1680.5 q 534 1753 552 1831 m 906 1642 l 906 1651 l 936 1651 q 936 1651 936 1646.5 q 936 1642 936 1636.5 q 936 1631 935 1628 l 935 1628 q 925 1454 915 1335.5 q 905 1217 894 1142 q 883 1067 870 1026 q 857 985 841 967 l 841 967 q 828 951 814 946 q 800 941 779 940 l 779 940 q 760 939 729 940 q 698 941 665 944 l 665 944 q 664 952 662.5 960.5 q 661 969 656 975 l 656 975 q 696 972 728.5 971 q 761 970 775 970 l 775 970 q 789 970 798 972.5 q 807 975 815 984 l 815 984 q 829 999 841.5 1040.5 q 854 1082 865 1158.5 q 876 1235 886 1353.5 q 896 1472 906 1642 l 906 1642 m 499 1621 l 508 1651 l 915 1651 l 915 1621 l 499 1621 m 641 1643 l 641 1643 l 668 1629 q 645 1538 605 1445.5 q 565 1353 513 1275 q 461 1197 401 1148 l 401 1148 q 396 1153 389 1158.5 q 382 1164 375 1168 l 375 1168 q 419 1203 460 1255.5 q 501 1308 535.5 1372 q 570 1436 597 1505.5 q 624 1575 641 1643 m 787 1643 l 787 1643 l 815 1630 q 796 1526 764 1424 q 732 1322 689 1230.5 q 646 1139 592 1064.5 q 538 990 473 940 l 473 940 q 468 945 460 951 q 452 957 444 961 l 444 961 q 509 1008 564 1081 q 619 1154 662 1245 q 705 1336 736.5 1438 q 768 1540 787 1643 m 55 1236 l 44 1266 q 90 1279 149 1297 q 208 1315 274.5 1336.5 q 341 1358 408 1379 l 408 1379 l 412 1353 q 317 1322 222.5 1291 q 128 1260 55 1236 l 55 1236 m 238 930 l 238 1829 l 268 1829 l 268 930 l 238 930 m 122 1772 l 122 1772 l 152 1768 q 144 1701 132 1636.5 q 120 1572 105 1515.5 q 90 1459 70 1414 l 70 1414 q 67 1416 61.5 1418.5 q 56 1421 50.5 1423.5 q 45 1426 41 1427 l 41 1427 q 63 1472 78 1528 q 93 1584 104 1646.5 q 115 1709 122 1772 m 106 1584 l 108 1614 l 391 1614 l 391 1584 l 106 1584"},"知":{"ha":1000,"x_min":45,"x_max":896,"o":"m 568 1044 l 568 1074 l 886 1074 l 886 1044 l 568 1044 m 559 958 l 559 1743 l 896 1743 l 896 966 l 867 966 l 867 1714 l 588 1714 l 588 958 l 559 958 m 280 1465 l 280 1673 l 310 1673 l 310 1465 q 310 1401 301.5 1331 q 293 1261 267.5 1191 q 242 1121 193.5 1054.5 q 145 988 65 932 l 65 932 q 63 935 59.5 939 q 56 943 52.5 947.5 q 49 952 45 954 l 45 954 q 123 1008 169.5 1071.5 q 216 1135 240 1202.5 q 264 1270 272 1337 q 280 1404 280 1465 l 280 1465 m 156 1660 l 156 1689 l 487 1689 l 487 1660 l 156 1660 m 52 1389 l 52 1419 l 521 1419 l 521 1389 l 52 1389 m 273 1279 l 292 1297 q 303 1287 325 1264 q 347 1241 373.5 1212 q 400 1183 426.5 1154 q 453 1125 474 1101.5 q 495 1078 505 1067 l 505 1067 l 484 1041 q 473 1056 452 1080.5 q 431 1105 405.5 1134.5 q 380 1164 354 1192.5 q 328 1221 306.5 1244 q 285 1267 273 1279 l 273 1279 m 184 1832 l 184 1832 l 215 1826 q 200 1758 178.5 1695 q 157 1632 131 1577 q 105 1522 74 1478 l 74 1478 q 72 1481 67 1484 q 62 1487 56.5 1490.5 q 51 1494 47 1496 l 47 1496 q 96 1558 130 1646.5 q 164 1735 184 1832"},"积":{"ha":1000,"x_min":44,"x_max":946,"o":"m 244 928 l 244 1766 l 274 1766 l 274 928 l 244 928 m 54 1511 l 54 1540 l 450 1540 l 450 1511 l 54 1511 m 245 1531 l 245 1531 l 270 1523 q 254 1471 231 1414.5 q 208 1358 180 1303.5 q 152 1249 123 1202.5 q 94 1156 66 1124 l 66 1124 q 62 1129 55.5 1136.5 q 49 1144 44 1148 l 44 1148 q 81 1189 120 1252.5 q 159 1316 192 1389.5 q 225 1463 245 1531 m 404 1819 l 404 1819 l 428 1797 q 383 1779 320 1763.5 q 257 1748 188 1735.5 q 119 1723 55 1715 l 55 1715 q 54 1720 50.5 1726.5 q 47 1733 44 1739 l 44 1739 q 107 1748 175.5 1760.5 q 244 1773 304.5 1788 q 365 1803 404 1819 m 247 1476 l 268 1493 q 276 1483 293 1461.5 q 310 1440 330.5 1412.5 q 351 1385 371 1357.5 q 391 1330 407 1308.5 q 423 1287 430 1276 l 430 1276 l 405 1248 q 395 1266 374 1298 q 353 1330 328 1366 q 303 1402 281 1432 q 259 1462 247 1476 l 247 1476 m 780 1217 l 780 1217 l 806 1228 q 834 1184 861.5 1134 q 889 1084 911 1037.5 q 933 991 946 957 l 946 957 l 917 943 q 905 978 883 1025.5 q 861 1073 834 1123.5 q 807 1174 780 1217 m 569 1228 l 569 1228 l 599 1222 q 574 1135 533 1059 q 492 983 441 930 l 441 930 q 438 932 433.5 935.5 q 429 939 424 942.5 q 419 946 415 948 l 415 948 q 467 999 506.5 1072.5 q 546 1146 569 1228 m 875 1723 l 519 1723 l 519 1373 l 875 1373 l 875 1723 m 489 1343 l 489 1753 l 905 1753 l 905 1343 l 489 1343"},"教":{"ha":1000,"x_min":49,"x_max":957,"o":"m 128 1396 l 128 1425 l 446 1425 l 446 1396 l 128 1396 m 94 1682 l 94 1712 l 426 1712 l 426 1682 l 94 1682 m 49 1523 l 49 1552 l 530 1552 l 530 1523 l 49 1523 m 245 1535 l 245 1831 l 275 1831 l 275 1535 l 245 1535 m 504 1809 l 504 1809 l 533 1800 q 460 1616 343.5 1477.5 q 227 1339 75 1247 l 75 1247 q 73 1250 68 1254.5 q 63 1259 58 1263 q 53 1267 49 1270 l 49 1270 q 204 1356 319.5 1493.5 q 435 1631 504 1809 m 273 974 l 273 1287 l 302 1287 l 302 974 q 302 956 296.5 947.5 q 291 939 277 935 l 277 935 q 262 931 231.5 930 q 201 929 152 929 l 152 929 q 151 935 147.5 943 q 144 951 139 958 l 139 958 q 185 957 215 957 q 245 957 256 958 l 256 958 q 267 959 270 962 q 273 965 273 974 l 273 974 m 441 1419 l 441 1425 l 448 1425 l 454 1427 l 476 1414 q 440 1372 389.5 1333.5 q 339 1295 292 1270 l 292 1270 q 288 1275 282.5 1279.5 q 277 1284 272 1287 l 272 1287 q 303 1304 334.5 1326 q 366 1348 394 1372.5 q 422 1397 441 1419 l 441 1419 m 56 1139 l 50 1170 q 109 1177 188 1186.5 q 267 1196 358 1207.5 q 449 1219 541 1231 l 541 1231 l 541 1202 q 453 1191 364.5 1179.5 q 276 1168 197 1157.5 q 118 1147 56 1139 l 56 1139 m 607 1612 l 607 1641 l 952 1641 l 952 1612 l 607 1612 m 646 1830 l 646 1830 l 676 1825 q 659 1737 634.5 1655 q 610 1573 579 1501.5 q 548 1430 510 1375 l 510 1375 q 507 1377 502 1380.5 q 497 1384 491.5 1387 q 486 1390 482 1392 l 482 1392 q 521 1446 552 1516 q 583 1586 606.5 1666 q 630 1746 646 1830 m 855 1631 l 855 1631 l 885 1626 q 858 1452 809 1319.5 q 760 1187 678.5 1091 q 597 995 472 928 l 472 928 q 470 932 466.5 936.5 q 463 941 459 945.5 q 455 950 451 953 l 451 953 q 575 1015 655 1108.5 q 735 1202 782.5 1332 q 830 1462 855 1631 m 590 1603 l 617 1608 q 641 1459 684.5 1328.5 q 728 1198 795.5 1101 q 863 1004 957 953 l 957 953 q 953 950 948.5 946 q 944 942 940.5 937.5 q 937 933 934 929 l 934 929 q 839 985 771 1084.5 q 703 1184 659 1316.5 q 615 1449 590 1603 l 590 1603"},"会":{"ha":1000,"x_min":57,"x_max":950,"o":"m 90 1291 l 90 1321 l 916 1321 l 916 1291 l 90 1291 m 260 1482 l 260 1512 l 746 1512 l 746 1482 l 260 1482 m 623 1202 l 623 1202 l 647 1216 q 693 1175 738 1127 q 783 1079 820.5 1032.5 q 858 986 880 948 l 880 948 l 854 932 q 832 970 794.5 1017.5 q 757 1065 712.5 1113.5 q 668 1162 623 1202 m 512 1825 l 512 1825 l 546 1815 q 475 1703 354 1606.5 q 233 1510 81 1438 l 81 1438 q 79 1442 74.5 1446 q 70 1450 65.5 1454 q 61 1458 57 1461 l 57 1461 q 158 1508 246 1565.5 q 334 1623 402 1689 q 470 1755 512 1825 m 487 1775 l 508 1798 q 537 1758 583 1712.5 q 629 1667 688 1623 q 747 1579 813.5 1541 q 880 1503 950 1477 l 950 1477 q 947 1474 942.5 1469.5 q 938 1465 934.5 1460 q 931 1455 928 1450 l 928 1450 q 859 1478 793 1517 q 727 1556 669 1601 q 611 1646 564 1691 q 517 1736 487 1775 l 487 1775 m 155 955 l 155 955 q 154 959 152 965.5 q 150 972 148 978.5 q 146 985 144 989 l 144 989 q 157 991 175 1006.5 q 193 1022 216 1045 l 216 1045 q 228 1057 252 1083.5 q 276 1110 306.5 1146.5 q 337 1183 369 1225.5 q 401 1268 428 1311 l 428 1311 l 460 1295 q 395 1204 325 1121 q 255 1038 184 977 l 184 977 l 184 976 q 184 976 179.5 974 q 175 972 169.5 969 q 164 966 159.5 962.5 q 155 959 155 955 m 155 955 l 155 955 l 155 981 l 186 997 l 798 1053 q 799 1046 801.5 1037.5 q 804 1029 806 1024 l 806 1024 q 661 1011 557.5 1001 q 454 991 384.5 984.5 q 315 978 272.5 973 q 230 968 207 965 q 184 962 173 960 q 162 958 155 955"},"平":{"ha":1000,"x_min":59,"x_max":942,"o":"m 110 1728 l 110 1758 l 887 1758 l 887 1728 l 110 1728 m 59 1303 l 59 1332 l 942 1332 l 942 1303 l 59 1303 m 189 1655 l 189 1655 l 215 1664 q 238 1624 260 1578 q 282 1532 299.5 1489 q 317 1446 325 1415 l 325 1415 l 298 1403 q 289 1436 272 1479 q 255 1522 233.5 1568.5 q 212 1615 189 1655 m 780 1670 l 780 1670 l 811 1659 q 792 1616 768.5 1568 q 745 1520 721 1474.5 q 697 1429 674 1395 l 674 1395 l 650 1406 q 672 1440 696.5 1486.5 q 721 1533 743 1582 q 765 1631 780 1670 m 482 930 l 482 1750 l 512 1750 l 512 930 l 482 930"},"滑":{"ha":1000,"x_min":49,"x_max":947,"o":"m 427 1239 l 427 1269 l 824 1269 l 824 1239 l 427 1239 m 427 1110 l 427 1139 l 824 1139 l 824 1110 l 427 1110 m 406 930 l 406 1396 l 825 1396 l 825 1367 l 435 1367 l 435 930 l 406 930 m 814 974 l 814 1396 l 843 1396 l 843 975 q 843 957 837.5 948 q 832 939 817 935 l 817 935 q 801 931 768.5 930 q 736 929 680 929 l 680 929 q 679 934 675.5 942 q 672 950 669 957 l 669 957 q 716 956 750 955.5 q 784 955 795 956 l 795 956 q 806 957 810 960.5 q 814 964 814 974 l 814 974 m 301 1367 l 301 1519 l 947 1519 l 947 1367 l 917 1367 l 917 1489 l 330 1489 l 330 1367 l 301 1367 m 416 1498 l 416 1792 l 837 1792 l 837 1498 l 808 1498 l 808 1763 l 445 1763 l 445 1498 l 416 1498 m 429 1643 l 429 1673 l 653 1673 l 653 1497 l 623 1497 l 623 1643 l 429 1643 m 98 1798 l 98 1798 l 117 1817 q 150 1799 186 1776.5 q 222 1754 253.5 1731.5 q 285 1709 305 1691 l 305 1691 l 287 1667 q 267 1686 235 1709.5 q 203 1733 167.5 1756.5 q 132 1780 98 1798 m 49 1524 l 49 1524 l 67 1545 q 97 1531 129.5 1513 q 162 1495 191 1476.5 q 220 1458 239 1442 l 239 1442 l 222 1418 q 203 1434 174 1452.5 q 145 1471 112.5 1490 q 80 1509 49 1524 m 107 945 l 81 965 q 105 1004 133.5 1058.5 q 162 1113 191 1173.5 q 220 1234 244 1288 l 244 1288 l 267 1270 q 245 1218 217 1159.5 q 189 1101 160.5 1045 q 132 989 107 945 l 107 945"},"动":{"ha":1000,"x_min":60,"x_max":938,"o":"m 511 1557 l 511 1586 l 921 1586 l 921 1557 l 511 1557 m 909 1578 l 909 1586 l 938 1586 q 938 1586 938 1582 q 938 1578 938 1573 q 938 1568 938 1564 l 938 1564 q 932 1407 926 1299.5 q 920 1192 912.5 1124.5 q 905 1057 895.5 1020 q 886 983 872 968 l 872 968 q 860 954 846 948.5 q 832 943 810 942 l 810 942 q 788 942 748 943 q 708 944 667 948 l 667 948 q 666 955 664 963 q 662 971 657 978 l 657 978 q 706 974 747.5 973 q 789 972 805 972 l 805 972 q 819 971 829 973.5 q 839 976 846 984 l 846 984 q 858 997 867 1033.5 q 876 1070 883.5 1138.5 q 891 1207 897 1314.5 q 903 1422 909 1578 l 909 1578 m 688 1814 l 688 1814 l 718 1814 q 717 1722 714 1623 q 711 1524 700 1425 q 689 1326 666.5 1234.5 q 644 1143 603.5 1065.5 q 563 988 501 931 l 501 931 q 498 934 493 937 q 488 940 483 943 q 478 946 474 947 l 474 947 q 536 1001 575.5 1077.5 q 615 1154 638 1245 q 661 1336 671.5 1433.5 q 682 1531 685 1628.5 q 688 1726 688 1814 m 98 1715 l 98 1744 l 478 1744 l 478 1715 l 98 1715 m 60 1471 l 60 1500 l 497 1500 l 497 1471 l 60 1471 m 361 1355 l 361 1355 l 388 1362 q 408 1315 429 1260.5 q 450 1206 468.5 1155.5 q 487 1105 497 1070 l 497 1070 l 469 1058 q 459 1095 441 1146 q 423 1197 402 1252 q 381 1307 361 1355 m 88 1067 l 88 1067 l 88 1093 l 113 1109 l 445 1171 q 446 1165 447 1156.5 q 448 1148 449 1143 l 449 1143 q 355 1125 292.5 1113 q 230 1101 191.5 1093.5 q 153 1086 132.5 1081 q 112 1076 102.5 1073 q 93 1070 88 1067 m 88 1068 l 88 1068 q 87 1072 85.5 1078 q 84 1084 82 1090 q 80 1096 78 1100 l 78 1100 q 88 1102 97.5 1122.5 q 107 1143 120 1173 l 120 1173 q 126 1187 138 1220 q 150 1253 165 1297.5 q 180 1342 194 1393 q 208 1444 218 1494 l 218 1494 l 247 1481 q 231 1413 210 1342.5 q 189 1272 165 1207.5 q 141 1143 115 1090 l 115 1090 l 115 1089 q 115 1089 111 1087 q 107 1085 101.5 1082 q 96 1079 92 1075.5 q 88 1072 88 1068"},"画":{"ha":1000,"x_min":105,"x_max":896,"o":"m 122 1731 l 122 1760 l 881 1760 l 881 1731 l 122 1731 m 481 1160 l 481 1579 l 511 1579 l 511 1160 l 481 1160 m 711 1352 l 282 1352 l 282 1174 l 711 1174 l 711 1352 m 711 1558 l 282 1558 l 282 1381 l 711 1381 l 711 1558 m 253 1144 l 253 1587 l 740 1587 l 740 1144 l 253 1144 m 867 935 l 867 1530 l 896 1530 l 896 935 l 867 935 m 105 983 l 105 1522 l 135 1522 l 135 1012 l 889 1012 l 889 983 l 105 983"},"不":{"ha":1000,"x_min":55,"x_max":945,"o":"m 74 1727 l 74 1757 l 925 1757 l 925 1727 l 74 1727 m 571 1509 l 571 1509 l 590 1527 q 638 1499 688.5 1466 q 739 1433 787 1398 q 835 1363 876 1330 q 917 1297 945 1269 l 945 1269 l 925 1246 q 897 1274 856 1308 q 815 1342 767.5 1377.5 q 720 1413 669.5 1447 q 619 1481 571 1509 m 574 1749 l 574 1749 l 603 1737 q 547 1636 466 1540.5 q 385 1445 286 1364 q 187 1283 75 1223 l 75 1223 q 73 1226 69 1230 q 65 1234 61.5 1238 q 58 1242 55 1245 l 55 1245 q 138 1289 214.5 1345 q 291 1401 358.5 1466.5 q 426 1532 480.5 1603.5 q 535 1675 574 1749 m 483 931 l 483 1592 l 513 1621 l 513 1621 l 513 931 l 483 931"},"插":{"ha":1000,"x_min":49,"x_max":942,"o":"m 855 1819 l 855 1819 l 874 1795 q 835 1781 781 1770 q 727 1759 665 1751 q 603 1743 539.5 1738 q 476 1733 419 1730 l 419 1730 q 418 1735 415 1743 q 412 1751 409 1757 l 409 1757 q 466 1760 529 1765.5 q 592 1771 653 1778.5 q 714 1786 766.5 1796 q 819 1806 855 1819 m 551 1457 l 551 1457 l 574 1433 q 542 1417 497.5 1402.5 q 453 1388 412 1379 l 412 1379 q 411 1384 407 1391 q 403 1398 400 1404 l 400 1404 q 439 1415 482 1428.5 q 525 1442 551 1457 m 369 1563 l 369 1592 l 942 1592 l 942 1563 l 369 1563 m 642 1001 l 642 1768 l 672 1768 l 672 1001 l 642 1001 m 400 930 l 400 1404 l 429 1394 l 429 930 l 400 930 m 720 1393 l 720 1423 l 905 1423 l 905 929 l 875 929 l 875 1393 l 720 1393 m 410 1199 l 410 1229 l 587 1229 l 587 1199 l 410 1199 m 723 1200 l 723 1229 l 895 1229 l 895 1200 l 723 1200 m 416 987 l 416 1017 l 887 1017 l 887 987 l 416 987 m 60 1248 l 49 1278 q 102 1294 176 1318.5 q 250 1343 329 1370 l 329 1370 l 333 1340 q 260 1316 188 1292 q 116 1268 60 1248 l 60 1248 m 64 1587 l 64 1617 l 321 1617 l 321 1587 l 64 1587 m 182 973 l 182 1830 l 212 1830 l 212 974 q 212 956 206 947.5 q 200 939 189 935 l 189 935 q 178 931 157 930.5 q 136 930 101 930 l 101 930 q 99 935 95.5 943.5 q 92 952 88 958 l 88 958 q 118 957 139.5 957.5 q 161 958 168 958 l 168 958 q 182 958 182 973 l 182 973"},"值":{"ha":1000,"x_min":43,"x_max":949,"o":"m 324 1687 l 324 1717 l 911 1717 l 911 1687 l 324 1687 m 282 969 l 282 998 l 949 998 l 949 969 l 282 969 m 387 980 l 387 1569 l 846 1569 l 846 980 l 817 980 l 817 1539 l 417 1539 l 417 980 l 387 980 m 402 1396 l 402 1425 l 830 1425 l 830 1396 l 402 1396 m 401 1252 l 401 1281 l 834 1281 l 834 1252 l 401 1252 m 404 1107 l 404 1136 l 832 1136 l 832 1107 l 404 1107 m 612 1832 l 612 1832 l 645 1826 q 637 1784 626.5 1734.5 q 616 1685 605.5 1638.5 q 595 1592 584 1558 l 584 1558 l 557 1564 q 567 1598 577.5 1646 q 588 1694 597.5 1743.5 q 607 1793 612 1832 m 291 1831 l 291 1831 l 320 1823 q 289 1739 249 1659.5 q 209 1580 162.5 1510.5 q 116 1441 65 1385 l 65 1385 q 63 1388 59 1392.5 q 55 1397 51 1401.5 q 47 1406 43 1409 l 43 1409 q 93 1461 138.5 1528.5 q 184 1596 223.5 1673.5 q 263 1751 291 1831 m 180 929 l 180 1585 l 207 1613 l 209 1612 l 209 929 l 180 929"},"出":{"ha":1000,"x_min":124,"x_max":881,"o":"m 485 1014 l 485 1830 l 515 1830 l 515 1014 l 485 1014 m 852 933 l 852 1334 l 881 1334 l 881 933 l 852 933 m 162 1409 l 162 1734 l 191 1734 l 191 1438 l 812 1438 l 812 1734 l 841 1734 l 841 1409 l 162 1409 m 124 992 l 124 1335 l 154 1335 l 154 1022 l 869 1022 l 869 992 l 124 992"},"来":{"ha":1000,"x_min":45,"x_max":959,"o":"m 62 1351 l 62 1380 l 940 1380 l 940 1351 l 62 1351 m 110 1669 l 110 1698 l 896 1698 l 896 1669 l 110 1669 m 483 930 l 483 1829 l 513 1829 l 513 930 l 483 930 m 778 1629 l 778 1629 l 808 1617 q 791 1582 770 1543 q 749 1504 727.5 1468 q 706 1432 686 1404 l 686 1404 l 662 1415 q 682 1443 703.5 1481 q 725 1519 745 1558.5 q 765 1598 778 1629 m 205 1613 l 205 1613 l 231 1622 q 253 1591 274 1554.5 q 295 1518 311.5 1483.5 q 328 1449 335 1422 l 335 1422 l 308 1410 q 300 1437 284 1472.5 q 268 1508 247.5 1545 q 227 1582 205 1613 m 463 1371 l 463 1371 l 488 1359 q 452 1301 403 1245.5 q 354 1190 297 1140 q 240 1090 181.5 1049.5 q 123 1009 67 982 l 67 982 q 65 986 61 990 q 57 994 53 998 q 49 1002 45 1005 l 45 1005 q 101 1030 160 1069.5 q 219 1109 275.5 1158 q 332 1207 380.5 1261.5 q 429 1316 463 1371 m 509 1360 l 533 1372 q 568 1317 617.5 1262 q 667 1207 724.5 1157 q 782 1107 842 1067.5 q 902 1028 959 1002 l 959 1002 q 956 999 952 994.5 q 948 990 944 986 q 940 982 937 978 l 937 978 q 881 1005 821 1046.5 q 761 1088 703 1139 q 645 1190 595 1246.5 q 545 1303 509 1360 l 509 1360"},"而":{"ha":1000,"x_min":61,"x_max":944,"o":"m 356 964 l 356 1533 l 385 1533 l 385 964 l 356 964 m 605 964 l 605 1533 l 634 1533 l 634 964 l 605 964 m 479 1748 l 479 1748 l 513 1741 q 500 1691 486 1633.5 q 472 1576 458 1535 l 458 1535 l 429 1541 q 438 1569 447.5 1606 q 457 1643 465.5 1681 q 474 1719 479 1748 m 117 929 l 117 1550 l 868 1550 l 868 1521 l 146 1521 l 146 929 l 117 929 m 855 991 l 855 1550 l 884 1550 l 884 992 q 884 970 877.5 959.5 q 871 949 854 944 l 854 944 q 835 940 797 939 q 759 938 702 938 l 702 938 q 701 945 697.5 954.5 q 694 964 689 971 l 689 971 q 743 970 782 970 q 821 970 834 971 l 834 971 q 847 972 851 976 q 855 980 855 991 l 855 991 m 61 1733 l 61 1763 l 944 1763 l 944 1733 l 61 1733"},"力":{"ha":1000,"x_min":63,"x_max":897,"o":"m 90 1572 l 90 1602 l 876 1602 l 876 1572 l 90 1572 m 867 1594 l 867 1602 l 897 1602 q 897 1602 897 1597.5 q 897 1593 896.5 1588 q 896 1583 896 1580 l 896 1580 q 886 1420 877 1308.5 q 868 1197 857.5 1126 q 847 1055 834.5 1015.5 q 822 976 805 959 l 805 959 q 791 943 775.5 938.5 q 760 934 735 933 l 735 933 q 712 932 667 934 q 622 936 575 939 l 575 939 q 574 946 572.5 954 q 571 962 566 969 l 566 969 q 621 964 667.5 962.5 q 714 961 731 961 l 731 961 q 748 961 759 963.5 q 770 966 778 975 l 778 975 q 793 990 805.5 1029 q 818 1068 828.5 1139.5 q 839 1211 848.5 1322.5 q 858 1434 867 1594 l 867 1594 m 437 1688 l 437 1829 l 467 1829 l 467 1688 q 467 1619 461 1543 q 455 1467 435.5 1387.5 q 416 1308 374.5 1228.5 q 333 1149 262.5 1072.5 q 192 996 84 927 l 84 927 q 82 931 78.5 934.5 q 75 938 71 942 q 67 946 63 948 l 63 948 q 169 1016 238 1090.5 q 307 1165 347.5 1242.5 q 388 1320 407 1397 q 426 1474 431.5 1547.5 q 437 1621 437 1688 l 437 1688"},"推":{"ha":1000,"x_min":41,"x_max":942,"o":"m 54 1242 l 41 1273 q 98 1292 179.5 1320.5 q 261 1349 347 1380 l 347 1380 l 352 1350 q 273 1322 194 1293.5 q 115 1265 54 1242 l 54 1242 m 47 1587 l 47 1617 l 348 1617 l 348 1587 l 47 1587 m 192 977 l 192 1830 l 222 1830 l 222 977 q 222 957 215 948 q 208 939 194 935 l 194 935 q 181 931 154.5 930 q 128 929 81 930 l 81 930 q 80 935 76.5 943 q 73 951 69 958 l 69 958 q 107 957 136 957 q 165 957 174 958 l 174 958 q 183 958 187.5 962 q 192 966 192 977 l 192 977 m 445 1416 l 445 1445 l 905 1445 l 905 1416 l 445 1416 m 445 1213 l 445 1242 l 905 1242 l 905 1213 l 445 1213 m 443 1007 l 443 1036 l 942 1036 l 942 1007 l 443 1007 m 502 1825 l 502 1825 l 531 1818 q 506 1742 474.5 1669 q 443 1596 406.5 1532 q 370 1468 329 1418 l 329 1418 q 326 1420 321 1423.5 q 316 1427 311 1430.5 q 306 1434 302 1436 l 302 1436 q 344 1484 381 1546.5 q 418 1609 449 1680 q 480 1751 502 1825 m 452 1646 l 459 1646 l 924 1646 l 924 1617 l 459 1617 l 459 931 l 429 931 l 429 1621 l 452 1646 m 673 1021 l 673 1629 l 703 1629 l 703 1021 l 673 1021 m 641 1813 l 641 1813 l 667 1822 q 692 1786 715 1743.5 q 738 1701 748 1670 l 748 1670 l 721 1658 q 710 1690 687 1733.5 q 664 1777 641 1813"},"导":{"ha":1000,"x_min":67,"x_max":941,"o":"m 67 1242 l 67 1272 l 941 1272 l 941 1242 l 67 1242 m 678 985 l 678 1370 l 708 1370 l 708 986 q 708 966 701 956 q 694 946 675 942 l 675 942 q 657 938 615 937 q 573 936 498 936 l 498 936 q 497 942 493 949.5 q 489 957 485 964 l 485 964 q 528 963 562.5 963 q 597 963 621 963.5 q 645 964 654 964 l 654 964 q 668 965 673 969.5 q 678 974 678 985 l 678 985 m 233 1210 l 233 1210 l 256 1225 q 287 1196 317.5 1160.5 q 348 1125 373 1091 q 398 1057 412 1030 l 412 1030 l 387 1013 q 374 1041 349 1075.5 q 324 1110 294 1145.5 q 264 1181 233 1210 m 149 1483 l 149 1777 l 179 1777 l 179 1482 q 179 1461 189 1449 q 199 1437 227.5 1432 q 256 1427 313 1427 l 313 1427 q 327 1427 360.5 1427 q 394 1427 439 1427 q 484 1427 534 1427 q 584 1427 631 1427 q 678 1427 714.5 1427 q 751 1427 770 1427 l 770 1427 q 813 1427 834 1435.5 q 855 1444 863.5 1469 q 872 1494 875 1541 l 875 1541 q 883 1537 891.5 1533.5 q 900 1530 907 1528 l 907 1528 q 903 1477 891.5 1448.5 q 880 1420 852 1409 q 824 1398 769 1398 l 769 1398 q 761 1398 727 1398 q 693 1398 645 1398 q 597 1398 544 1398 q 491 1398 443 1398 q 395 1398 362 1398 q 329 1398 322 1398 l 322 1398 q 255 1398 217 1404.5 q 179 1411 164 1429 q 149 1447 149 1483 l 149 1483 m 163 1573 l 163 1603 l 795 1603 l 795 1748 l 149 1748 l 149 1777 l 824 1777 l 824 1573 l 163 1573"},"终":{"ha":1000,"x_min":44,"x_max":966,"o":"m 61 1198 l 61 1198 q 60 1202 58 1208 q 56 1214 54 1220 q 52 1226 50 1230 l 50 1230 q 64 1232 82 1250.5 q 100 1269 124 1297 l 124 1297 q 136 1311 161 1342 q 186 1373 217.5 1416.5 q 249 1460 282 1510 q 315 1560 343 1611 l 343 1611 l 372 1597 q 306 1491 234 1392 q 162 1293 88 1219 l 88 1219 l 88 1218 q 88 1218 84 1216.5 q 80 1215 74.5 1212 q 69 1209 65 1205.5 q 61 1202 61 1198 m 61 1198 l 61 1198 l 61 1226 l 85 1240 l 376 1281 q 376 1275 376 1267 q 376 1259 377 1254 l 377 1254 q 275 1238 214.5 1228.5 q 154 1219 123 1213.5 q 92 1208 79.5 1204.5 q 67 1201 61 1198 m 55 1435 l 55 1435 q 54 1439 52.5 1445 q 51 1451 49 1457 q 47 1463 44 1467 l 44 1467 q 56 1469 69.5 1487 q 83 1505 99 1532 l 99 1532 q 108 1545 125.5 1575 q 143 1605 165 1646 q 187 1687 208.5 1734 q 230 1781 248 1828 l 248 1828 l 277 1816 q 249 1750 217 1685.5 q 185 1621 151.5 1562.5 q 118 1504 83 1457 l 83 1457 l 83 1456 q 83 1456 79 1454 q 75 1452 69 1449 q 63 1446 59 1442.5 q 55 1439 55 1435 m 55 1435 l 55 1435 l 55 1462 l 79 1475 l 283 1497 q 282 1490 282 1482 q 282 1474 283 1469 l 283 1469 q 212 1460 169 1454.5 q 126 1449 103 1445.5 q 80 1442 70 1439.5 q 60 1437 55 1435 m 52 1001 l 45 1032 q 88 1040 143 1050.5 q 198 1061 260.5 1073.5 q 323 1086 387 1099 l 387 1099 l 389 1071 q 298 1052 209 1033.5 q 120 1015 52 1001 l 52 1001 m 574 1289 l 574 1289 l 597 1308 q 632 1293 669.5 1273 q 707 1253 741 1232.5 q 775 1212 797 1194 l 797 1194 l 773 1174 q 751 1191 717.5 1212 q 684 1233 646.5 1253.5 q 609 1274 574 1289 m 464 1087 l 464 1087 l 484 1110 q 535 1096 591 1077 q 647 1058 701 1036.5 q 755 1015 802 993.5 q 849 972 882 953 l 882 953 l 863 928 q 818 954 751 984 q 684 1014 609 1041.5 q 534 1069 464 1087 m 599 1831 l 599 1831 l 630 1826 q 597 1755 541 1672 q 485 1589 403 1521 l 403 1521 q 401 1524 397 1527 q 393 1530 388.5 1533 q 384 1536 380 1538 l 380 1538 q 433 1581 475.5 1632 q 518 1683 549 1735 q 580 1787 599 1831 m 538 1687 l 553 1717 l 849 1717 l 849 1687 l 538 1687 m 837 1709 l 837 1717 l 845 1717 l 852 1719 l 870 1707 q 827 1606 754 1524 q 681 1442 592.5 1380.5 q 504 1319 413 1279 l 413 1279 q 411 1283 407.5 1287.5 q 404 1292 400 1296.5 q 396 1301 392 1304 l 392 1304 q 482 1341 569.5 1400 q 657 1459 727.5 1537.5 q 798 1616 837 1709 l 837 1709 m 514 1670 l 539 1681 q 582 1600 650 1524.5 q 718 1449 800 1390.5 q 882 1332 966 1299 l 966 1299 q 962 1296 958 1291.5 q 954 1287 950.5 1283 q 947 1279 944 1275 l 944 1275 q 860 1310 778 1370.5 q 696 1431 627.5 1508.5 q 559 1586 514 1670 l 514 1670"},"末":{"ha":1000,"x_min":47,"x_max":956,"o":"m 62 1617 l 62 1646 l 940 1646 l 940 1617 l 62 1617 m 119 1368 l 119 1397 l 882 1397 l 882 1368 l 119 1368 m 483 932 l 483 1831 l 513 1831 l 513 932 l 483 932 m 465 1389 l 465 1389 l 490 1377 q 455 1319 406 1263 q 357 1207 300.5 1157.5 q 244 1108 184.5 1067.5 q 125 1027 69 1000 l 69 1000 q 66 1004 62.5 1008.5 q 59 1013 55 1017 q 51 1021 47 1024 l 47 1024 q 104 1049 163.5 1087.5 q 223 1126 279.5 1174.5 q 336 1223 383.5 1277.5 q 431 1332 465 1389 m 506 1378 l 530 1390 q 565 1335 614 1280 q 663 1225 720.5 1176 q 778 1127 838.5 1088 q 899 1049 956 1025 l 956 1025 q 953 1022 949 1017.5 q 945 1013 941 1008.5 q 937 1004 934 1000 l 934 1000 q 877 1027 817 1068 q 757 1109 699 1159.5 q 641 1210 591.5 1265.5 q 542 1321 506 1378 l 506 1378"},"灰":{"ha":1000,"x_min":56,"x_max":926,"o":"m 80 1662 l 80 1691 l 901 1691 l 901 1662 l 80 1662 m 590 1607 l 590 1607 l 621 1607 q 616 1525 606.5 1444.5 q 597 1364 576.5 1288.5 q 556 1213 518 1146.5 q 480 1080 419 1026 q 358 972 268 935 l 268 935 q 266 938 262 942 q 258 946 254 950.5 q 250 955 247 957 l 247 957 q 336 992 395.5 1044.5 q 455 1097 492 1162 q 529 1227 548.5 1300.5 q 568 1374 577 1452 q 586 1530 590 1607 m 565 1355 l 592 1364 q 622 1273 671 1194 q 720 1115 785 1055 q 850 995 926 961 l 926 961 q 921 957 915 950 q 909 943 905 936 l 905 936 q 829 974 763 1036 q 697 1098 646.5 1179.5 q 596 1261 565 1355 l 565 1355 m 411 1466 l 411 1466 l 437 1456 q 431 1426 421.5 1389.5 q 412 1353 400.5 1317.5 q 389 1282 375 1255 l 375 1255 l 346 1269 q 361 1295 373 1329.5 q 385 1364 395 1400.5 q 405 1437 411 1466 m 804 1475 l 804 1475 l 832 1462 q 808 1414 778.5 1362.5 q 749 1311 721 1272 l 721 1272 l 697 1285 q 715 1311 734.5 1344.5 q 754 1378 772.5 1412.5 q 791 1447 804 1475 m 306 1831 l 306 1831 l 337 1828 q 321 1654 293 1510 q 265 1366 215.5 1251 q 166 1136 84 1048 l 84 1048 q 81 1051 76 1054.5 q 71 1058 65.5 1062 q 60 1066 56 1068 l 56 1068 q 139 1151 188.5 1265 q 238 1379 265 1521.5 q 292 1664 306 1831"},"暗":{"ha":1000,"x_min":88,"x_max":951,"o":"m 472 1143 l 472 1173 l 865 1173 l 865 1143 l 472 1143 m 472 977 l 472 1006 l 869 1006 l 869 977 l 472 977 m 455 930 l 455 1335 l 884 1335 l 884 934 l 855 934 l 855 1306 l 484 1306 l 484 930 l 455 930 m 405 1670 l 405 1699 l 921 1699 l 921 1670 l 405 1670 m 377 1440 l 377 1470 l 951 1470 l 951 1440 l 377 1440 m 483 1643 l 483 1643 l 511 1651 q 528 1614 545 1570 q 562 1526 570 1495 l 570 1495 l 540 1485 q 532 1517 516 1561.5 q 500 1606 483 1643 m 814 1652 l 814 1652 l 847 1642 q 827 1595 803 1540.5 q 779 1486 758 1450 l 758 1450 l 732 1459 q 747 1484 762 1518.5 q 777 1553 791 1588.5 q 805 1624 814 1652 m 623 1822 l 623 1822 l 653 1828 q 668 1794 681.5 1753 q 695 1712 700 1686 l 700 1686 l 669 1677 q 665 1706 651.5 1747 q 638 1788 623 1822 m 104 1727 l 104 1757 l 329 1757 l 329 1126 l 104 1126 l 104 1155 l 299 1155 l 299 1727 l 104 1727 m 98 1432 l 98 1462 l 320 1462 l 320 1432 l 98 1432 m 88 1046 l 88 1757 l 118 1757 l 118 1046 l 88 1046"},"背":{"ha":1000,"x_min":56,"x_max":935,"o":"m 221 930 l 221 1434 l 777 1434 l 777 1405 l 250 1405 l 250 930 l 221 930 m 764 976 l 764 1434 l 793 1434 l 793 976 q 793 957 787 947.5 q 781 938 765 934 l 765 934 q 749 930 713.5 929 q 678 928 619 928 l 619 928 q 618 934 614 942 q 610 950 606 957 l 606 957 q 640 956 668 955.5 q 696 955 715.5 955.5 q 735 956 743 956 l 743 956 q 755 957 759.5 961.5 q 764 966 764 976 l 764 976 m 236 1259 l 236 1288 l 779 1288 l 779 1259 l 236 1259 m 83 1703 l 83 1732 l 366 1732 l 366 1703 l 83 1703 m 63 1501 l 56 1531 q 115 1542 198.5 1558 q 282 1574 370 1590 l 370 1590 l 371 1563 q 288 1546 207.5 1530 q 127 1514 63 1501 l 63 1501 m 236 1107 l 236 1136 l 784 1136 l 784 1107 l 236 1107 m 354 1478 l 354 1831 l 383 1831 l 383 1478 l 354 1478 m 859 1778 l 859 1778 l 886 1756 q 849 1737 799 1718 q 749 1699 695 1682 q 641 1665 589 1652 l 589 1652 q 588 1657 584 1664 q 580 1671 577 1675 l 577 1675 q 627 1689 680 1706 q 733 1723 780.5 1741.5 q 828 1760 859 1778 m 569 1548 l 569 1830 l 598 1830 l 598 1547 q 598 1529 609 1523.5 q 620 1518 659 1518 l 659 1518 q 668 1518 694.5 1518 q 721 1518 754.5 1518 q 788 1518 816.5 1518 q 845 1518 858 1518 l 858 1518 q 877 1518 887 1524 q 897 1530 901 1550.5 q 905 1571 906 1612 l 906 1612 q 913 1608 920.5 1604.5 q 928 1601 935 1599 l 935 1599 q 933 1555 926.5 1530.5 q 920 1506 905 1497 q 890 1488 860 1488 l 860 1488 q 855 1488 834.5 1488 q 814 1488 786.5 1488 q 759 1488 732 1488 q 705 1488 685 1488 q 665 1488 661 1488 l 661 1488 q 625 1488 605 1492.5 q 585 1497 577 1510 q 569 1523 569 1548 l 569 1548"},"虚":{"ha":1000,"x_min":52,"x_max":925,"o":"m 485 1710 l 485 1739 l 866 1739 l 866 1710 l 485 1710 m 154 1589 l 154 1619 l 900 1619 l 900 1589 l 154 1589 m 173 955 l 173 984 l 923 984 l 923 955 l 173 955 m 472 1601 l 472 1830 l 501 1830 l 501 1601 l 472 1601 m 427 968 l 427 1294 l 457 1294 l 457 968 l 427 968 m 616 968 l 616 1294 l 645 1294 l 645 968 l 616 968 m 243 1437 l 239 1466 l 774 1519 l 778 1491 l 243 1437 m 472 1403 l 472 1596 l 501 1596 l 501 1403 q 501 1384 515 1378.5 q 529 1373 578 1373 l 578 1373 q 588 1373 613 1373 q 638 1373 671 1373 q 704 1373 738 1373 q 772 1373 799 1373 q 826 1373 839 1373 l 839 1373 q 862 1373 873.5 1378 q 885 1383 889.5 1400 q 894 1417 896 1452 l 896 1452 q 902 1448 910.5 1445 q 919 1442 925 1440 l 925 1440 q 923 1401 916 1380 q 909 1359 892 1351 q 875 1343 841 1343 l 841 1343 q 835 1343 809 1343 q 783 1343 747 1343 q 711 1343 675.5 1343 q 640 1343 614 1343 q 588 1343 582 1343 l 582 1343 q 539 1343 515 1347 q 491 1351 481.5 1364 q 472 1377 472 1403 l 472 1403 m 138 1372 l 138 1619 l 168 1619 l 168 1372 q 168 1323 164.5 1266.5 q 161 1210 151.5 1151 q 142 1092 124 1035.5 q 106 979 76 931 l 76 931 q 74 934 69.5 937 q 65 940 60.5 943.5 q 56 947 52 948 l 52 948 q 81 996 98.5 1050 q 116 1104 124.5 1160.5 q 133 1217 135.5 1271 q 138 1325 138 1372 l 138 1372 m 892 1612 l 892 1619 l 898 1619 l 905 1621 l 923 1613 q 910 1578 895.5 1541 q 881 1504 867 1478 l 867 1478 l 841 1487 q 855 1512 868.5 1546 q 882 1580 892 1612 l 892 1612 m 244 1233 l 244 1233 l 271 1243 q 290 1215 308.5 1181.5 q 327 1148 342 1116.5 q 357 1085 365 1061 l 365 1061 l 337 1048 q 330 1073 315 1105 q 300 1137 281.5 1171 q 263 1205 244 1233 m 816 1251 l 816 1251 l 843 1237 q 816 1190 782 1136.5 q 748 1083 718 1045 l 718 1045 l 696 1057 q 716 1083 738 1117 q 760 1151 781 1186.5 q 802 1222 816 1251"},"留":{"ha":1000,"x_min":92,"x_max":903,"o":"m 179 930 l 179 1331 l 828 1331 l 828 934 l 799 934 l 799 1302 l 208 1302 l 208 930 l 179 930 m 195 1139 l 195 1169 l 814 1169 l 814 1139 l 195 1139 m 501 1737 l 501 1767 l 881 1767 l 881 1737 l 501 1737 m 195 971 l 195 1000 l 814 1000 l 814 971 l 195 971 m 482 985 l 482 1321 l 512 1321 l 512 985 l 482 985 m 873 1760 l 873 1767 l 903 1767 q 903 1767 903 1763.5 q 903 1760 903 1755.5 q 903 1751 903 1747 l 903 1747 q 898 1635 892.5 1568 q 887 1501 879.5 1468 q 872 1435 861 1422 l 861 1422 q 852 1412 841 1408 q 830 1404 812 1403 l 812 1403 q 796 1403 765 1404 q 734 1405 702 1407 l 702 1407 q 701 1414 699 1421.5 q 697 1429 693 1435 l 693 1435 q 731 1432 762.5 1431.5 q 794 1431 805 1431 l 805 1431 q 817 1430 824.5 1431.5 q 832 1433 836 1440 l 836 1440 q 845 1450 852 1483 q 859 1516 864 1582.5 q 869 1649 873 1760 l 873 1760 m 411 1823 l 411 1823 l 438 1801 q 400 1784 348.5 1768 q 297 1752 241.5 1738 q 186 1724 133 1713 l 133 1713 q 132 1718 129 1725 q 126 1732 122 1737 l 122 1737 q 174 1749 228.5 1763 q 283 1777 331 1792.5 q 379 1808 411 1823 m 644 1757 l 644 1757 l 674 1757 q 667 1667 646 1592.5 q 625 1518 580.5 1462.5 q 536 1407 457 1372 l 457 1372 q 454 1377 447.5 1383 q 441 1389 436 1392 l 436 1392 q 512 1425 554.5 1478 q 597 1531 617 1602 q 637 1673 644 1757 m 327 1638 l 327 1638 l 353 1649 q 379 1617 403.5 1580 q 428 1543 448 1507.5 q 468 1472 478 1444 l 478 1444 l 450 1431 q 440 1459 420.5 1495 q 401 1531 376.5 1568.5 q 352 1606 327 1638 m 111 1406 l 111 1406 l 110 1435 l 133 1454 l 425 1532 q 427 1526 429.5 1519 q 432 1512 434 1507 l 434 1507 q 330 1477 268 1459 q 206 1441 174.5 1431 q 143 1421 130 1416 q 117 1411 111 1406 m 111 1406 l 111 1406 q 109 1410 105.5 1415 q 102 1420 98.5 1425.5 q 95 1431 92 1434 l 92 1434 q 100 1439 111 1454 q 122 1469 122 1499 l 122 1499 l 122 1737 l 151 1737 l 151 1453 q 151 1453 147 1449.5 q 143 1446 137 1441 q 131 1436 125 1429.5 q 119 1423 115 1417 q 111 1411 111 1406"},"给":{"ha":1000,"x_min":52,"x_max":935,"o":"m 69 1195 l 69 1195 q 68 1199 66 1205.5 q 64 1212 62 1218.5 q 60 1225 58 1229 l 58 1229 q 71 1231 89.5 1250 q 108 1269 131 1297 l 131 1297 q 143 1311 168 1342.5 q 193 1374 225 1417.5 q 257 1461 289.5 1512 q 322 1563 350 1614 l 350 1614 l 380 1599 q 315 1492 243 1391.5 q 171 1291 97 1217 l 97 1217 l 97 1216 q 97 1216 93 1214 q 89 1212 83 1209 q 77 1206 73 1202.5 q 69 1199 69 1195 m 69 1195 l 69 1195 l 69 1223 l 92 1239 l 365 1292 q 365 1286 366 1278.5 q 367 1271 368 1266 l 368 1266 q 272 1246 214.5 1233.5 q 157 1221 127.5 1214 q 98 1207 86.5 1203 q 75 1199 69 1195 m 63 1432 l 63 1432 q 62 1436 60 1442.5 q 58 1449 56 1455.5 q 54 1462 52 1466 l 52 1466 q 63 1468 76 1486 q 89 1504 104 1531 l 104 1531 q 112 1544 128.5 1574 q 145 1604 165 1645 q 185 1686 205 1733 q 225 1780 241 1827 l 241 1827 l 272 1815 q 247 1750 217.5 1685 q 188 1620 156 1561 q 124 1502 91 1455 l 91 1455 l 91 1454 q 91 1454 87 1452 q 83 1450 77 1446.5 q 71 1443 67 1439.5 q 63 1436 63 1432 m 63 1432 l 63 1432 l 63 1460 l 85 1474 l 287 1499 q 287 1493 287 1485 q 287 1477 288 1472 l 288 1472 q 218 1462 175.5 1455 q 133 1448 110.5 1444 q 88 1440 78 1437.5 q 68 1435 63 1432 m 60 1008 l 53 1038 q 94 1047 147.5 1059.5 q 201 1072 261 1086.5 q 321 1101 383 1116 l 383 1116 l 385 1087 q 297 1066 211 1045.5 q 125 1025 60 1008 l 60 1008 m 498 1470 l 498 1499 l 803 1499 l 803 1470 l 498 1470 m 474 985 l 474 1015 l 832 1015 l 832 985 l 474 985 m 457 926 l 457 1324 l 842 1324 l 842 930 l 813 930 l 813 1294 l 486 1294 l 486 926 l 457 926 m 634 1796 l 661 1807 q 690 1741 734 1675.5 q 778 1610 830.5 1557 q 883 1504 935 1474 l 935 1474 q 931 1471 926.5 1466.5 q 922 1462 918 1457 q 914 1452 911 1448 l 911 1448 q 859 1482 806.5 1537.5 q 754 1593 709 1660.5 q 664 1728 634 1796 l 634 1796 m 643 1825 l 643 1825 l 675 1818 q 638 1706 567 1605.5 q 496 1505 397 1434 l 397 1434 q 395 1437 390.5 1440.5 q 386 1444 381.5 1447.5 q 377 1451 373 1453 l 373 1453 q 438 1499 491 1558 q 544 1617 583 1685 q 622 1753 643 1825"},"内":{"ha":1000,"x_min":109,"x_max":892,"o":"m 467 1464 l 467 1464 l 488 1479 q 531 1443 577 1401 q 623 1359 666.5 1316.5 q 710 1274 747.5 1235 q 785 1196 811 1166 l 811 1166 l 787 1146 q 762 1177 725 1216.5 q 688 1256 644.5 1299.5 q 601 1343 555.5 1385 q 510 1427 467 1464 m 486 1679 l 486 1831 l 516 1831 l 516 1679 q 516 1633 511.5 1580 q 507 1527 492 1471 q 477 1415 444.5 1358 q 412 1301 355.5 1246.5 q 299 1192 213 1142 l 213 1142 q 211 1145 207.5 1149 q 204 1153 200 1157.5 q 196 1162 192 1164 l 192 1164 q 277 1212 332 1264.5 q 387 1317 418.5 1372 q 450 1427 464.5 1480.5 q 479 1534 482.5 1584.5 q 486 1635 486 1679 l 486 1679 m 109 928 l 109 1655 l 878 1655 l 878 1625 l 138 1625 l 138 928 l 109 928 m 863 990 l 863 1655 l 892 1655 l 892 991 q 892 966 884 954 q 876 942 856 937 l 856 937 q 835 933 790 932.5 q 745 932 677 932 l 677 932 q 676 937 674 942.5 q 672 948 670 954.5 q 668 961 665 966 l 665 966 q 707 965 742 964.5 q 777 964 802.5 964.5 q 828 965 838 965 l 838 965 q 853 966 858 971.5 q 863 977 863 990 l 863 990"},"容":{"ha":1000,"x_min":46,"x_max":949,"o":"m 345 1623 l 345 1623 l 374 1614 q 339 1572 295 1532 q 251 1492 203.5 1457 q 156 1422 111 1395 l 111 1395 q 109 1398 104.5 1402.5 q 100 1407 95 1411 q 90 1415 86 1418 l 86 1418 q 157 1456 226.5 1510.5 q 296 1565 345 1623 m 612 1605 l 612 1605 l 630 1623 q 680 1594 732.5 1557.5 q 785 1521 830.5 1484.5 q 876 1448 905 1419 l 905 1419 l 885 1396 q 856 1426 811 1463 q 766 1500 714 1537.5 q 662 1575 612 1605 m 230 928 l 230 1255 l 769 1255 l 769 935 l 739 935 l 739 1226 l 259 1226 l 259 928 l 230 928 m 245 968 l 245 997 l 758 997 l 758 968 l 245 968 m 94 1578 l 94 1726 l 906 1726 l 906 1578 l 876 1578 l 876 1697 l 124 1697 l 124 1578 l 94 1578 m 454 1824 l 454 1824 l 481 1833 q 500 1807 518 1775 q 536 1743 544 1720 l 544 1720 l 517 1710 q 508 1733 490 1765 q 472 1797 454 1824 m 511 1540 l 511 1540 l 537 1527 q 487 1453 412.5 1384 q 338 1315 250 1257.5 q 162 1200 69 1161 l 69 1161 q 65 1166 58.5 1173 q 52 1180 46 1184 l 46 1184 q 139 1222 226.5 1278 q 314 1334 388 1401.5 q 462 1469 511 1540 m 484 1497 l 510 1509 q 596 1399 708 1327 q 820 1255 949 1199 l 949 1199 q 943 1195 937 1187.5 q 931 1180 926 1173 l 926 1173 q 840 1213 762 1258.5 q 684 1304 614.5 1362.5 q 545 1421 484 1497 l 484 1497"},"负":{"ha":1000,"x_min":75,"x_max":900,"o":"m 318 1719 l 341 1748 l 655 1748 l 655 1719 l 318 1719 m 374 1829 l 374 1829 l 409 1823 q 378 1770 333 1710.5 q 288 1651 229 1593.5 q 170 1536 98 1487 l 98 1487 q 95 1491 91 1494.5 q 87 1498 83 1501.5 q 79 1505 75 1507 l 75 1507 q 146 1554 203.5 1610 q 261 1666 304.5 1723 q 348 1780 374 1829 m 646 1741 l 646 1748 l 652 1748 l 658 1750 l 676 1737 q 658 1699 633 1659.5 q 608 1620 581 1585 q 554 1550 529 1523 l 529 1523 q 526 1525 519.5 1529 q 513 1533 507 1535 l 507 1535 q 532 1561 558.5 1596.5 q 585 1632 608 1670 q 631 1708 646 1741 l 646 1741 m 530 1110 l 530 1110 l 549 1130 q 614 1102 678.5 1071 q 743 1040 800 1010 q 857 980 900 953 l 900 953 l 877 931 q 836 958 780.5 988 q 725 1018 661 1049.5 q 597 1081 530 1110 m 492 1433 l 492 1433 l 523 1433 q 517 1346 503 1276 q 489 1206 462 1150.5 q 435 1095 389 1053 q 343 1011 273 981 q 203 951 102 931 l 102 931 q 100 936 95 944 q 90 952 85 956 l 85 956 q 184 974 253 1002.5 q 322 1031 366.5 1071.5 q 411 1112 436.5 1165 q 462 1218 474.5 1284.5 q 487 1351 492 1433 m 217 1117 l 217 1544 l 800 1544 l 800 1117 l 770 1117 l 770 1515 l 246 1515 l 246 1117 l 217 1117"},"间":{"ha":1000,"x_min":111,"x_max":887,"o":"m 111 928 l 111 1621 l 140 1621 l 140 928 l 111 928 m 126 1797 l 126 1797 l 148 1811 q 172 1791 196 1767 q 220 1743 241 1719.5 q 262 1696 274 1677 l 274 1677 l 250 1660 q 238 1679 218 1703 q 198 1727 174 1752 q 150 1777 126 1797 m 364 1738 l 364 1768 l 876 1768 l 876 1738 l 364 1738 m 858 982 l 858 1768 l 887 1768 l 887 983 q 887 962 881 952 q 875 942 861 937 l 861 937 q 846 933 817 932.5 q 788 932 743 932 l 743 932 q 741 937 737.5 947 q 734 957 730 964 l 730 964 q 769 963 799.5 963 q 830 963 840 963 l 840 963 q 851 964 854.5 968 q 858 972 858 982 l 858 982 m 641 1309 l 354 1309 l 354 1135 l 641 1135 l 641 1309 m 641 1510 l 354 1510 l 354 1338 l 641 1338 l 641 1510 m 325 1106 l 325 1539 l 671 1539 l 671 1106 l 325 1106"},"只":{"ha":1000,"x_min":51,"x_max":936,"o":"m 611 1197 l 611 1197 l 634 1214 q 689 1174 746.5 1126 q 804 1078 854 1031.5 q 904 985 936 947 l 936 947 l 912 927 q 881 964 831.5 1012 q 782 1060 724 1108.5 q 666 1157 611 1197 m 347 1212 l 347 1212 l 377 1201 q 342 1151 292 1100.5 q 242 1050 185 1005 q 128 960 71 926 l 71 926 q 69 929 65.5 933 q 62 937 58 941 q 54 945 51 948 l 51 948 q 107 981 163.5 1024.5 q 220 1068 268 1116.5 q 316 1165 347 1212 m 802 1725 l 198 1725 l 198 1357 l 802 1357 l 802 1725 m 169 1327 l 169 1755 l 831 1755 l 831 1327 l 169 1327"},"需":{"ha":1000,"x_min":74,"x_max":930,"o":"m 141 1754 l 141 1783 l 861 1783 l 861 1754 l 141 1754 m 74 1317 l 74 1346 l 930 1346 l 930 1317 l 74 1317 m 187 1536 l 187 1566 l 413 1566 l 413 1536 l 187 1536 m 166 1429 l 166 1459 l 414 1459 l 414 1429 l 166 1429 m 580 1429 l 580 1459 l 841 1459 l 841 1429 l 580 1429 m 580 1536 l 580 1566 l 815 1566 l 815 1536 l 580 1536 m 482 1385 l 482 1773 l 512 1773 l 512 1385 l 482 1385 m 379 937 l 379 1211 l 409 1211 l 409 937 l 379 937 m 608 937 l 608 1211 l 637 1211 l 637 937 l 608 937 m 93 1488 l 93 1673 l 908 1673 l 908 1488 l 878 1488 l 878 1644 l 123 1644 l 123 1488 l 93 1488 m 156 930 l 156 1222 l 853 1222 l 853 1192 l 185 1192 l 185 930 l 156 930 m 841 970 l 841 1222 l 870 1222 l 870 970 q 870 954 866 946 q 862 938 848 934 l 848 934 q 835 929 808.5 928.5 q 782 928 741 928 l 741 928 q 740 933 736 941 q 732 949 728 956 l 728 956 q 767 955 792.5 955 q 818 955 827 956 l 827 956 q 836 957 838.5 960 q 841 963 841 970 l 841 970 m 482 1338 l 482 1338 l 514 1332 q 502 1298 488.5 1262.5 q 475 1227 463 1201 l 463 1201 l 436 1207 q 448 1234 461.5 1272 q 475 1310 482 1338"},"要":{"ha":1000,"x_min":59,"x_max":937,"o":"m 63 1251 l 63 1280 l 937 1280 l 937 1251 l 63 1251 m 78 1750 l 78 1779 l 925 1779 l 925 1750 l 78 1750 m 720 1271 l 720 1271 l 746 1259 q 715 1185 658 1129 q 601 1073 517 1033.5 q 433 994 322 969.5 q 211 945 74 934 l 74 934 q 72 940 68 948 q 64 956 59 962 l 59 962 q 242 975 374 1011.5 q 506 1048 591.5 1112 q 677 1176 720 1271 m 200 1100 l 200 1100 l 226 1123 q 325 1107 422 1087.5 q 519 1068 609 1045.5 q 699 1023 777 998.5 q 855 974 916 950 l 916 950 l 885 927 q 808 959 700.5 990 q 593 1021 465.5 1049 q 338 1077 200 1100 m 361 1413 l 361 1770 l 390 1770 l 390 1413 l 361 1413 m 601 1413 l 601 1770 l 630 1770 l 630 1413 l 601 1413 m 844 1607 l 161 1607 l 161 1429 l 844 1429 l 844 1607 m 132 1400 l 132 1636 l 873 1636 l 873 1400 l 132 1400 m 235 1100 l 200 1100 q 235 1139 274.5 1190 q 314 1241 350 1295.5 q 386 1350 411 1398 l 411 1398 l 439 1390 q 414 1341 378 1287 q 342 1233 304 1184 q 266 1135 235 1100 l 235 1100"},"方":{"ha":1000,"x_min":57,"x_max":922,"o":"m 84 1616 l 84 1645 l 922 1645 l 922 1616 l 84 1616 m 379 1387 l 379 1417 l 795 1417 l 795 1387 l 379 1387 m 785 1410 l 785 1417 l 816 1417 q 816 1417 815.5 1413 q 815 1409 815 1404.5 q 815 1400 814 1396 l 814 1396 q 803 1249 792 1160 q 781 1071 767.5 1025 q 754 979 735 961 l 735 961 q 723 948 708.5 944 q 694 940 671 939 l 671 939 q 647 938 602 940 q 557 942 506 946 l 506 946 q 505 953 503 961 q 501 969 496 975 l 496 975 q 552 970 599.5 968.5 q 647 967 665 967 l 665 967 q 682 967 692.5 969 q 703 971 711 978 l 711 978 q 727 993 740 1038.5 q 753 1084 764 1174 q 775 1264 785 1410 l 785 1410 m 377 1633 l 377 1633 l 408 1633 q 404 1555 395.5 1473 q 387 1391 368 1312 q 349 1233 314 1161 q 279 1089 222 1029.5 q 165 970 80 929 l 80 929 q 76 934 69 940 q 62 946 57 950 l 57 950 q 141 989 197 1047 q 253 1105 287.5 1175 q 322 1245 340 1322.5 q 358 1400 365.5 1479 q 373 1558 377 1633 m 465 1818 l 465 1818 l 491 1830 q 512 1793 533 1750.5 q 554 1708 564 1677 l 564 1677 l 535 1664 q 525 1695 505 1738 q 485 1781 465 1818"},"亮":{"ha":1000,"x_min":73,"x_max":924,"o":"m 639 999 l 639 1238 l 669 1238 l 669 998 q 669 982 677 977 q 685 972 714 972 l 714 972 q 720 972 738 972 q 756 972 779 972 q 802 972 821.5 972 q 841 972 850 972 l 850 972 q 866 972 874.5 980 q 883 988 886.5 1013 q 890 1038 891 1090 l 891 1090 q 895 1088 899.5 1085.5 q 904 1083 909 1081.5 q 914 1080 918 1079 l 918 1079 q 917 1025 911.5 996 q 906 967 892.5 956 q 879 945 854 945 l 854 945 q 849 945 828.5 945 q 808 945 783 945 q 758 945 738 945 q 718 945 714 945 l 714 945 q 685 945 668.5 949 q 652 953 645.5 965 q 639 977 639 999 l 639 999 m 328 1238 l 328 1238 l 357 1238 q 354 1163 340 1110.5 q 326 1058 296.5 1023 q 267 988 216.5 966 q 166 944 89 929 l 89 929 q 88 933 85 937 q 82 941 79 945.5 q 76 950 73 952 l 73 952 q 148 965 196.5 985.5 q 245 1006 272.5 1038 q 300 1070 312.5 1119 q 325 1168 328 1238 m 73 1689 l 73 1719 l 924 1719 l 924 1689 l 73 1689 m 97 1220 l 97 1359 l 901 1359 l 901 1220 l 871 1220 l 871 1329 l 127 1329 l 127 1220 l 97 1220 m 767 1588 l 242 1588 l 242 1473 l 767 1473 l 767 1588 m 213 1443 l 213 1618 l 796 1618 l 796 1443 l 213 1443 m 458 1824 l 458 1824 l 484 1833 q 504 1808 522.5 1777 q 541 1746 551 1723 l 551 1723 l 524 1712 q 514 1735 495.5 1766.5 q 477 1798 458 1824 m 343 1209 l 343 1238 l 657 1238 l 657 1209 l 343 1209"},"起":{"ha":1000,"x_min":38,"x_max":960,"o":"m 79 1674 l 79 1704 l 472 1704 l 472 1674 l 79 1674 m 567 1450 l 567 1479 l 880 1479 l 880 1450 l 567 1450 m 55 1484 l 55 1514 l 497 1514 l 497 1484 l 55 1484 m 283 1266 l 283 1295 l 487 1295 l 487 1266 l 283 1266 m 264 1500 l 264 1831 l 293 1831 l 293 1500 l 264 1500 m 274 1017 l 274 1489 l 303 1489 l 303 1017 l 274 1017 m 543 1745 l 543 1773 l 897 1773 l 897 1424 l 868 1424 l 868 1745 l 543 1745 m 554 1135 l 554 1479 l 583 1479 l 583 1134 q 583 1112 595.5 1105 q 608 1098 650 1098 l 650 1098 q 660 1098 688.5 1098 q 717 1098 751.5 1098 q 786 1098 817 1098 q 848 1098 862 1098 l 862 1098 q 887 1098 899.5 1109 q 912 1120 917 1152.5 q 922 1185 924 1249 l 924 1249 q 928 1246 933 1243.5 q 938 1241 943.5 1239 q 949 1237 954 1235 l 954 1235 q 951 1168 943.5 1132 q 936 1096 917.5 1082.5 q 899 1069 862 1069 l 862 1069 q 857 1069 835.5 1069 q 814 1069 785.5 1069 q 757 1069 728 1069 q 699 1069 678 1069 q 657 1069 652 1069 l 652 1069 q 614 1069 592.5 1074 q 571 1079 562.5 1093.5 q 554 1108 554 1135 l 554 1135 m 117 1236 l 142 1248 q 163 1170 195.5 1118.5 q 228 1067 277 1038 q 326 1009 396 997 q 466 985 561 985 l 561 985 q 566 985 595 985 q 624 985 666 985 q 708 985 755.5 985 q 803 985 846.5 985 q 890 985 921 985 q 952 985 960 985 l 960 985 q 957 982 954 976.5 q 951 971 948.5 965.5 q 946 960 945 956 l 945 956 l 867 956 l 564 956 q 460 956 385.5 968.5 q 311 981 259.5 1012 q 208 1043 174 1097.5 q 140 1152 117 1236 l 117 1236 m 122 1384 l 122 1384 l 153 1382 q 150 1286 142 1202.5 q 134 1119 116 1049.5 q 98 980 64 926 l 64 926 q 62 929 57 932.5 q 52 936 47 940 q 42 944 38 946 l 38 946 q 72 996 89 1063 q 106 1130 113 1211.5 q 120 1293 122 1384"}}}
